<svg width="218" height="123" viewBox="0 0 218 123" fill="none" xmlns="http://www.w3.org/2000/svg">
<g filter="url(#filter0_d_401_918)">
<path d="M54.3301 105.504C45.2611 105.504 38.015 104.273 32.5918 101.812C27.1686 99.306 23.2493 95.9336 20.834 91.6953C18.4186 87.4115 17.2109 82.6491 17.2109 77.4082C17.2109 71.3926 19.1934 66.1289 23.1582 61.6172C27.123 57.0599 32.4323 53.4368 39.0859 50.748C35.4857 49.1074 32.1816 47.2161 29.1738 45.0742C26.2116 42.8867 23.819 40.2891 21.9961 37.2812C20.2188 34.2734 19.3301 30.6732 19.3301 26.4805C19.3301 22.151 20.4922 18.0951 22.8164 14.3125C25.1862 10.4844 28.946 7.38542 34.0957 5.01562C39.2454 2.64583 45.9902 1.46094 54.3301 1.46094C63.4447 1.46094 70.554 2.69141 75.6582 5.15234C80.8079 7.56771 84.431 10.6439 86.5273 14.3809C88.6237 18.1178 89.6719 21.9688 89.6719 25.9336C89.6719 29.7161 88.7376 33.2253 86.8691 36.4609C85.0007 39.6966 82.5625 42.5221 79.5547 44.9375C76.5924 47.3529 73.4251 49.2214 70.0527 50.543C73.972 52.3659 77.5723 54.485 80.8535 56.9004C84.1803 59.3158 86.8236 62.1868 88.7832 65.5137C90.7884 68.7949 91.791 72.737 91.791 77.3398C91.791 82.5807 90.5605 87.3431 88.0996 91.627C85.6387 95.8652 81.6738 99.2376 76.2051 101.744C70.7363 104.251 63.4447 105.504 54.3301 105.504ZM38.2656 27.3008C38.2656 31.2656 39.9746 34.4785 43.3926 36.9395C46.8561 39.4004 50.9577 41.5879 55.6973 43.502C59.4342 41.998 62.8294 39.9017 65.8828 37.2129C68.9818 34.4785 70.5312 31.3112 70.5312 27.7109C70.5312 25.7057 70.1895 23.7689 69.5059 21.9004C68.8223 20.0319 67.3639 18.4824 65.1309 17.252C62.8978 16.0215 59.4342 15.4062 54.7402 15.4062C48.4967 15.4062 44.1901 16.6139 41.8203 19.0293C39.4505 21.4447 38.2656 24.2018 38.2656 27.3008ZM54.877 91.2168C59.8444 91.2168 63.627 90.556 66.2246 89.2344C68.8223 87.9128 70.5768 86.1126 71.4883 83.834C72.4453 81.5098 72.9238 78.9121 72.9238 76.041C72.9238 72.0306 71.0098 68.5671 67.1816 65.6504C63.3991 62.7337 58.9557 60.2272 53.8516 58.1309C47.8359 60.3639 43.347 63.0527 40.3848 66.1973C37.4225 69.2962 35.9414 72.5775 35.9414 76.041C35.9414 78.9121 36.4655 81.5098 37.5137 83.834C38.6074 86.1126 40.5215 87.9128 43.2559 89.2344C46.0358 90.556 49.9095 91.2168 54.877 91.2168ZM130.788 58.6094C125.547 58.6094 121.423 57.5384 118.415 55.3965C115.453 53.209 113.356 50.1784 112.126 46.3047C110.896 42.431 110.28 37.8965 110.28 32.7012V29.0781C110.28 21.1029 111.716 14.8822 114.587 10.416C117.504 5.94987 122.904 3.7168 130.788 3.7168C138.672 3.7168 144.118 5.94987 147.126 10.416C150.134 14.8366 151.638 21.0345 151.638 29.0098V32.7012C151.638 40.5397 150.134 46.8288 147.126 51.5684C144.118 56.2624 138.672 58.6094 130.788 58.6094ZM138.855 104L175.974 5.15234H187.8L151.022 104H138.855ZM130.788 49.7227C133.705 49.7227 135.847 49.0391 137.214 47.6719C138.581 46.2591 139.47 44.3451 139.88 41.9297C140.29 39.4688 140.495 36.7116 140.495 33.6582V27.7109C140.495 24.7031 140.313 22.0827 139.948 19.8496C139.584 17.571 138.718 15.7936 137.351 14.5176C136.029 13.2415 133.842 12.6035 130.788 12.6035C127.826 12.6035 125.661 13.2415 124.294 14.5176C122.927 15.748 122.061 17.5026 121.696 19.7812C121.377 22.0143 121.218 24.612 121.218 27.5742V33.6582C121.218 36.7116 121.4 39.4688 121.765 41.9297C122.175 44.3451 123.064 46.2591 124.431 47.6719C125.798 49.0391 127.917 49.7227 130.788 49.7227ZM195.593 105.299C190.352 105.299 186.228 104.228 183.22 102.086C180.258 99.944 178.138 96.9362 176.862 93.0625C175.632 89.1432 175.017 84.5859 175.017 79.3906V75.7676C175.017 67.7923 176.475 61.5716 179.392 57.1055C182.308 52.6393 187.709 50.4062 195.593 50.4062C203.477 50.4062 208.9 52.6393 211.862 57.1055C214.87 61.526 216.374 67.724 216.374 75.6992V79.3906C216.374 87.2292 214.87 93.5182 211.862 98.2578C208.9 102.952 203.477 105.299 195.593 105.299ZM195.593 96.4121C198.464 96.4121 200.583 95.7285 201.95 94.3613C203.317 92.9486 204.206 91.0345 204.616 88.6191C205.026 86.1582 205.231 83.401 205.231 80.3477V74.4004C205.231 71.3926 205.049 68.7493 204.685 66.4707C204.366 64.1921 203.522 62.4375 202.155 61.207C200.788 59.931 198.601 59.293 195.593 59.293C192.585 59.293 190.397 59.931 189.03 61.207C187.709 62.4375 186.866 64.1921 186.501 66.4707C186.136 68.7038 185.954 71.3014 185.954 74.2637V80.3477C185.954 83.401 186.136 86.1582 186.501 88.6191C186.911 91.0345 187.8 92.9486 189.167 94.3613C190.534 95.7285 192.676 96.4121 195.593 96.4121Z" fill="#FF1054"/>
</g>
<defs>
<filter id="filter0_d_401_918" x="0.210938" y="0.460938" width="217.163" height="122.043" filterUnits="userSpaceOnUse" color-interpolation-filters="sRGB">
<feFlood flood-opacity="0" result="BackgroundImageFix"/>
<feColorMatrix in="SourceAlpha" type="matrix" values="0 0 0 0 0 0 0 0 0 0 0 0 0 0 0 0 0 0 127 0" result="hardAlpha"/>
<feOffset dx="-8" dy="8"/>
<feGaussianBlur stdDeviation="4.5"/>
<feComposite in2="hardAlpha" operator="out"/>
<feColorMatrix type="matrix" values="0 0 0 0 0 0 0 0 0 0 0 0 0 0 0 0 0 0 0.25 0"/>
<feBlend mode="normal" in2="BackgroundImageFix" result="effect1_dropShadow_401_918"/>
<feBlend mode="normal" in="SourceGraphic" in2="effect1_dropShadow_401_918" result="shape"/>
</filter>
</defs>
</svg>
