<svg width="75" height="75" viewBox="0 0 75 75" fill="none" xmlns="http://www.w3.org/2000/svg">
<path d="M35.1535 0C36.7159 0 38.2783 0 39.8406 0C40.0281 0.0410124 40.2137 0.105461 40.405 0.119131C46.2171 0.55855 51.6561 2.22248 56.6264 5.26326C66.3561 11.214 72.3147 19.807 74.42 31.0347C74.6758 32.3959 74.8067 33.7806 74.9941 35.1535V39.6942C74.834 40.9714 74.7403 42.2604 74.5059 43.5239C72.0803 56.5581 64.8738 65.946 52.9177 71.6604C51.328 72.4201 49.6289 72.9552 47.9084 73.6212V45.7953H55.9351C56.3433 42.6412 56.7397 39.5614 57.1518 36.3819H47.9162C47.8927 36.2022 47.8693 36.1066 47.8693 36.0109C47.8732 33.9114 47.84 31.812 47.8947 29.7145C47.9572 27.2908 49.1973 26.0351 51.6307 25.9296C53.2869 25.8574 54.9488 25.8925 56.6089 25.8808C56.8666 25.8808 57.1225 25.8808 57.3686 25.8808V17.3268C54.4274 17.2819 51.5233 17.1002 48.6388 17.2506C47.1487 17.3287 45.5902 17.7916 44.2309 18.4361C40.2898 20.3031 38.5575 23.7286 38.2587 27.906C38.0771 30.4332 38.1826 32.9798 38.1591 35.5187C38.1572 35.8019 38.1591 36.0851 38.1591 36.4503H30.148V45.805H38.1591V46.6721C38.1591 55.8511 38.1591 65.0281 38.1552 74.2071C38.1552 74.4707 38.1083 74.7363 38.0849 75H35.1555C34.9914 74.9609 34.8313 74.8965 34.6653 74.8848C30.1461 74.5528 25.8046 73.4904 21.7307 71.5022C10.1457 65.8464 3.07398 56.6889 0.585892 44.0298C0.314429 42.649 0.191391 41.237 0 39.8406C0 38.2783 0 36.7159 0 35.1535C0.0585892 34.6731 0.12499 34.1946 0.17772 33.7142C1.06046 25.6093 4.16569 18.4751 9.63597 12.4287C15.4246 6.02883 22.5861 2.04281 31.1089 0.566362C32.4506 0.333958 33.806 0.185532 35.1535 0Z" fill="#EDF6FF"/>
</svg>
