<svg width="1515" height="310" viewBox="0 0 1515 310" fill="none" xmlns="http://www.w3.org/2000/svg">
<g clip-path="url(#clip0_426_1107)">
<rect width="1515" height="310" fill="#153677"/>
<path d="M1338.69 280.766C1342.64 283.411 1351.45 271.423 1358.83 274.195C1362.43 275.542 1362.26 279.116 1366.87 280.574C1370.56 281.744 1374.02 280.518 1376.55 279.588C1385.53 276.279 1386.7 269.924 1391.86 270.037C1393.91 270.077 1394.31 271.094 1400.81 276.391C1411.17 284.837 1413.01 284.605 1415.78 288.812C1417.24 291.04 1421.28 297.194 1419.44 302.627C1416.49 311.289 1399.32 315.905 1387.09 311.53C1380.14 309.045 1378.2 304.871 1370.79 304.454C1364.91 304.125 1363.64 306.625 1356.78 307.755C1346.91 309.382 1333.16 306.898 1330.4 300.03C1327.9 293.788 1335.11 285.566 1331.77 282.601C1330.11 281.119 1327.03 282.057 1326.4 280.366C1325.83 278.787 1327.75 275.934 1327.75 275.934C1327.75 275.934 1330.38 275.862 1332.66 274.708C1333.1 274.484 1333.95 274.043 1334.79 273.194C1336.09 271.88 1336.24 270.734 1336.59 270.766C1337.53 270.83 1335.85 278.883 1338.68 280.782L1338.69 280.766Z" fill="#A2A6B4"/>
<path d="M1051.96 187.14C1052.96 185.329 1081.1 206.252 1119.24 215.739C1142.42 221.501 1152.14 218.776 1170.64 229.29C1185.74 237.872 1197.3 249.924 1196.14 251.719C1195.66 252.456 1192.92 251.631 1192.39 252.809C1191.84 254.019 1194.41 255.614 1193.87 257.128C1193.42 258.418 1191.35 257.809 1190.07 259.588C1189.15 260.862 1189.91 261.6 1188.83 263.114C1187.9 264.428 1186.84 264.573 1186.81 265.51C1186.8 266.279 1187.49 266.937 1187.89 267.313C1188.84 268.195 1189.75 268.299 1189.72 268.515C1189.66 269.012 1184.71 268.01 1183.91 269.525C1183.07 271.128 1187.55 274.333 1186.68 275.952C1185.97 277.282 1182.51 275.992 1181.68 277.402C1180.69 279.093 1184.66 282.651 1183.77 283.805C1183.03 284.758 1179.81 283.003 1179.09 284.037C1178.5 284.878 1180.27 286.601 1179.64 287.491C1179.02 288.356 1177.01 287.194 1176.19 288.044C1174.97 289.302 1178.03 293.22 1176.9 294.39C1175.91 295.408 1172.65 293.397 1172.1 294.206C1171.57 294.983 1174.3 297.195 1173.73 298.253C1173.1 299.399 1169.46 297.716 1168.33 299.142C1167.27 300.496 1169.64 303.197 1168.53 304.511C1167.52 305.705 1164.75 304.383 1164.25 305.304C1163.65 306.394 1167.15 308.942 1166.53 310.064C1166.03 310.978 1163.43 309.808 1162.51 311.002C1161.63 312.132 1163.26 314.095 1162.35 315.113C1161.57 315.97 1159.89 315.153 1159.48 315.874C1158.97 316.771 1161.29 318.607 1160.81 319.408C1160.35 320.169 1157.97 318.975 1157.32 319.817C1156.5 320.858 1159.34 323.647 1158.49 324.897C1157.77 325.955 1155.02 325.025 1154.8 325.666C1154.56 326.371 1157.84 327.782 1157.61 328.615C1157.36 329.497 1153.49 328.383 1152.43 329.969C1151.37 331.548 1154.03 334.369 1153.23 335.314C1152.15 336.572 1146.27 333.119 1146.27 333.119C1146.21 333.087 1137.21 330.242 1119.22 324.552C1101.5 318.951 1098.08 319.368 1078.17 313.422C1044.42 303.349 1035.82 296.658 1030.33 290.848C1023.7 283.829 1018.32 274.613 1019.61 273.395C1020.35 272.69 1023.49 274.501 1023.99 273.708C1024.4 273.051 1022.39 271.648 1022.81 270.43C1023.29 269.02 1026.46 269.461 1026.74 268.387C1027.09 267.017 1022.23 265.053 1022.59 263.827C1022.88 262.834 1026.23 263.619 1027.05 262.08C1027.83 260.63 1025.62 258.507 1026.33 257.657C1027.11 256.744 1030.14 258.643 1030.78 257.833C1031.51 256.912 1028.05 253.859 1028.87 252.4C1029.74 250.83 1034.84 252.416 1035.15 251.479C1035.46 250.581 1030.91 248.762 1031.19 247.544C1031.53 246.062 1038.71 247.047 1039.01 245.725C1039.34 244.315 1031.53 241.478 1031.79 240.701C1032.03 240.012 1038.3 242.031 1039.01 240.637C1039.7 239.258 1034.37 235.636 1035.06 234.434C1035.65 233.401 1040.16 235.172 1040.55 234.306C1040.91 233.537 1037.43 231.942 1037.69 230.276C1038 228.296 1043.32 228.04 1043.33 226.718C1043.33 225.492 1038.8 224.69 1038.9 223.937C1039.01 223.152 1043.94 224.065 1044.94 222.182C1046.09 220.035 1041.3 215.836 1042.21 214.73C1043 213.784 1047.04 216.236 1047.61 215.419C1048.22 214.553 1043.98 211.26 1044.74 209.81C1045.46 208.439 1049.99 210.01 1050.55 208.8C1051.17 207.47 1046.19 204.36 1046.72 203.359C1047.3 202.237 1054.09 205.194 1054.8 203.952C1055.47 202.766 1050 198.887 1050.64 197.814C1051.28 196.74 1057.42 199.552 1057.81 198.783C1058.21 198.006 1052.33 194.464 1052.73 193.711C1053.06 193.062 1057.58 195.241 1058.13 194.4C1058.86 193.27 1051.44 188.077 1051.96 187.156V187.14Z" fill="#D8DCE5"/>
<path d="M196.093 311.723C196.903 312.164 204.94 316.459 206.935 314.247C208.57 312.436 205.389 307.099 204.275 305.224C201.542 300.649 196.462 294.158 182.487 285.135C174.145 279.75 168.848 277.466 168.543 272.794C168.375 270.238 169.898 269.966 169.986 266.76C170.202 258.643 160.65 252.705 159.336 251.896C156.235 249.972 153.022 248.891 152.757 249.323C152.421 249.884 156.395 253.017 158.695 254.957C159.593 255.718 161.372 257.264 162.245 258.867C162.774 259.853 163.471 262.946 162.758 263.475C161.612 264.316 156.94 260.181 154.648 258.226C149.175 253.538 146.339 249.508 145.802 249.86C145.465 250.085 146.202 251.928 147.092 253.546C149.416 257.769 152.196 259.372 156.972 264.997C158.07 266.288 158.976 267.449 158.647 267.938C158.278 268.491 156.379 268.363 155.129 267.81C150.882 265.919 149.472 261.864 144.832 256.423C144.135 255.598 143.309 255.133 143.053 255.309C142.516 255.694 144.407 259.188 145.433 261.071C149.071 267.746 150.882 271.079 153.374 272.458C157.141 274.541 159.112 272.562 163.215 274.934C166.388 276.761 167.918 279.51 168.808 281.048C172.093 286.714 182.214 304.183 196.117 311.739L196.093 311.723Z" fill="#D8DCE5"/>
<path d="M1430.75 168.139C1431.56 168.58 1439.59 172.875 1441.59 170.663C1443.22 168.852 1440.04 163.515 1438.93 161.64C1436.2 157.065 1431.12 150.574 1417.14 141.551C1408.8 136.166 1403.5 133.882 1403.2 129.21C1403.03 126.654 1404.55 126.382 1404.64 123.176C1404.86 115.059 1395.3 109.121 1393.99 108.312C1390.89 106.388 1387.68 105.307 1387.41 105.739C1387.07 106.3 1391.05 109.433 1393.35 111.373C1394.25 112.134 1396.03 113.681 1396.9 115.283C1397.43 116.269 1398.13 119.362 1397.41 119.891C1396.27 120.732 1391.59 116.597 1389.3 114.642C1383.83 109.954 1380.99 105.924 1380.46 106.276C1380.12 106.501 1380.86 108.344 1381.75 109.962C1384.07 114.185 1386.85 115.788 1391.63 121.413C1392.72 122.704 1393.63 123.865 1393.3 124.354C1392.93 124.907 1391.03 124.779 1389.78 124.226C1385.54 122.335 1384.13 118.28 1379.49 112.839C1378.79 112.014 1377.96 111.549 1377.71 111.725C1377.17 112.11 1379.06 115.604 1380.09 117.487C1383.73 124.162 1385.54 127.496 1388.03 128.874C1391.79 130.957 1393.77 128.978 1397.87 131.35C1401.04 133.177 1402.57 135.926 1403.46 137.464C1406.75 143.13 1416.87 160.599 1430.77 168.155L1430.75 168.139Z" fill="#D8DCE5"/>
<path d="M854.386 328.014C852.342 328.343 851.437 293.292 835.354 257.417C825.586 235.628 817.444 229.658 814.295 208.615C811.723 191.443 814.079 174.903 816.202 174.711C817.076 174.631 818.117 177.299 819.376 176.987C820.666 176.666 820.337 173.669 821.86 173.156C823.158 172.724 823.959 174.727 826.147 174.631C827.717 174.567 827.822 173.517 829.681 173.429C831.291 173.357 832.061 174.102 832.806 173.541C833.423 173.084 833.503 172.123 833.551 171.578C833.663 170.288 833.182 169.51 833.367 169.406C833.8 169.142 836.067 173.661 837.742 173.357C839.521 173.028 839.281 167.531 841.092 167.21C842.574 166.946 843.696 170.472 845.323 170.248C847.27 169.983 847.615 164.67 849.073 164.654C850.275 164.646 850.892 168.26 852.142 168.196C853.168 168.14 853.432 165.68 854.522 165.632C855.58 165.584 855.908 167.884 857.086 168.012C858.825 168.196 860.027 163.364 861.638 163.532C863.048 163.677 863.473 167.491 864.451 167.427C865.388 167.371 865.436 163.845 866.63 163.645C867.912 163.428 868.842 167.331 870.653 167.339C872.376 167.339 873.041 163.813 874.748 163.869C876.31 163.925 876.975 166.922 878.017 166.754C879.251 166.553 879.091 162.226 880.349 162.018C881.375 161.85 882.064 164.614 883.57 164.598C884.997 164.582 885.542 162.09 886.904 162.186C888.058 162.266 888.45 164.093 889.268 163.973C890.286 163.821 890.302 160.864 891.231 160.752C892.113 160.64 892.641 163.252 893.715 163.244C895.037 163.244 895.478 159.285 896.993 159.181C898.267 159.093 899.244 161.834 899.877 161.609C900.583 161.361 899.669 157.907 900.462 157.57C901.312 157.218 902.818 160.952 904.726 160.808C906.617 160.664 907.194 156.833 908.436 156.881C910.086 156.945 911.008 163.717 911.008 163.717C911.016 163.781 914.334 172.611 920.961 190.289C927.483 207.686 929.927 210.122 937.54 229.458C950.442 262.225 950.49 273.123 949.304 281.024C947.877 290.576 943.935 300.488 942.188 300.232C941.17 300.08 940.665 296.49 939.728 296.594C938.958 296.674 939.095 299.118 937.877 299.543C936.474 300.031 934.864 297.275 933.846 297.716C932.548 298.285 933.998 303.317 932.82 303.79C931.859 304.182 930.408 301.049 928.693 301.354C927.075 301.642 926.77 304.687 925.656 304.647C924.454 304.607 924.078 301.041 923.044 301.033C921.866 301.033 921.602 305.633 919.951 305.897C918.18 306.178 916.281 301.193 915.343 301.522C914.446 301.834 915.824 306.538 914.694 307.067C913.316 307.716 909.654 301.45 908.428 302.027C907.114 302.644 909.702 310.537 908.933 310.809C908.251 311.05 905.968 304.864 904.429 305.168C902.915 305.473 903.355 311.907 901.985 312.1C900.807 312.268 899.413 307.636 898.491 307.852C897.666 308.045 898.555 311.771 897.089 312.588C895.342 313.566 891.864 309.543 890.814 310.353C889.845 311.098 892.008 315.169 891.351 315.553C890.67 315.954 888.338 311.515 886.239 311.883C883.843 312.3 883.49 318.671 882.056 318.63C880.822 318.598 880.261 313.903 879.267 313.959C878.209 314.015 878.233 319.376 876.631 319.68C875.108 319.961 873.546 315.425 872.256 315.73C870.829 316.066 871.454 321.9 870.348 322.108C869.106 322.341 867.239 315.177 865.829 315.385C864.483 315.585 864.803 322.284 863.561 322.445C862.319 322.605 860.748 316.034 859.891 316.202C859.034 316.371 859.875 323.182 859.042 323.342C858.328 323.478 857.255 318.582 856.253 318.67C854.907 318.791 855.404 327.83 854.362 327.998L854.386 328.014Z" fill="#D8DCE5"/>
<path d="M902.106 267.93C896.497 267.217 894.269 259.099 893.724 257.12C891.617 249.443 893.484 239.098 898.356 237.768C902.178 236.726 906.482 241.606 907.82 243.128C908.605 244.018 915.809 252.44 912.155 260.598C910.544 264.204 906.49 268.491 902.106 267.93Z" fill="#A2A6B4"/>
<path d="M857.447 265.15C847.478 255.446 855.131 236.166 856.998 231.478C864.226 213.272 883.242 195.683 894.781 200.29C903.836 203.904 905.062 219.875 905.439 224.851C905.663 227.768 907.338 254.989 888.066 265.631C879.556 270.327 865.236 272.747 857.439 265.15H857.447Z" fill="#A2A6B4"/>
<path d="M866.142 233.337C863.642 240.541 868.618 252.168 876.215 253.266C880.975 253.955 885.038 250.245 888.227 247.344C892.073 243.834 895.928 238.345 894.67 236.791C893.179 234.948 886.768 241.39 880.117 239.13C873.931 237.023 872.248 228.978 868.955 229.667C867.296 230.011 866.495 232.319 866.142 233.345V233.337Z" fill="#70727E"/>
<path d="M980.975 139.829C985.783 136.255 993.956 140.03 1010.3 147.57C1027.76 155.623 1029.33 159.326 1029.78 161.441C1030.42 164.502 1029.24 166.754 1022.88 176.763C1007.5 200.931 1006.06 200.851 1002.49 208.784C997.987 218.801 998.764 222.302 994.565 224.49C987.93 227.944 978.298 223.24 970.573 219.474C966.446 217.454 964.355 216.405 963.137 214.209C960.324 209.128 964.251 203.615 968.37 193.078C974.644 177.043 976.856 160.952 977.361 157.25C978.979 145.455 977.825 142.177 980.975 139.837V139.829Z" fill="#D8DCE5"/>
<path d="M1028.55 162.884C1031.11 159.407 1017.46 151.281 1005 146.257C995.392 142.386 987.01 137.33 981.673 141.361C978.644 143.652 999.903 157.235 1011.56 161.61C1018.43 164.191 1027.44 164.383 1028.54 162.884H1028.55Z" fill="#A2A6B4"/>
<path d="M1470.36 320.522C1477.63 322.958 1496.75 304.127 1505.26 280.736C1514.28 255.959 1499.19 255.518 1504.91 225.772C1508.41 207.566 1513.67 200.21 1511.19 184.416C1509.74 175.168 1507.41 174.295 1505.96 162.427C1504.52 150.583 1506.15 145.823 1504.39 132.065C1503.24 123.146 1501.96 113.137 1498.63 112.696C1495.27 112.256 1490.01 121.575 1488.68 131.015C1487.2 141.496 1491.66 144.253 1493.39 160.856C1494.37 170.256 1493.82 177.724 1493.39 183.366C1492.26 198.551 1489.96 197.91 1489.73 209.537C1489.49 221.325 1491.74 227.976 1487.64 230.997C1485.56 232.536 1482.41 232.704 1480.31 231.518C1476.39 229.306 1476.5 222.551 1476.65 217.382C1477.08 201.853 1483.2 198.687 1480.84 190.161C1478.85 182.997 1474.16 183.927 1472.46 176.555C1470.53 168.173 1476.17 165.184 1475.6 155.095C1475.11 146.176 1470.56 145.976 1469.32 137.297C1467.89 127.281 1473.58 125.029 1477.18 109.026C1478.98 101.005 1481.51 88.9928 1475.6 78.6636C1472.77 73.7034 1467.37 68.0701 1464.09 69.24C1460.94 70.3619 1460.37 77.5177 1460.95 82.3257C1462.11 92.0299 1468.1 93.4883 1468.8 101.173C1469.41 107.768 1465.16 108.385 1460.95 120.541C1458.09 128.803 1455.16 137.241 1457.81 146.192C1460.08 153.877 1464.97 156.882 1463.57 162.94C1462.59 167.179 1459.91 166.979 1458.86 171.314C1457.09 178.582 1463.84 182.348 1462 188.591C1460.78 192.709 1456.32 196.219 1452.57 195.923C1446.84 195.466 1442.07 186.042 1442.63 178.125C1443.25 169.27 1450.17 167.66 1449.96 159.807C1449.76 152.555 1443.83 152.491 1441.06 143.059C1438.45 134.18 1442.86 131.375 1440.54 118.458C1439.72 113.914 1438.41 106.598 1434.78 105.893C1431.54 105.268 1427.6 110.148 1425.87 114.267C1424.53 117.464 1424.13 121.102 1425.87 129.973C1428.41 142.939 1431.03 144.269 1432.16 153.003C1433.06 160.071 1432.16 165.52 1431.11 171.851C1428.49 187.637 1424.08 188.551 1425.34 195.931C1427.35 207.63 1440.34 216.565 1441.57 217.39C1446.95 221.004 1451.28 221.95 1452.57 226.293C1454.1 231.462 1449.91 236.687 1449.42 237.288C1441.44 247 1421.24 245.581 1418.01 238.858C1415.76 234.17 1423.13 229.779 1421.15 221.581C1419.86 216.205 1416.35 216.637 1412.78 209.545C1409.16 202.349 1411.84 200.066 1408.59 190.698C1405.15 180.794 1401.35 181.05 1401.26 175.521C1401.11 166.73 1410.68 164.751 1412.25 155.103C1413.98 144.453 1404.61 132.762 1400.74 133.643C1397.84 134.3 1399.77 141.568 1394.97 157.723C1391.98 167.828 1389.88 169.503 1390.78 174.471C1392.2 182.276 1398.24 182.893 1399.16 190.698C1399.97 197.63 1395.49 199.401 1397.07 205.875C1398.48 211.725 1402.53 211.869 1403.35 217.39C1404.04 222.046 1401.39 223.441 1399.69 230.476C1397.67 238.826 1399.19 245.95 1399.69 248.274C1402.09 259.517 1408.37 263.371 1406.49 266.071C1404.28 269.253 1392.94 267.698 1389.74 261.881C1387.3 257.441 1391.1 253.234 1388.17 249.316C1386.02 246.431 1381.29 245.165 1377.7 246.695C1373.29 248.578 1371.64 254.228 1372.46 258.21C1373.43 262.858 1377.3 263.026 1381.89 269.726C1385.9 275.591 1384.12 277.226 1387.12 280.72C1393.29 287.908 1408.12 289.51 1414.86 283.34C1419.4 279.181 1418.29 273.315 1421.15 272.867C1424.86 272.29 1431.71 281.529 1429.52 287.523C1427.2 293.878 1416.69 291.322 1411.72 299.559C1408.79 304.415 1408.73 311.483 1411.72 313.695C1413.2 314.785 1416.04 314.087 1421.67 312.645C1429 310.77 1432.69 309.784 1434.06 307.236C1435.98 303.63 1432.95 300.344 1434.75 298.63C1437.25 296.242 1446.41 299.383 1447.55 304.215C1448.42 307.869 1444.08 309.944 1444.99 313.983C1445.83 317.717 1450.65 320.859 1453.14 319.801C1456.4 318.415 1453.43 310.77 1457.79 305.842C1461.81 301.298 1469.16 300.336 1470.36 302.115C1471.65 304.047 1464.99 308.246 1465.93 314.216C1466.34 316.78 1468.16 319.761 1470.36 320.498L1470.36 320.522Z" fill="#FE7098"/>
<path d="M224.957 289.438C217.689 291.874 198.569 273.043 190.059 249.652C181.044 224.875 196.133 224.434 190.412 194.688C186.91 176.482 181.653 169.126 184.129 153.332C185.579 144.084 187.911 143.211 189.362 131.343C190.804 119.499 189.169 114.739 190.932 100.981C192.078 92.0617 193.36 82.0531 196.694 81.6124C200.052 81.1716 205.308 90.4911 206.639 99.9308C208.121 110.412 203.658 113.169 201.927 129.772C200.949 139.172 201.502 146.641 201.927 152.282C203.065 167.467 205.356 166.826 205.589 178.453C205.829 190.241 203.585 196.892 207.68 199.913C209.764 201.452 212.913 201.62 215.012 200.434C218.931 198.222 218.819 191.467 218.675 186.299C218.242 170.769 212.12 167.603 214.484 159.077C216.471 151.913 221.159 152.843 222.858 145.471C224.789 137.089 219.155 134.1 219.716 124.011C220.213 115.092 224.757 114.892 225.999 106.213C227.433 96.1966 221.744 93.9449 218.146 77.9422C216.343 69.9209 213.81 57.9089 219.716 47.5797C222.553 42.6195 227.946 36.9861 231.231 38.156C234.381 39.2779 234.95 46.4338 234.373 51.2418C233.211 60.946 227.225 62.4044 226.52 70.0892C225.911 76.6842 230.158 77.3012 234.373 89.4574C237.233 97.7191 240.158 106.157 237.514 115.108C235.238 122.793 230.35 125.798 231.752 131.856C232.73 136.095 235.414 135.895 236.464 140.23C238.227 147.498 231.48 151.264 233.323 157.507C234.541 161.625 238.996 165.135 242.747 164.839C248.484 164.382 253.252 154.958 252.691 147.041C252.066 138.186 245.151 136.576 245.359 128.723C245.559 121.471 251.489 121.407 254.262 111.975C256.866 103.096 252.459 100.291 254.783 87.3739C255.6 82.8303 256.914 75.5142 260.544 74.809C263.782 74.184 267.716 79.0641 269.447 83.1829C270.793 86.3803 271.186 90.0183 269.447 98.8891C266.907 111.855 264.286 113.185 263.165 121.919C262.259 128.987 263.165 134.436 264.214 140.767C266.835 156.553 271.242 157.467 269.976 164.847C267.973 176.546 254.983 185.481 253.749 186.307C248.372 189.921 244.045 190.866 242.755 195.209C241.216 200.378 245.407 205.603 245.896 206.204C253.885 215.916 274.079 214.497 277.308 207.774C279.56 203.086 272.196 198.695 274.167 190.497C275.457 185.121 278.975 185.553 282.541 178.461C286.163 171.266 283.478 168.982 286.732 159.614C290.17 149.71 293.968 149.966 294.064 144.437C294.208 135.646 284.64 133.667 283.07 124.019C281.339 113.369 290.706 101.678 294.585 102.559C297.486 103.216 295.554 110.484 300.346 126.639C303.343 136.744 305.443 138.419 304.537 143.387C303.119 151.192 297.085 151.809 296.164 159.614C295.346 166.546 299.834 168.317 298.255 174.791C296.837 180.641 292.79 180.785 291.973 186.307C291.283 190.962 293.936 192.357 295.635 199.392C297.654 207.742 296.131 214.866 295.635 217.19C293.231 228.433 286.948 232.287 288.831 234.988C291.043 238.169 302.382 236.614 305.579 230.797C308.023 226.357 304.225 222.15 307.15 218.232C309.305 215.347 314.033 214.081 317.623 215.611C322.031 217.494 323.681 223.144 322.856 227.126C321.894 231.774 318.016 231.942 313.432 238.642C309.426 244.507 311.197 246.142 308.2 249.636C302.029 256.824 287.197 258.427 280.457 252.256C275.922 248.097 277.028 242.232 274.175 241.783C270.457 241.206 263.613 250.445 265.801 256.439C268.117 262.794 278.63 260.238 283.599 268.475C286.531 273.331 286.596 280.399 283.599 282.611C282.124 283.701 279.279 283.003 273.654 281.561C266.322 279.686 262.628 278.7 261.265 276.152C259.342 272.546 262.371 269.261 260.568 267.546C258.068 265.158 248.909 268.299 247.771 273.131C246.906 276.785 251.241 278.861 250.327 282.899C249.486 286.633 244.67 289.775 242.186 288.717C238.924 287.331 241.889 279.686 237.53 274.758C233.507 270.214 226.159 269.253 224.965 271.032C223.675 272.963 230.334 277.162 229.388 283.132C228.98 285.696 227.161 288.677 224.965 289.414L224.957 289.438Z" fill="#FE7098"/>
<path d="M78.2941 226.622C78.5345 246.583 84.2801 260.07 92.061 283.565C100.331 308.526 98.8163 319.617 108.4 323.816C114.611 326.54 130.445 323.431 135.509 319.649C144.861 312.669 136.255 299.896 135.493 286.345C133.546 251.792 114.282 247.753 118.577 219.506C119.378 214.249 119.002 205.747 113.513 200.987C107.463 195.747 95.2583 198.351 93.2149 198.84C81.5475 201.628 78.7108 211.349 78.0136 212.703C75.1128 218.36 78.2541 223.593 78.2941 226.622Z" fill="#D8DCE5"/>
<path d="M86.5084 203.158C83.6076 200.306 82.8062 193.783 86.0276 191.146C91.0439 187.044 97.9915 185.385 104.498 187.565C109.034 189.079 109.715 196.964 107.199 200.466C105.821 202.389 103.657 202.862 99.7624 203.703C94.073 204.937 89.3611 205.963 86.5084 203.158Z" fill="#A2A6B4"/>
<path d="M97.0358 246.872C94.8642 251.07 95.3049 255.061 95.7136 258.763C96.3547 264.581 96.9717 270.206 101.435 272.907C105.738 275.519 112.325 274.63 115.699 271.176C121.981 264.741 115.098 251.519 111.796 245.181C109.937 241.607 108.479 239.98 106.564 239.619C102.765 238.914 98.7827 243.498 97.0438 246.863L97.0358 246.872Z" fill="#A2A6B4"/>
<path d="M1213.34 203.849C1213.59 223.81 1219.33 237.296 1227.11 260.791C1235.38 285.753 1233.87 296.843 1243.45 301.042C1249.66 303.767 1265.5 300.658 1270.56 296.875C1279.91 289.896 1271.31 277.123 1270.54 263.572C1268.6 229.018 1249.33 224.98 1253.63 196.733C1254.43 191.476 1254.05 182.974 1248.56 178.214C1242.51 172.973 1230.31 175.578 1228.27 176.066C1216.6 178.855 1213.76 188.575 1213.06 189.929C1210.16 195.587 1213.3 200.82 1213.34 203.849Z" fill="#D8DCE5"/>
<path d="M1221.56 180.385C1218.66 177.532 1217.86 171.009 1221.08 168.373C1226.09 164.27 1233.04 162.611 1239.55 164.791C1244.08 166.306 1244.77 174.191 1242.25 177.693C1240.87 179.616 1238.71 180.088 1234.81 180.93C1229.12 182.164 1224.41 183.19 1221.56 180.385Z" fill="#A2A6B4"/>
<path d="M1232.09 224.106C1229.91 228.305 1230.36 232.296 1230.76 235.998C1231.41 241.815 1232.02 247.441 1236.49 250.141C1240.79 252.754 1247.38 251.864 1250.75 248.41C1257.03 241.976 1250.15 228.754 1246.85 222.415C1244.99 218.841 1243.53 217.214 1241.61 216.854C1237.82 216.149 1233.83 220.732 1232.09 224.098L1232.09 224.106Z" fill="#A2A6B4"/>
<path d="M265.528 198.831C246.609 120.837 156.082 72.3802 86.3501 97.0372C25.2885 118.633 6.64945 186.947 4.81439 194.079C-6.68474 238.961 0.567326 300.456 46.8604 338.904C93.6903 377.784 163.166 378.77 212.536 342.806C259.077 308.902 277.781 249.411 265.52 198.831H265.528ZM176.3 295.576C145.344 318.125 109.052 315.248 79.691 290.864C50.6587 266.752 47.9261 240.732 55.1301 212.581C56.284 208.118 64.4416 176.025 102.729 162.49C146.45 147.024 193.881 162.378 205.749 211.283C213.434 243 205.476 274.316 176.292 295.576H176.3Z" fill="#70727E"/>
<path d="M1509.25 273.627C1490.05 195.706 1398.88 147.129 1328.78 171.61C1267.39 193.045 1248.79 261.223 1246.95 268.339C1235.48 313.133 1242.9 374.547 1289.55 413.035C1336.74 451.956 1406.64 453.086 1456.24 417.282C1502.99 383.522 1521.69 324.167 1509.24 273.627H1509.25ZM1419.68 370.044C1388.58 392.489 1352.07 389.54 1322.48 365.132C1293.22 340.995 1290.41 315.008 1297.6 286.913C1298.75 282.458 1306.9 250.429 1345.39 236.99C1389.34 221.637 1437.09 237.07 1449.14 285.928C1456.93 317.62 1448.99 348.864 1419.68 370.036V370.044Z" fill="#70727E"/>
<path d="M1155.26 290.256C1136.1 212.502 1045.1 164.014 975.156 188.446C913.894 209.842 895.327 277.875 893.5 284.975C882.049 329.673 889.462 390.967 936.011 429.375C983.105 468.216 1052.86 469.346 1102.36 433.614C1149.01 399.926 1167.67 340.691 1155.26 290.256ZM1065.88 386.472C1034.84 408.877 998.403 405.928 968.874 381.575C939.673 357.487 936.876 331.556 944.048 303.518C945.194 299.078 953.32 267.113 991.736 253.699C1035.6 238.377 1083.25 253.779 1095.27 302.54C1103.05 334.169 1095.12 365.348 1065.88 386.48V386.472Z" fill="#70727E"/>
<path d="M90.451 84.6506C87.4941 85.7324 85.7552 88.7935 86.3241 91.8866C87.0373 95.7651 88.079 100.461 89.6416 105.702C93.1595 117.521 94.3855 124.789 98.3682 125.567C107.343 127.322 115.677 120.767 141.664 114.893C146.544 113.787 151.4 112.585 156.297 111.551C166.618 109.372 167.692 109.869 170.496 108.13C176.097 104.652 177.372 99.5314 181.138 95.3324C184.856 91.1815 188.486 90.1638 190.321 88.6893C190.626 88.4409 191.796 81.4693 187.733 77.1902C186.234 75.6196 183.846 75.1147 179.07 74.1211C175.128 73.2957 174.11 73.6323 170.889 72.7588C167.187 71.7571 164.983 70.3468 163.661 69.6897C158.941 67.3498 153.812 68.8243 147.001 70.9077C146.785 70.9718 146.56 71.044 146.336 71.1081C145.358 71.4126 144.341 71.7171 143.291 72.0296C142.017 72.4062 140.182 73.0473 136.496 74.3375C127.825 77.3665 123.57 79.0413 122.152 79.6103C118.474 81.0847 118.466 81.2289 116.39 81.4934C107.808 82.5672 101.822 80.8202 91.7411 84.2019C91.3004 84.3461 90.8757 84.4984 90.467 84.6506H90.451Z" fill="#C9CDD6"/>
<path d="M191.204 72.7594C190.082 72.5831 188.912 72.8635 188.912 72.8635C188.912 72.8635 186.556 73.2802 186.572 74.7146C186.604 78.4408 187.887 88.2331 190.459 90.6051C192.126 92.1516 194.898 90.6852 194.898 90.6852C195.155 90.565 195.579 90.3166 195.764 90.1964C198.977 87.9607 195.259 73.4165 191.212 72.7674L191.204 72.7594Z" fill="#A2A6B4"/>
<path d="M145.606 83.0234C144.765 79.2972 144.372 77.4301 144.42 77.4141C144.532 77.3901 146.92 86.8538 151.576 105.821" fill="#C9CDD6"/>
<path d="M92.7916 86.1078C90.011 87.1175 88.3362 89.8821 88.833 92.6387C89.45 96.1004 90.3716 100.291 91.7579 104.963C94.8991 115.493 95.9569 121.984 99.675 122.625C108.057 124.075 115.958 118.105 140.375 112.504C144.958 111.454 149.526 110.316 154.126 109.322C163.822 107.239 164.823 107.672 167.468 106.077C172.757 102.896 174.023 98.2961 177.605 94.4818C181.147 90.7155 184.552 89.7619 186.291 88.4157C186.58 88.1913 187.766 81.9329 184.015 78.1586C182.637 76.7723 180.401 76.3556 175.938 75.5222C172.252 74.8331 171.29 75.1456 168.293 74.4083C164.839 73.5589 162.788 72.3249 161.562 71.7559C157.171 69.7205 152.347 71.1069 145.936 73.0621C145.728 73.1262 145.519 73.1903 145.311 73.2544C144.389 73.5349 143.436 73.8314 142.442 74.1199C141.248 74.4725 139.517 75.0735 136.048 76.2674C127.882 79.0881 123.875 80.6507 122.537 81.1716C119.067 82.5339 119.067 82.6701 117.12 82.9265C109.067 84.0003 103.481 82.5099 93.9936 85.6671C93.5769 85.8033 93.1843 85.9475 92.7916 86.0838V86.1078Z" fill="#D8DCE5"/>
<path d="M159.534 110.894C158.147 111.142 151.296 112.633 147.169 113.787C147.169 113.787 139.148 115.91 137.297 115.806C136.776 115.774 136.271 115.59 135.702 115.357C133.386 114.42 133.715 112.208 129.868 100.14C129.291 98.321 127.552 92.952 126.31 85.708C125.677 82.0219 125.589 80.283 126.615 78.8566C128.266 76.5488 131.647 75.6432 136.728 74.0646C143.868 71.8529 148.852 70.1861 148.996 70.2983C149.285 70.5227 149.309 74.6175 149.517 79.8583C149.733 85.2913 151.376 89.1938 154.069 97.2873C156.104 103.425 157.186 105.357 158.019 106.446C158.885 107.568 159.742 109.484 159.806 109.756C159.902 110.117 159.974 110.453 160.022 110.678C160.03 110.726 160.014 110.806 159.966 110.814L159.526 110.902L159.534 110.894Z" fill="#A2A6B4"/>
<path d="M211.15 256.358C202.833 241.021 205.942 233.576 196.502 225.94C191.606 221.973 189.194 222.71 180.163 215.803C169.706 207.805 168.447 203.39 168.335 200.594C168.215 197.597 169.289 193.51 171.717 192.708C174.57 191.763 177.15 196.066 184.113 202.284C194.29 211.371 197.215 209.721 207.216 219.184C213.386 225.026 212.929 226.284 216.231 227.639C227.097 232.086 240.175 221.861 242.146 220.314C246.201 217.141 255.897 209.56 254.543 201.723C254.214 199.816 252.98 196.483 230.879 183.693C219.092 176.874 214.492 174.959 212.849 169.606C210.966 163.46 214.188 156.897 216.984 156.176C221.023 155.142 220.51 159.966 224.685 165.655C229.373 172.042 232.931 173.276 245.528 181.995C257.331 190.168 263.237 194.255 269.752 200.585C274.424 205.129 278.503 210.37 286.652 220.867C299.209 237.03 297.879 237.255 302.991 242.279C315.035 254.115 321.318 251.799 328.906 260.87C335.958 269.308 340.125 282.802 337.36 294.109C329.852 324.76 274.111 327.997 265.809 328.478C254.406 329.143 234.389 330.297 228.628 320.024C223.074 310.128 236.601 300.047 232.009 283.403C228.66 271.247 220.71 273.964 211.166 256.358H211.15Z" fill="#D8DCE5"/>
<path d="M1116.6 259.291C1117.41 259.732 1125.45 264.027 1127.44 261.816C1129.08 260.005 1125.89 254.668 1124.78 252.793C1122.05 248.217 1116.97 241.726 1102.99 232.703C1094.65 227.318 1089.35 225.034 1089.05 220.363C1088.88 217.806 1090.4 217.534 1090.49 214.329C1090.71 206.211 1081.16 200.273 1079.84 199.464C1076.74 197.541 1073.53 196.459 1073.26 196.892C1072.93 197.453 1076.9 200.586 1079.2 202.525C1080.1 203.286 1081.88 204.833 1082.75 206.436C1083.28 207.421 1083.98 210.514 1083.26 211.043C1082.12 211.885 1077.45 207.75 1075.15 205.794C1069.68 201.107 1066.84 197.076 1066.31 197.429C1065.97 197.653 1066.71 199.496 1067.6 201.115C1069.92 205.338 1072.7 206.94 1077.48 212.566C1078.58 213.856 1079.48 215.018 1079.15 215.507C1078.78 216.06 1076.89 215.931 1075.64 215.378C1071.39 213.487 1069.98 209.433 1065.34 203.991C1064.64 203.166 1063.82 202.701 1063.56 202.878C1063.02 203.262 1064.91 206.756 1065.94 208.639C1069.58 215.314 1071.39 218.648 1073.88 220.026C1077.65 222.11 1079.62 220.13 1083.72 222.502C1086.89 224.329 1088.42 227.078 1089.31 228.616C1092.6 234.282 1102.72 251.751 1116.62 259.308L1116.6 259.291Z" fill="#D8DCE5"/>
<path d="M326.412 291.264C324.777 289.99 349.875 265.493 365.245 229.313C374.58 207.332 373.418 197.308 386.712 180.688C397.562 167.129 411.289 157.61 412.876 159.036C413.525 159.621 412.283 162.201 413.365 162.914C414.479 163.644 416.45 161.36 417.86 162.129C419.062 162.786 418.141 164.733 419.695 166.272C420.809 167.378 421.65 166.745 422.981 168.051C424.127 169.181 424.111 170.255 425.024 170.423C425.777 170.559 426.539 169.974 426.971 169.638C427.989 168.844 428.237 167.963 428.446 168.027C428.927 168.163 427.156 172.899 428.526 173.925C429.976 175.006 433.847 171.088 435.305 172.202C436.507 173.115 434.688 176.329 435.954 177.37C437.469 178.612 441.604 175.263 442.605 176.321C443.431 177.194 441.195 180.103 442.092 180.976C442.83 181.69 444.817 180.215 445.594 180.976C446.356 181.722 444.881 183.525 445.594 184.478C446.644 185.881 451.003 183.477 451.973 184.775C452.822 185.905 450.322 188.813 451.035 189.487C451.716 190.136 454.329 187.78 455.29 188.517C456.316 189.31 454.088 192.652 455.322 193.982C456.492 195.248 459.538 193.333 460.651 194.623C461.677 195.809 459.93 198.341 460.764 198.982C461.749 199.744 464.81 196.691 465.828 197.476C466.653 198.117 465.091 200.497 466.124 201.595C467.102 202.628 469.298 201.338 470.163 202.404C470.892 203.302 469.819 204.84 470.46 205.353C471.261 206.002 473.441 203.999 474.154 204.6C474.835 205.169 473.28 207.332 474.01 208.118C474.907 209.087 478.112 206.715 479.21 207.757C480.14 208.638 478.794 211.211 479.395 211.523C480.06 211.876 481.967 208.847 482.752 209.207C483.585 209.592 481.871 213.238 483.273 214.536C484.667 215.826 487.865 213.647 488.674 214.592C489.748 215.85 485.413 221.123 485.413 221.123C485.372 221.171 481.149 229.609 472.695 246.485C464.378 263.097 464.249 266.543 455.242 285.27C439.985 317.011 432.028 324.455 425.425 328.959C417.451 334.4 407.507 338.254 406.505 336.796C405.928 335.954 408.212 333.134 407.499 332.517C406.914 332.012 405.215 333.767 404.077 333.166C402.763 332.468 403.693 329.407 402.675 328.967C401.377 328.398 398.676 332.885 397.522 332.348C396.585 331.908 397.891 328.718 396.497 327.668C395.182 326.675 392.738 328.526 392.017 327.684C391.232 326.779 393.588 324.07 392.891 323.309C392.097 322.444 388.539 325.385 387.225 324.343C385.815 323.229 388.179 318.453 387.305 317.988C386.464 317.548 383.956 321.755 382.794 321.29C381.383 320.721 383.483 313.773 382.225 313.269C380.879 312.724 376.848 319.984 376.127 319.607C375.486 319.271 378.467 313.389 377.2 312.475C375.95 311.57 371.527 316.266 370.461 315.4C369.54 314.647 371.992 310.48 371.198 309.951C370.493 309.478 368.37 312.659 366.767 312.147C364.868 311.53 365.445 306.241 364.139 306.024C362.929 305.824 361.422 310.175 360.693 309.959C359.932 309.727 361.615 305.007 359.908 303.717C357.968 302.242 353.064 306.313 352.119 305.239C351.301 304.318 354.362 300.712 353.649 300.014C352.888 299.277 348.97 302.939 347.663 301.97C346.421 301.048 348.689 296.817 347.583 296.072C346.365 295.255 342.511 299.678 341.605 299.005C340.588 298.251 344.578 292.017 343.464 291.12C342.399 290.262 337.711 295.062 336.749 294.261C335.788 293.452 339.538 287.842 338.833 287.329C338.127 286.816 333.704 292.065 333.023 291.56C332.438 291.128 335.299 287.009 334.554 286.336C333.552 285.43 327.253 291.937 326.428 291.288L326.412 291.264Z" fill="#D8DCE5"/>
<path d="M402.923 285.415C399.63 280.823 404.077 273.66 405.151 271.921C409.342 265.157 418.204 259.492 422.492 262.16C425.849 264.252 425.2 270.727 424.992 272.746C424.872 273.932 423.597 284.934 415.127 287.803C411.385 289.069 405.487 289.013 402.915 285.415H402.923Z" fill="#A2A6B4"/>
<path d="M374.596 250.773C374.941 236.862 394.277 229.37 398.989 227.551C417.259 220.475 443.078 222.462 447.55 234.058C451.059 243.153 440.177 254.916 436.788 258.578C434.8 260.726 415.977 280.463 395.07 273.563C385.839 270.518 374.332 261.656 374.596 250.773Z" fill="#A2A6B4"/>
<path d="M403.83 235.523C396.85 238.584 391.706 250.139 396.065 256.453C398.798 260.412 404.279 260.877 408.574 261.237C413.759 261.67 420.41 260.765 420.698 258.785C421.035 256.445 411.947 256.117 409.087 249.706C406.426 243.736 411.186 237.037 408.438 235.09C407.051 234.112 404.816 235.09 403.83 235.523Z" fill="#70727E"/>
<path d="M964.524 301.289C964.476 284.197 975.182 291.609 978.492 284.445C980.872 279.293 978.852 279.733 975.479 267.569C974.733 264.869 978.548 254.283 973.443 244.707C969.276 236.886 974.549 220.098 968.251 223.031C965.919 224.113 964.436 214.208 961.64 213.039C957.761 211.42 956.159 223.36 961.992 232.952C966.456 240.284 967.818 243.786 967.401 255.181C967.065 264.308 970.206 269.284 963.763 273.427C955.622 278.668 957.401 268.859 952.512 261.736C948.233 255.485 945.012 256.182 943.786 252.2C941.454 244.659 952.384 240.156 951.591 230.884C950.83 221.893 940.052 220.146 940.204 211.885C940.348 203.807 950.758 199.849 949.099 195.938C947.897 193.117 941.238 192.18 936.854 194.6C930.644 198.022 929.907 207.67 930.636 213.343C931.886 223.039 937.856 224.522 937.103 231.565C936.286 239.226 928.937 240.22 928.809 247.464C928.681 254.844 936.221 259.139 934.354 262.128C933.152 264.059 928.921 264.043 925.932 262.873C918.76 260.085 915.964 249.619 915.635 242.568C915.258 234.57 918.167 233.352 917.638 224.201C917.494 221.661 915.691 206.572 910.755 206.852C907.373 207.045 912.742 211.508 907.149 215.715C902.037 219.553 911.436 221.108 908.688 229.578C906.492 236.325 902.261 238.297 902.694 244.427C903.15 250.853 907.077 248.281 910.178 263.074C911.564 269.677 911.364 270.069 913.439 272.489C919.866 279.982 933.994 274.365 935.845 278.988C936.862 281.528 933.497 285.519 930.524 287.346C927.126 289.438 923.697 289.045 920.531 288.636C919.385 288.492 904.593 286.409 902.181 277.738C900.738 272.554 904.889 269.244 902.79 266.367C900.241 262.881 891.042 263.482 889.119 267.177C887.613 270.061 890.73 274.461 896.563 282.682C899.472 286.785 900.923 288.837 902.493 290.239C912.462 299.182 927.471 296.129 927.992 299.695C928.296 301.802 923.039 302.612 922.182 307.083C921.549 310.377 923.424 315.024 927.014 315.954C928.961 316.459 931.518 315.898 932.92 314.215C935.148 311.546 932.655 308.245 934.611 305.977C936.502 303.79 941.574 303.669 943.906 305.961C947.031 309.038 943.193 314.471 946.142 317.484C948.995 320.401 956.455 319.287 958.138 316.018C959.564 313.253 956.046 310.529 957.32 306.795C958.314 303.87 964.524 304.743 964.516 301.305L964.524 301.289Z" fill="#FE7098"/>
<path d="M336.863 315.256C332.704 316.506 332.584 320.072 327.928 324.191C326.157 325.753 320.988 330.337 315.796 329.295C312.142 328.566 310.154 325.385 306.22 319.078C303.295 314.391 300.186 309.414 301.748 307.587C303.471 305.576 310.17 308.148 313.88 310.143C319.642 313.237 321.205 316.57 323.456 315.889C325.852 315.168 327.455 310.4 326.646 306.313C325.572 300.904 320.868 299.742 310.683 290.992C303.383 284.717 299.721 281.496 299.192 277.585C298.198 270.221 305.995 266.855 304.296 260.349C303.022 255.469 298.335 256.19 294.721 249.491C294.071 248.289 290.321 241.037 293.446 234.169C295.538 229.569 300.602 225.37 303.663 226.508C306.196 227.454 305.146 231.236 308.135 238.641C311.597 247.223 314.986 247.006 315.796 252.688C316.749 259.347 312.318 261.134 313.239 268.009C314.049 274.019 318.472 280.382 322.174 280.142C326.453 279.861 330.732 270.726 329.835 262.905C329.058 256.11 324.859 254.651 325.364 248.858C325.892 242.767 330.724 242.086 331.75 236.725C333.305 228.632 323.088 225.931 318.977 213.743C317.094 208.166 319.402 209.24 321.533 181.818C322.286 172.106 322.399 166.769 326.638 162.025C329.923 158.347 335.508 155.222 338.129 156.921C341.623 159.18 338.93 169.445 336.855 177.355C333.313 190.841 329.875 193.173 331.109 199.704C332.255 205.794 335.484 205.057 339.411 213.751C340.901 217.061 345.725 227.75 342.6 238.649C340.709 245.244 337.552 246.213 337.496 252.055C337.432 258.329 341.006 264.932 343.882 264.828C346.222 264.74 346.791 260.253 350.902 250.781C357.649 235.235 361.768 234.313 361.119 228.432C360.149 219.641 350.726 219.609 348.987 209.913C347.456 201.403 353.146 192.66 359.204 188.205C363.627 184.951 370.326 182.451 371.977 184.374C374.149 186.922 364.701 193.934 365.59 204.808C366.015 209.953 368.275 210.113 370.695 217.582C371.993 221.58 375.295 231.733 371.969 241.205C368.379 251.43 360.438 251.278 358.563 261.639C358.226 263.49 357.04 270.005 361.119 274.412C363.539 277.024 368.059 279.164 370.695 277.601C374.333 275.446 370.166 268.715 373.884 260.998C377.707 253.081 384.766 254.651 387.291 247.591C389.743 240.748 383.941 236.926 386.649 229.073C388.396 224.016 392.948 219.368 395.584 220.138C396.818 220.498 397.708 222.053 399.415 241.846C400.296 252.031 400.184 253.121 399.415 254.619C395.809 261.607 386.361 260.629 384.726 266.751C383.749 270.437 387.026 271.367 386.641 275.686C385.92 283.892 373.716 285.03 371.953 294.205C371.328 297.474 372.057 301.625 374.509 303.14C377.683 305.103 383.572 302.555 386.641 298.668C390.905 293.275 388.076 287.37 391.746 285.262C394.438 283.716 399.014 285.134 400.681 287.818C403.397 292.17 398.06 299.221 395.576 302.507C393.333 305.48 390.448 309.286 385.359 311.442C375.864 315.48 365.382 310.937 359.18 308.252C350.766 304.606 347.12 300.648 345.773 301.866C344.211 303.284 346.631 310.905 352.16 314.639C357.385 318.165 361.944 315.905 364.933 319.743C366.905 322.284 367.321 326.378 365.574 328.678C363.074 331.972 356.143 331.659 352.168 328.678C347.168 324.936 349.099 318.67 343.866 315.905C340.613 314.19 337.143 315.176 336.847 315.264L336.863 315.256Z" fill="#FF4076"/>
<path d="M785.419 305.232C785.138 308.365 787.157 311.25 790.194 312.059C794.001 313.069 798.697 314.143 804.106 314.968C816.294 316.843 823.386 318.847 825.79 315.577C831.215 308.213 828.859 297.876 834.66 271.872C835.75 266.992 836.744 262.088 837.898 257.216C840.342 246.959 841.247 246.198 840.879 242.92C840.134 236.373 836.055 233.032 833.859 227.823C831.695 222.687 832.337 218.977 831.784 216.685C831.696 216.3 825.886 212.261 820.285 214.104C818.225 214.786 816.751 216.733 813.802 220.619C811.374 223.833 811.238 224.898 809.074 227.431C806.582 230.347 804.362 231.742 803.208 232.655C799.073 235.917 798.208 241.189 797.182 248.241C797.15 248.466 797.118 248.698 797.086 248.93C796.942 249.948 796.789 250.998 796.621 252.08C796.421 253.386 796.212 255.325 795.796 259.203C794.826 268.339 794.522 272.898 794.426 274.429C794.185 278.387 794.313 278.451 793.664 280.439C790.972 288.652 786.821 293.316 785.571 303.878C785.515 304.335 785.467 304.783 785.435 305.216L785.419 305.232Z" fill="#C9CDD6"/>
<path d="M817.767 209.08C817.126 210.017 816.886 211.195 816.886 211.195C816.886 211.195 816.253 213.503 817.559 214.104C820.941 215.667 830.34 218.696 833.578 217.39C835.685 216.54 835.549 213.407 835.549 213.407C835.549 213.118 835.509 212.63 835.477 212.413C834.836 208.551 820.091 205.69 817.775 209.072L817.767 209.08Z" fill="#A2A6B4"/>
<path d="M807.542 254.675C803.816 253.841 801.957 253.401 801.965 253.345C801.989 253.232 811.573 255.123 830.701 259.026" fill="#C9CDD6"/>
<path d="M787.734 303.733C787.454 306.682 789.24 309.374 791.941 310.104C795.331 311.025 799.514 311.987 804.33 312.724C815.196 314.391 821.51 316.21 823.682 313.125C828.578 306.169 826.567 296.473 831.944 272.008C832.953 267.417 833.875 262.801 834.949 258.217C837.208 248.561 838.026 247.84 837.721 244.763C837.104 238.617 833.49 235.515 831.575 230.643C829.684 225.835 830.285 222.341 829.812 220.194C829.732 219.833 824.587 216.091 819.571 217.862C817.728 218.519 816.398 220.354 813.737 224.032C811.542 227.069 811.413 228.071 809.458 230.467C807.214 233.224 805.219 234.554 804.177 235.419C800.459 238.52 799.65 243.473 798.672 250.108C798.64 250.324 798.608 250.54 798.576 250.757C798.44 251.71 798.296 252.696 798.135 253.722C797.943 254.956 797.743 256.775 797.342 260.421C796.396 269.003 796.092 273.298 795.996 274.733C795.747 278.451 795.867 278.507 795.266 280.382C792.798 288.123 789.056 292.53 787.854 302.459C787.798 302.892 787.758 303.316 787.718 303.717L787.734 303.733Z" fill="#D8DCE5"/>
<path d="M838.691 254.011C838.323 255.365 836.736 262.2 836.015 266.423C836.015 266.423 834.5 274.581 833.619 276.208C833.371 276.672 832.986 277.041 832.537 277.458C830.702 279.148 828.843 277.906 816.286 276.224C814.395 275.967 808.794 275.238 801.718 273.267C798.112 272.265 796.509 271.6 795.652 270.061C794.273 267.577 794.899 264.131 795.652 258.867C796.702 251.462 797.327 246.246 797.495 246.166C797.823 245.997 801.526 247.736 806.358 249.788C811.366 251.919 815.589 252.095 824.059 253.129C830.478 253.914 832.689 253.762 834.028 253.474C835.414 253.177 837.513 253.217 837.786 253.273C838.154 253.346 838.491 253.418 838.715 253.474C838.763 253.482 838.82 253.538 838.812 253.586L838.699 254.019L838.691 254.011Z" fill="#A2A6B4"/>
<path d="M782.447 298.586C777.943 300.117 772.542 286.254 764.697 287.015C760.875 287.384 760.106 290.869 755.282 291.094C751.411 291.27 748.39 289.187 746.195 287.632C738.382 282.103 738.902 275.668 733.886 274.434C731.899 273.945 731.242 274.819 723.589 278.248C711.393 283.713 709.67 283.016 705.912 286.358C703.924 288.129 698.419 293.025 698.796 298.754C699.397 307.89 714.79 316.8 727.732 315.751C735.088 315.15 738.053 311.624 745.305 313.146C751.075 314.356 751.644 317.097 757.982 319.966C767.093 324.093 781.013 325.271 785.468 319.349C789.507 313.972 784.675 304.155 788.665 302.16C790.661 301.158 793.393 302.865 794.427 301.391C795.396 300.02 794.275 296.767 794.275 296.767C794.275 296.767 791.75 296.014 789.851 294.307C789.483 293.978 788.777 293.329 788.184 292.288C787.271 290.685 787.431 289.539 787.087 289.475C786.165 289.299 785.692 297.504 782.463 298.602L782.447 298.586Z" fill="#A2A6B4"/>
<rect y="619" width="619" height="1515" transform="rotate(-90 0 619)" fill="url(#paint0_linear_426_1107)"/>
</g>
<defs>
<linearGradient id="paint0_linear_426_1107" x1="619" y1="1376.5" x2="227.792" y2="1376.97" gradientUnits="userSpaceOnUse">
<stop offset="0.25" stop-color="#153677"/>
<stop offset="1" stop-color="#153677" stop-opacity="0"/>
</linearGradient>
<clipPath id="clip0_426_1107">
<rect width="1515" height="310" fill="white"/>
</clipPath>
</defs>
</svg>
