<svg width="309" height="123" viewBox="0 0 309 123" fill="none" xmlns="http://www.w3.org/2000/svg">
<g filter="url(#filter0_d_401_916)">
<path d="M26.6094 104L63.3867 19.918H17.7227V3.10156H85.9453V17.1836L48.0742 104H26.6094ZM146.681 105.846C137.566 105.846 130.138 104.137 124.396 100.719C118.653 97.2552 114.438 92.7891 111.749 87.3203C109.106 81.806 107.784 76.0182 107.784 69.957V37.623C107.784 31.4251 109.083 25.569 111.681 20.0547C114.324 14.4948 118.494 9.98307 124.19 6.51953C129.933 3.01042 137.429 1.25586 146.681 1.25586C153.517 1.25586 159.327 2.28125 164.112 4.33203C168.897 6.38281 172.771 9.13997 175.733 12.6035C178.741 16.0671 180.929 19.9863 182.296 24.3613C183.663 28.7363 184.347 33.248 184.347 37.8965V69.6836C184.347 74.1953 183.64 78.6159 182.228 82.9453C180.815 87.2292 178.582 91.1029 175.528 94.5664C172.521 97.9844 168.624 100.719 163.839 102.77C159.099 104.82 153.38 105.846 146.681 105.846ZM146.681 90.4648C151.511 90.4648 155.226 89.3939 157.823 87.252C160.421 85.11 162.198 82.4896 163.155 79.3906C164.158 76.2461 164.659 73.2155 164.659 70.2988V37.0762C164.659 34.1139 164.181 31.0605 163.224 27.916C162.312 24.7715 160.558 22.1283 157.96 19.9863C155.408 17.7988 151.648 16.7051 146.681 16.7051C141.668 16.7051 137.84 17.7988 135.196 19.9863C132.553 22.1283 130.73 24.7715 129.728 27.916C128.771 31.0605 128.292 34.1139 128.292 37.0762V70.2988C128.292 73.2155 128.816 76.2461 129.864 79.3906C130.958 82.4896 132.827 85.11 135.47 87.252C138.159 89.3939 141.896 90.4648 146.681 90.4648ZM222.318 58.6094C217.078 58.6094 212.953 57.5384 209.945 55.3965C206.983 53.209 204.887 50.1784 203.656 46.3047C202.426 42.431 201.811 37.8965 201.811 32.7012V29.0781C201.811 21.1029 203.246 14.8822 206.117 10.416C209.034 5.94987 214.434 3.7168 222.318 3.7168C230.203 3.7168 235.649 5.94987 238.656 10.416C241.664 14.8366 243.168 21.0345 243.168 29.0098V32.7012C243.168 40.5397 241.664 46.8288 238.656 51.5684C235.649 56.2624 230.203 58.6094 222.318 58.6094ZM230.385 104L267.504 5.15234H279.33L242.553 104H230.385ZM222.318 49.7227C225.235 49.7227 227.377 49.0391 228.744 47.6719C230.111 46.2591 231 44.3451 231.41 41.9297C231.82 39.4688 232.025 36.7116 232.025 33.6582V27.7109C232.025 24.7031 231.843 22.0827 231.479 19.8496C231.114 17.571 230.248 15.7936 228.881 14.5176C227.559 13.2415 225.372 12.6035 222.318 12.6035C219.356 12.6035 217.191 13.2415 215.824 14.5176C214.457 15.748 213.591 17.5026 213.227 19.7812C212.908 22.0143 212.748 24.612 212.748 27.5742V33.6582C212.748 36.7116 212.93 39.4688 213.295 41.9297C213.705 44.3451 214.594 46.2591 215.961 47.6719C217.328 49.0391 219.447 49.7227 222.318 49.7227ZM287.123 105.299C281.882 105.299 277.758 104.228 274.75 102.086C271.788 99.944 269.669 96.9362 268.393 93.0625C267.162 89.1432 266.547 84.5859 266.547 79.3906V75.7676C266.547 67.7923 268.005 61.5716 270.922 57.1055C273.839 52.6393 279.239 50.4062 287.123 50.4062C295.007 50.4062 300.43 52.6393 303.393 57.1055C306.4 61.526 307.904 67.724 307.904 75.6992V79.3906C307.904 87.2292 306.4 93.5182 303.393 98.2578C300.43 102.952 295.007 105.299 287.123 105.299ZM287.123 96.4121C289.994 96.4121 292.113 95.7285 293.481 94.3613C294.848 92.9486 295.736 91.0345 296.147 88.6191C296.557 86.1582 296.762 83.401 296.762 80.3477V74.4004C296.762 71.3926 296.58 68.7493 296.215 66.4707C295.896 64.1921 295.053 62.4375 293.686 61.207C292.318 59.931 290.131 59.293 287.123 59.293C284.115 59.293 281.928 59.931 280.561 61.207C279.239 62.4375 278.396 64.1921 278.031 66.4707C277.667 68.7038 277.484 71.3014 277.484 74.2637V80.3477C277.484 83.401 277.667 86.1582 278.031 88.6191C278.441 91.0345 279.33 92.9486 280.697 94.3613C282.065 95.7285 284.206 96.4121 287.123 96.4121Z" fill="#FF1054"/>
</g>
<defs>
<filter id="filter0_d_401_916" x="0.722656" y="0.255859" width="308.182" height="122.59" filterUnits="userSpaceOnUse" color-interpolation-filters="sRGB">
<feFlood flood-opacity="0" result="BackgroundImageFix"/>
<feColorMatrix in="SourceAlpha" type="matrix" values="0 0 0 0 0 0 0 0 0 0 0 0 0 0 0 0 0 0 127 0" result="hardAlpha"/>
<feOffset dx="-8" dy="8"/>
<feGaussianBlur stdDeviation="4.5"/>
<feComposite in2="hardAlpha" operator="out"/>
<feColorMatrix type="matrix" values="0 0 0 0 0 0 0 0 0 0 0 0 0 0 0 0 0 0 0.25 0"/>
<feBlend mode="normal" in2="BackgroundImageFix" result="effect1_dropShadow_401_916"/>
<feBlend mode="normal" in="SourceGraphic" in2="effect1_dropShadow_401_916" result="shape"/>
</filter>
</defs>
</svg>
