<svg width="75" height="75" viewBox="0 0 75 75" fill="none" xmlns="http://www.w3.org/2000/svg">
<path d="M35.1495 0C36.7119 0 38.2744 0 39.8369 0C40.0243 0.0410146 40.2099 0.105466 40.4013 0.119138C46.241 0.554673 51.7057 2.23236 56.686 5.29869C66.3655 11.2575 72.3282 19.8296 74.416 31.0383C74.6699 32.3995 74.8027 33.7823 74.9922 35.1573V39.8447C74.9316 40.3251 74.8652 40.8056 74.8125 41.288C74.0098 48.7058 71.3224 55.3579 66.5881 61.1273C60.7015 68.301 53.1705 72.7559 44.0242 74.4199C42.6395 74.6719 41.2333 74.8105 39.8369 75H35.1495C34.2335 74.8867 33.3175 74.7891 32.4035 74.6602C25.4857 73.6758 19.271 71.0392 13.8707 66.5998C6.70295 60.7054 2.23822 53.1842 0.576157 44.036C0.32421 42.6493 0.185542 41.2431 -0.00585938 39.8447C-0.00585938 38.2822 -0.00585938 36.7197 -0.00585938 35.1573C0.0527329 34.6768 0.119137 34.1964 0.17187 33.7159C1.03904 25.7728 4.04286 18.7495 9.34155 12.7594C15.1676 6.17367 22.4252 2.08002 31.1066 0.566391C32.4464 0.332023 33.8019 0.187495 35.1495 0ZM31.6847 56.6509H40.7782V55.7583C40.7782 52.1471 40.7743 48.5339 40.7802 44.9227C40.7841 43.4344 40.7802 41.9442 40.8368 40.4579C40.8974 38.831 41.7118 37.5771 42.9911 36.6436C45.6043 34.7393 49.0827 35.8819 49.9714 38.9775C50.2624 39.9911 50.362 41.0907 50.3717 42.1512C50.4147 46.7156 50.3893 51.278 50.3893 55.8423V56.6489H59.4828C59.4945 56.3774 59.516 56.1392 59.516 55.9009C59.516 50.9948 59.5297 46.0906 59.5082 41.1845C59.5043 40.1142 59.436 39.038 59.309 37.9736C58.6625 32.6261 55.4614 29.2551 50.3073 28.6496C46.5769 28.2122 43.4129 29.3332 41.1767 32.5245C41.0966 32.6378 41.0009 32.7394 40.7841 33.005V29.2414H31.6847V56.6489V56.6509ZM17.5093 29.1985V56.6411H26.6067V55.731C26.6067 47.53 26.6067 39.3271 26.6067 31.1261C26.6067 30.7121 26.5735 30.2922 26.6145 29.882C26.6712 29.3176 26.4388 29.1828 25.9036 29.1887C23.5111 29.2141 21.1186 29.2004 18.728 29.2004C18.3413 29.2004 17.9546 29.2004 17.5093 29.2004V29.1985ZM16.939 20.7475C16.9566 23.5267 19.0952 25.4954 22.0697 25.4681C25.0599 25.4407 27.2337 23.431 27.2063 20.7202C27.177 17.9077 25.0286 15.9429 22.0131 15.9683C19.019 15.9957 16.9234 17.9702 16.941 20.7475H16.939Z" fill="#EDF6FF"/>
</svg>
