<svg width="75" height="75" viewBox="0 0 75 75" fill="none" xmlns="http://www.w3.org/2000/svg">
<path d="M35.1562 0C36.7188 0 38.2812 0 39.8438 0C40.0312 0.0410156 40.2168 0.105469 40.4082 0.119141C46.248 0.554688 51.7129 2.23242 56.6934 5.29883C66.373 11.2578 72.3359 19.8301 74.4238 31.0391C74.6777 32.4004 74.8105 33.7832 75 35.1582V39.8457C74.9395 40.3262 74.873 40.8066 74.8203 41.2871C74.0176 48.7051 71.3301 55.3574 66.5957 61.127C60.709 68.3008 53.1777 72.7559 44.0313 74.4199C42.6465 74.6719 41.2402 74.8105 39.8438 75H35.1562C34.2402 74.8867 33.3242 74.7891 32.4102 74.6602C25.4922 73.6758 19.2773 71.0391 13.877 66.5996C6.70898 60.7051 2.24414 53.1836 0.582031 44.0352C0.332031 42.6484 0.191406 41.2402 0 39.8438C0 38.2812 0 36.7188 0 35.1562C0.0585938 34.6758 0.125 34.1953 0.177734 33.7148C1.04492 25.7715 4.04883 18.748 9.34766 12.7578C15.1738 6.17383 22.4316 2.08008 31.1133 0.566406C32.4531 0.332031 33.8086 0.1875 35.1562 0ZM37.502 15.8555C37.502 15.9434 37.5 16.0293 37.498 16.1172C34.4238 16.1172 31.3477 16.0605 28.2734 16.1348C25.7773 16.1953 23.3867 16.7793 21.2754 18.1934C17.7754 20.541 16.2441 24.0117 16.1582 28.0566C16.0234 34.3496 16.0742 40.6484 16.1484 46.9453C16.1758 49.3613 16.8164 51.6797 18.1914 53.7227C20.5605 57.2441 24.0566 58.7617 28.1289 58.8457C34.373 58.9746 40.625 58.9453 46.8711 58.8516C49.9687 58.8047 52.8262 57.8555 55.1543 55.6699C57.7363 53.2441 58.7793 50.1426 58.8633 46.7207C58.9883 41.5977 58.9902 36.4707 58.9961 31.3437C58.9961 29.834 58.8848 28.3184 58.7363 26.8145C58.1563 20.9941 54 16.7676 48.1777 16.2852C44.6328 15.9902 41.0625 15.9883 37.502 15.8555Z" fill="#EDF6FF"/>
<path d="M37.5956 19.7812C40.8143 19.873 44.0389 19.8848 47.2518 20.0762C51.8124 20.3496 54.7772 23.1797 54.8983 27.7305C55.0702 34.2383 55.0702 40.7578 54.8983 47.2656C54.7792 51.8047 51.8006 54.7734 47.246 54.8965C40.7635 55.0703 34.2674 55.0742 27.785 54.8965C23.1737 54.7715 20.2264 51.832 20.1034 47.2246C19.9276 40.6934 19.9784 34.1504 20.1073 27.6152C20.162 24.7852 21.4452 22.4355 24.0721 21.0449C25.6854 20.1895 27.4628 19.9746 29.2499 19.9473C32.0311 19.9062 34.8124 19.9355 37.5956 19.9355C37.5956 19.8828 37.5956 19.8281 37.5956 19.7754V19.7812ZM48.5487 37.502C48.5507 31.4004 43.6503 26.4824 37.5389 26.4512C31.4198 26.4199 26.451 31.3691 26.4491 37.4961C26.4471 43.5918 31.3514 48.5156 37.4608 48.5488C43.576 48.582 48.5467 43.6289 48.5487 37.502ZM51.5682 25.9902C51.5624 24.5762 50.4276 23.4395 49.0155 23.4316C47.5643 23.4219 46.4159 24.5664 46.4217 26.0195C46.4276 27.4395 47.5507 28.5684 48.9686 28.5762C50.4198 28.584 51.5721 27.4395 51.5663 25.9922L51.5682 25.9902Z" fill="#EDF6FF"/>
<path d="M44.6759 37.5216C44.6661 41.4669 41.4454 44.6778 37.4962 44.6759C33.5235 44.6759 30.2989 41.4219 30.3243 37.4415C30.3497 33.504 33.5919 30.3067 37.5411 30.3243C41.4845 30.3419 44.6856 33.5704 44.6759 37.5216Z" fill="#EDF6FF"/>
</svg>
