<?xml version="1.0" encoding="UTF-8"?>
<svg id="Layer_1" data-name="Layer 1" xmlns="http://www.w3.org/2000/svg" viewBox="0 0 300 355">
  <defs>
    <style>
      .cls-1 {
        fill: #a3a6b4;
      }

      .cls-1, .cls-2 {
        stroke-width: 0px;
      }

      .cls-2 {
        fill: #d8dce5;
      }
    </style>
  </defs>
  <path class="cls-2" d="M71.76,134.94v152.17s2.04,8.17,21.45,15.32,108.26,18.38,150.13,0c0,0,9.7,1.02,14.81-11.74s0-155.74,0-155.74c0,0,16.85-6.13,13.79-12.77s-37.79-17.36-108.26-17.36-106.21,6.64-104.68,15.83,11.74,9.19,11.74,9.19l1.02,5.11Z"/>
  <path class="cls-1" d="M77.3,148.79c-1.67-2.82-4.87-4.37-8.12-3.95-13.12,1.68-42.58,4.97-48.44,9.57-3.59,2.82-17.29,26.38-13.88,56.51,3.57,31.61,21.03,45.11,24.61,46.13s40.34,16.85,42.89,15.32c1.49-.9,1.24-6.85.77-11.65-.35-3.58-2.98-6.51-6.49-7.25-12.07-2.56-39.34-10.56-43.3-31.14-3.92-20.41,1.2-42.02,3.78-50.93.77-2.65,2.79-4.74,5.42-5.58,8.95-2.84,30.31-8.85,40.96-5.28,9.47,3.18,5.28-5.87,1.81-11.75Z"/>
  <path class="cls-1" d="M70.82,120.22c.13,5.59,56.19,8.48,81.02,9.19,46.96,1.34,108.37-1.55,108.6-7.49.2-5.24-47.23-12.85-91.23-13.62-48.93-.86-98.5,6.65-98.38,11.91Z"/>
</svg>