<svg width="168" height="43" viewBox="0 0 168 43" fill="none" xmlns="http://www.w3.org/2000/svg">
<g clip-path="url(#clip0_187_597)">
<path d="M133.148 33.8434V9.15662C133.148 4.09956 129.024 0 123.936 0L9.21222 0C4.12415 0 -0.000564575 4.09956 -0.000564575 9.15662V33.8434C-0.000564575 38.9004 4.12415 43 9.21222 43L123.936 43C129.024 43 133.148 38.9004 133.148 33.8434Z" fill="#EE2257"/>
<path d="M123.779 0C123.779 0 140.556 0.795181 155.927 12.8313C158.982 15.2169 158.679 18.1807 158.861 21.6747C159.006 24.4578 158.727 30.0361 156.194 31.5783C148.52 36.2289 136.689 42.9277 123.779 43.0121" fill="#EE2257"/>
<path d="M167.988 27.494V18.012C167.988 16.1489 166.469 14.6385 164.594 14.6385H154.896C153.022 14.6385 151.502 16.1489 151.502 18.012V27.494C151.502 29.3571 153.022 30.8675 154.896 30.8675H164.594C166.469 30.8675 167.988 29.3571 167.988 27.494Z" fill="#EE2257"/>
<path d="M9.70983 30.7349C9.57649 30.7349 9.46739 30.6867 9.39466 30.6145C9.32193 30.5422 9.27344 30.4217 9.27344 30.3012V17.506C9.27344 17.3735 9.3098 17.2771 9.39466 17.1928C9.47951 17.1084 9.58861 17.0723 9.70983 17.0723H10.6069C10.7402 17.0723 10.8372 17.1205 10.922 17.1928C11.0069 17.2771 11.0433 17.3855 11.0433 17.506V18.3494C11.3584 17.9277 11.7706 17.5663 12.2797 17.2892C12.801 17.012 13.4434 16.8675 14.2192 16.8675C14.9466 16.8675 15.5648 16.988 16.0739 17.2289C16.5831 17.4699 17.0073 17.8072 17.3346 18.2289C17.6619 18.6506 17.9165 19.1325 18.0862 19.6747C18.2559 20.2169 18.3529 20.7952 18.3771 21.4096C18.3892 21.6145 18.4014 21.8313 18.4014 22.0602C18.4014 22.2892 18.4014 22.506 18.3771 22.7108C18.3529 23.3133 18.2559 23.8916 18.0862 24.4337C17.9165 24.9759 17.674 25.4578 17.3346 25.8795C17.0073 26.3012 16.5831 26.6265 16.0739 26.8795C15.5648 27.1325 14.9466 27.253 14.2192 27.253C13.4919 27.253 12.8373 27.1084 12.3282 26.8434C11.8191 26.5663 11.3948 26.2289 11.0796 25.8072V30.2771C11.0796 30.4096 11.0433 30.506 10.9584 30.5904C10.8857 30.6747 10.7766 30.7108 10.6432 30.7108H9.69771L9.70983 30.7349ZM13.8192 25.6988C14.4859 25.6988 15.0193 25.5542 15.3951 25.2651C15.7709 24.9759 16.0497 24.6024 16.2194 24.1325C16.3891 23.6627 16.4861 23.1566 16.5103 22.6145C16.5224 22.241 16.5224 21.8675 16.5103 21.494C16.4861 20.9518 16.3891 20.4458 16.2194 19.9759C16.0497 19.506 15.7709 19.1325 15.3951 18.8434C15.0193 18.5542 14.4859 18.4096 13.8192 18.4096C13.1889 18.4096 12.6676 18.5542 12.2797 18.8554C11.8797 19.1566 11.5888 19.5301 11.4069 19.988C11.2251 20.4458 11.116 20.9157 11.0917 21.3855C11.0796 21.5904 11.0675 21.8313 11.0675 22.1205C11.0675 22.4096 11.0675 22.6506 11.0917 22.8675C11.1039 23.3133 11.213 23.759 11.4069 24.1928C11.6009 24.6265 11.9039 24.988 12.304 25.2771C12.704 25.5663 13.2131 25.6988 13.8192 25.6988Z" fill="white"/>
<path d="M21.2743 27.0723C21.1409 27.0723 21.0318 27.0361 20.9591 26.9518C20.8864 26.8675 20.8379 26.759 20.8379 26.6386V13.8434C20.8379 13.7108 20.8743 13.6145 20.9591 13.5301C21.044 13.4458 21.1531 13.4096 21.2743 13.4096H22.1834C22.3289 13.4096 22.438 13.4578 22.5107 13.5301C22.5835 13.6145 22.632 13.7229 22.632 13.8434V26.6386C22.632 26.7711 22.5956 26.8795 22.5107 26.9518C22.438 27.0361 22.3289 27.0723 22.1834 27.0723H21.2743Z" fill="white"/>
<path d="M28.3287 27.2651C27.6862 27.2651 27.0923 27.1325 26.5589 26.8795C26.0255 26.6265 25.6012 26.2771 25.2739 25.8434C24.9466 25.4096 24.7891 24.9157 24.7891 24.3614C24.7891 23.4699 25.1527 22.7711 25.88 22.241C26.6074 21.7108 27.5529 21.3614 28.7166 21.2048L31.6017 20.7952V20.241C31.6017 19.6265 31.4198 19.1446 31.0683 18.7952C30.7168 18.4458 30.1349 18.2771 29.3348 18.2771C28.7651 18.2771 28.3045 18.3976 27.9408 18.6265C27.5771 18.8554 27.3226 19.1566 27.1892 19.5181C27.1165 19.7108 26.971 19.8072 26.7771 19.8072H25.9043C25.7588 19.8072 25.6497 19.7711 25.5891 19.6867C25.5164 19.6024 25.48 19.506 25.48 19.3855C25.48 19.1928 25.5528 18.9518 25.6982 18.6747C25.8437 18.3976 26.074 18.1205 26.3892 17.8434C26.7044 17.5783 27.0923 17.3494 27.5771 17.1566C28.062 16.9759 28.656 16.8795 29.347 16.8795C30.1228 16.8795 30.7774 16.9759 31.3107 17.1807C31.8441 17.3855 32.2563 17.6506 32.5593 17.9759C32.8624 18.3133 33.0806 18.6867 33.2139 19.1084C33.3473 19.5301 33.42 19.9639 33.42 20.3976V26.6386C33.42 26.7711 33.3836 26.8795 33.2988 26.9518C33.2139 27.0361 33.1048 27.0723 32.9836 27.0723H32.0866C31.9411 27.0723 31.832 27.0361 31.7593 26.9518C31.6865 26.8675 31.638 26.759 31.638 26.6386V25.8072C31.4683 26.0361 31.238 26.2651 30.9592 26.494C30.6804 26.7229 30.3167 26.9036 29.8925 27.0482C29.4682 27.1928 28.9469 27.2651 28.3166 27.2651H28.3287ZM28.7409 25.8193C29.2742 25.8193 29.7591 25.7108 30.1955 25.4819C30.6319 25.253 30.9834 24.9036 31.238 24.4337C31.4926 23.9639 31.6138 23.3614 31.6138 22.6386V22.0964L29.3591 22.4217C28.4378 22.5542 27.7469 22.7711 27.2862 23.0723C26.8256 23.3735 26.5831 23.759 26.5831 24.2169C26.5831 24.5783 26.6922 24.8795 26.8983 25.1084C27.1044 25.3373 27.3832 25.5181 27.7105 25.6386C28.0378 25.759 28.3772 25.8072 28.7287 25.8072L28.7409 25.8193Z" fill="white"/>
<path d="M39.7112 27.2651C38.9839 27.2651 38.3657 27.1687 37.8444 27C37.3232 26.8193 36.911 26.6024 36.5837 26.3494C36.2564 26.0964 36.014 25.8313 35.8564 25.5783C35.6988 25.3253 35.6018 25.1205 35.5897 24.9639C35.5776 24.8193 35.6261 24.7108 35.7231 24.6386C35.82 24.5663 35.9291 24.5181 36.0382 24.5181H36.911C36.9716 24.5181 37.0322 24.5181 37.0807 24.5422C37.1292 24.5663 37.1898 24.6145 37.2626 24.7108C37.4323 24.8916 37.6141 25.0723 37.8202 25.253C38.0263 25.4337 38.2808 25.5783 38.5839 25.6988C38.8869 25.8193 39.2627 25.8675 39.7234 25.8675C40.3779 25.8675 40.9234 25.747 41.3477 25.494C41.772 25.241 41.9902 24.8795 41.9902 24.3855C41.9902 24.0602 41.9053 23.8072 41.7235 23.6145C41.5538 23.4217 41.2386 23.253 40.7901 23.0964C40.3416 22.9398 39.7355 22.7831 38.9597 22.6145C38.1838 22.4337 37.5656 22.2169 37.1171 21.9518C36.6686 21.6868 36.3413 21.3735 36.1473 21.0121C35.9534 20.6506 35.8564 20.2289 35.8564 19.7711C35.8564 19.3133 36.0019 18.8313 36.2807 18.3976C36.5595 17.9518 36.9838 17.5904 37.5293 17.3133C38.0747 17.0361 38.7657 16.8916 39.59 16.8916C40.2567 16.8916 40.8386 16.9759 41.3113 17.1446C41.7841 17.3133 42.1841 17.5181 42.4993 17.7711C42.8145 18.0241 43.0448 18.2651 43.2024 18.5181C43.36 18.759 43.4448 18.9639 43.457 19.1325C43.4691 19.2651 43.4327 19.3614 43.3357 19.4458C43.2388 19.5301 43.1418 19.5663 43.0206 19.5663H42.2084C42.1235 19.5663 42.0387 19.5422 41.9902 19.506C41.9296 19.4699 41.8811 19.4217 41.8205 19.3735C41.6871 19.2048 41.5417 19.0361 41.3598 18.8675C41.1901 18.6988 40.9598 18.5663 40.681 18.4578C40.4022 18.3494 40.0385 18.2892 39.59 18.2892C38.9475 18.2892 38.4627 18.4217 38.1354 18.6988C37.8081 18.9639 37.6505 19.3133 37.6505 19.7229C37.6505 19.9639 37.7232 20.1807 37.8687 20.3735C38.0141 20.5663 38.2808 20.7349 38.6809 20.8916C39.0809 21.0482 39.6749 21.2169 40.4628 21.3976C41.3113 21.5663 41.9902 21.7952 42.4751 22.0723C42.96 22.3494 43.3115 22.6868 43.5176 23.0602C43.7236 23.4337 43.8327 23.8675 43.8327 24.3494C43.8327 24.8916 43.6752 25.3855 43.3721 25.8313C43.0569 26.2771 42.5963 26.6386 41.9781 26.9036C41.3598 27.1687 40.5961 27.3012 39.687 27.3012L39.7112 27.2651Z" fill="white"/>
<path d="M50.0287 27.0723C49.3014 27.0723 48.7195 26.9398 48.2589 26.6627C47.8104 26.3855 47.471 26 47.2649 25.4819C47.0588 24.9759 46.9497 24.3735 46.9497 23.6747V18.5904H45.4344C45.3011 18.5904 45.192 18.5542 45.1193 18.4699C45.0465 18.3855 44.998 18.2771 44.998 18.1566V17.506C44.998 17.3735 45.0344 17.2771 45.1193 17.1928C45.2041 17.1084 45.3132 17.0723 45.4344 17.0723H46.9497V13.8554C46.9497 13.7229 46.9861 13.6265 47.0709 13.5422C47.1558 13.4578 47.2649 13.4217 47.3861 13.4217H48.2953C48.4286 13.4217 48.5256 13.4699 48.6104 13.5422C48.6953 13.6145 48.7317 13.7349 48.7317 13.8554V17.0723H51.1318C51.2773 17.0723 51.3864 17.1205 51.4591 17.1928C51.5319 17.2771 51.5803 17.3855 51.5803 17.506V18.1566C51.5803 18.2892 51.544 18.3976 51.4591 18.4699C51.3864 18.5542 51.2652 18.5904 51.1318 18.5904H48.7317V23.5422C48.7317 24.1446 48.8407 24.6265 49.0468 24.9639C49.2529 25.3133 49.6166 25.4819 50.1499 25.4819H51.3379C51.4712 25.4819 51.5682 25.5181 51.6531 25.6024C51.7379 25.6868 51.7743 25.7952 51.7743 25.9157V26.6145C51.7743 26.747 51.7258 26.8554 51.6531 26.9277C51.5803 27 51.4591 27.0482 51.3379 27.0482H50.0045L50.0287 27.0723Z" fill="white"/>
<path d="M53.9676 15.1687C53.8343 15.1687 53.7373 15.1325 53.6525 15.0482C53.5676 14.9639 53.5312 14.8554 53.5312 14.7349V13.6988C53.5312 13.5663 53.5797 13.4578 53.6525 13.3735C53.7373 13.2892 53.8464 13.241 53.9676 13.241H55.192C55.3253 13.241 55.4344 13.2892 55.5193 13.3735C55.6041 13.4699 55.6526 13.5783 55.6526 13.6988V14.7349C55.6526 14.8675 55.6041 14.9759 55.5193 15.0482C55.4223 15.1325 55.3132 15.1687 55.192 15.1687H53.9676ZM54.1252 27.0723C53.9919 27.0723 53.8949 27.0361 53.8101 26.9518C53.7252 26.8675 53.6888 26.759 53.6888 26.6386V17.506C53.6888 17.3735 53.7373 17.2771 53.8101 17.1928C53.8828 17.1084 54.004 17.0723 54.1252 17.0723H55.0586C55.192 17.0723 55.289 17.1205 55.3738 17.1928C55.4587 17.2651 55.495 17.3855 55.495 17.506V26.6386C55.495 26.7711 55.4465 26.8795 55.3738 26.9518C55.3011 27.0241 55.1799 27.0723 55.0586 27.0723H54.1252Z" fill="white"/>
<path d="M62.4415 27.2651C61.5202 27.2651 60.7322 27.0843 60.0655 26.7349C59.3988 26.3855 58.8897 25.8795 58.526 25.2169C58.1624 24.5542 57.9684 23.759 57.9442 22.8313C57.932 22.6386 57.9199 22.3855 57.9199 22.0602C57.9199 21.7349 57.9199 21.4819 57.9442 21.2892C57.9684 20.3614 58.1624 19.5663 58.526 18.9036C58.8897 18.241 59.3988 17.7349 60.0655 17.3855C60.7322 17.0361 61.5202 16.8554 62.4415 16.8554C63.193 16.8554 63.8355 16.9639 64.3689 17.1687C64.9022 17.3735 65.3508 17.6386 65.7023 17.9639C66.0538 18.2892 66.3084 18.6265 66.4902 19C66.6599 19.3735 66.7569 19.7229 66.769 20.0602C66.769 20.1928 66.7448 20.2892 66.6478 20.3735C66.563 20.4458 66.4417 20.494 66.3205 20.494H65.3871C65.2538 20.494 65.1568 20.4699 65.0962 20.4096C65.0356 20.3494 64.9629 20.253 64.9022 20.1084C64.6719 19.4819 64.3567 19.0361 63.9567 18.7831C63.5567 18.5301 63.0597 18.3976 62.4657 18.3976C61.6899 18.3976 61.0595 18.6386 60.5747 19.1084C60.0898 19.5783 59.8231 20.3494 59.7867 21.3976C59.7746 21.8554 59.7746 22.3133 59.7867 22.747C59.8231 23.8072 60.0898 24.5783 60.5747 25.0482C61.0595 25.5181 61.6899 25.747 62.4657 25.747C63.0597 25.747 63.5567 25.6145 63.9567 25.3614C64.3567 25.1084 64.6719 24.6627 64.9022 24.0361C64.9629 23.8916 65.0356 23.7952 65.0962 23.7229C65.1568 23.6506 65.2538 23.6265 65.3871 23.6265H66.3205C66.4539 23.6265 66.563 23.6747 66.6478 23.747C66.7448 23.8313 66.7812 23.9398 66.769 24.0602C66.7569 24.3253 66.6963 24.6024 66.5993 24.8916C66.5024 25.1687 66.3327 25.4578 66.1023 25.747C65.872 26.0361 65.5932 26.2892 65.2538 26.5181C64.9144 26.747 64.5143 26.9277 64.0537 27.0602C63.5931 27.1928 63.0476 27.2651 62.4415 27.2651Z" fill="white"/>
<path d="M77.9083 27.2651C76.987 27.2651 76.199 27.0843 75.5323 26.7349C74.8656 26.3855 74.3565 25.8795 73.9928 25.2169C73.6292 24.5542 73.4352 23.759 73.411 22.8313C73.3988 22.6386 73.3867 22.3855 73.3867 22.0602C73.3867 21.7349 73.3867 21.4819 73.411 21.2892C73.4352 20.3614 73.6292 19.5663 73.9928 18.9036C74.3565 18.241 74.8656 17.7349 75.5323 17.3855C76.199 17.0361 76.987 16.8554 77.9083 16.8554C78.6598 16.8554 79.3023 16.9639 79.8357 17.1687C80.369 17.3735 80.8176 17.6386 81.1691 17.9639C81.5206 18.2892 81.7752 18.6265 81.957 19C82.1267 19.3735 82.2237 19.7229 82.2358 20.0602C82.2358 20.1928 82.2116 20.2892 82.1146 20.3735C82.0298 20.4458 81.9085 20.494 81.7873 20.494H80.8539C80.7206 20.494 80.6236 20.4699 80.563 20.4096C80.5024 20.3494 80.4297 20.253 80.369 20.1084C80.1387 19.4819 79.8235 19.0361 79.4235 18.7831C79.0235 18.5301 78.5265 18.3976 77.9325 18.3976C77.1567 18.3976 76.5263 18.6386 76.0415 19.1084C75.5566 19.5783 75.2899 20.3494 75.2535 21.3976C75.2414 21.8554 75.2414 22.3133 75.2535 22.747C75.2899 23.8072 75.5566 24.5783 76.0415 25.0482C76.5263 25.5181 77.1567 25.747 77.9325 25.747C78.5265 25.747 79.0235 25.6145 79.4235 25.3614C79.8235 25.1084 80.1387 24.6627 80.369 24.0361C80.4297 23.8916 80.5024 23.7952 80.563 23.7229C80.6236 23.6506 80.7206 23.6265 80.8539 23.6265H81.7873C81.9207 23.6265 82.0298 23.6747 82.1146 23.747C82.2116 23.8313 82.248 23.9398 82.2358 24.0602C82.2237 24.3253 82.1631 24.6024 82.0661 24.8916C81.9692 25.1687 81.7994 25.4578 81.5691 25.747C81.3388 26.0361 81.06 26.2892 80.7206 26.5181C80.3812 26.747 79.9811 26.9277 79.5205 27.0602C79.0599 27.1928 78.5144 27.2651 77.9083 27.2651Z" fill="white"/>
<path d="M85.0008 27.0723C84.8675 27.0723 84.7584 27.0361 84.6857 26.9518C84.6129 26.8675 84.5645 26.759 84.5645 26.6386V13.8434C84.5645 13.7108 84.6008 13.6145 84.6857 13.5301C84.7705 13.4458 84.8796 13.4096 85.0008 13.4096H85.9706C86.1161 13.4096 86.2252 13.4578 86.2979 13.5301C86.3706 13.6145 86.4191 13.7229 86.4191 13.8434V18.3373C86.7707 17.9036 87.1949 17.5422 87.7041 17.2771C88.2132 17.012 88.8435 16.8675 89.6194 16.8675C90.4558 16.8675 91.171 17.0482 91.765 17.4217C92.3589 17.7831 92.7954 18.3012 93.0984 18.9398C93.4015 19.5904 93.559 20.3494 93.559 21.2048V26.6386C93.559 26.7711 93.5227 26.8795 93.4378 26.9518C93.3651 27.0361 93.2439 27.0723 93.1105 27.0723H92.1408C92.0074 27.0723 91.9104 27.0361 91.8256 26.9518C91.7407 26.8675 91.7044 26.759 91.7044 26.6386V21.3012C91.7044 20.3976 91.4862 19.6988 91.0498 19.1928C90.6134 18.6867 89.9588 18.4337 89.1102 18.4337C88.3102 18.4337 87.6556 18.6867 87.1707 19.1928C86.6737 19.6988 86.4313 20.3976 86.4313 21.3012V26.6386C86.4313 26.7711 86.3949 26.8795 86.31 26.9518C86.2373 27.0361 86.1282 27.0723 85.9827 27.0723H85.013H85.0008Z" fill="white"/>
<path d="M99.1588 27.2651C98.5163 27.2651 97.9223 27.1325 97.389 26.8795C96.8556 26.6265 96.4313 26.2771 96.104 25.8434C95.7767 25.4096 95.6191 24.9157 95.6191 24.3614C95.6191 23.4699 95.9828 22.7711 96.7101 22.241C97.4375 21.7108 98.383 21.3614 99.5467 21.2048L102.432 20.7952V20.241C102.432 19.6265 102.25 19.1446 101.898 18.7952C101.547 18.4458 100.965 18.2771 100.165 18.2771C99.5952 18.2771 99.1346 18.3976 98.7709 18.6265C98.4072 18.8554 98.1527 19.1566 98.0193 19.5181C97.9466 19.7108 97.8011 19.8072 97.6072 19.8072H96.7344C96.5889 19.8072 96.4798 19.7711 96.4192 19.6867C96.3465 19.6024 96.3101 19.506 96.3101 19.3855C96.3101 19.1928 96.3828 18.9518 96.5283 18.6747C96.6738 18.3976 96.9041 18.1205 97.2193 17.8434C97.5344 17.5783 97.9223 17.3494 98.4072 17.1566C98.8921 16.9759 99.4861 16.8795 100.177 16.8795C100.953 16.8795 101.607 16.9759 102.141 17.1807C102.674 17.3855 103.086 17.6506 103.389 17.9759C103.692 18.3133 103.911 18.6867 104.044 19.1084C104.177 19.5301 104.25 19.9639 104.25 20.3976V26.6386C104.25 26.7711 104.214 26.8795 104.129 26.9518C104.044 27.0361 103.935 27.0723 103.814 27.0723H102.917C102.771 27.0723 102.662 27.0361 102.589 26.9518C102.517 26.8675 102.468 26.759 102.468 26.6386V25.8072C102.298 26.0361 102.068 26.2651 101.789 26.494C101.51 26.7229 101.147 26.9036 100.723 27.0482C100.298 27.1928 99.777 27.2651 99.1467 27.2651H99.1588ZM99.5709 25.8193C100.104 25.8193 100.589 25.7108 101.026 25.4819C101.462 25.253 101.814 24.9036 102.068 24.4337C102.323 23.9639 102.444 23.3614 102.444 22.6386V22.0964L100.189 22.4217C99.2679 22.5542 98.5769 22.7711 98.1163 23.0723C97.6557 23.3735 97.4132 23.759 97.4132 24.2169C97.4132 24.5783 97.5223 24.8795 97.7284 25.1084C97.9345 25.3373 98.2133 25.5181 98.5406 25.6386C98.8679 25.759 99.2073 25.8072 99.5588 25.8072L99.5709 25.8193Z" fill="white"/>
<path d="M107.499 27.0723C107.366 27.0723 107.269 27.0361 107.184 26.9518C107.099 26.8675 107.062 26.759 107.062 26.6386V17.506C107.062 17.3735 107.111 17.2771 107.184 17.1928C107.256 17.1084 107.378 17.0723 107.499 17.0723H108.408C108.541 17.0723 108.638 17.1205 108.723 17.1928C108.808 17.2771 108.844 17.3855 108.844 17.506V18.3494C109.184 17.9157 109.608 17.5542 110.117 17.2771C110.626 17 111.281 16.8675 112.081 16.8675C112.881 16.8675 113.633 17.0482 114.227 17.4217C114.821 17.7831 115.257 18.3012 115.56 18.9398C115.863 19.5904 116.021 20.3494 116.021 21.2048V26.6386C116.021 26.7711 115.984 26.8795 115.9 26.9518C115.815 27.0241 115.706 27.0723 115.584 27.0723H114.615C114.481 27.0723 114.384 27.0361 114.299 26.9518C114.215 26.8675 114.178 26.759 114.178 26.6386V21.3012C114.178 20.3976 113.96 19.6988 113.524 19.1928C113.087 18.6867 112.433 18.4337 111.584 18.4337C110.784 18.4337 110.142 18.6867 109.657 19.1928C109.172 19.6988 108.929 20.3976 108.929 21.3012V26.6386C108.929 26.7711 108.893 26.8795 108.808 26.9518C108.723 27.0241 108.614 27.0723 108.493 27.0723H107.523H107.499Z" fill="white"/>
<path d="M122.941 31.3133C122.056 31.3133 121.341 31.1928 120.784 30.9639C120.226 30.7349 119.777 30.4578 119.462 30.1205C119.147 29.7952 118.917 29.4699 118.783 29.1325C118.65 28.8072 118.577 28.5422 118.565 28.3494C118.553 28.2169 118.589 28.1084 118.686 28.0241C118.783 27.9398 118.892 27.8916 119.002 27.8916H119.935C120.056 27.8916 120.153 27.9157 120.226 27.9639C120.299 28.0121 120.371 28.1205 120.42 28.2892C120.493 28.4819 120.614 28.6988 120.771 28.9398C120.929 29.1807 121.171 29.3855 121.487 29.5542C121.814 29.7229 122.262 29.8193 122.844 29.8193C123.426 29.8193 123.96 29.7349 124.372 29.5663C124.784 29.3976 125.099 29.1205 125.317 28.7229C125.535 28.3253 125.632 27.7711 125.632 27.0602V25.747C125.317 26.1446 124.917 26.4819 124.408 26.7349C123.899 26.988 123.269 27.1325 122.505 27.1325C121.741 27.1325 121.159 27.0121 120.638 26.759C120.117 26.506 119.693 26.1687 119.365 25.7349C119.038 25.3012 118.796 24.8072 118.626 24.2651C118.468 23.7108 118.371 23.1325 118.347 22.5301C118.335 22.1687 118.335 21.8193 118.347 21.4699C118.371 20.8675 118.468 20.2892 118.626 19.7349C118.783 19.1807 119.038 18.6867 119.365 18.253C119.693 17.8193 120.117 17.4699 120.638 17.2169C121.159 16.9639 121.778 16.8434 122.505 16.8434C123.281 16.8434 123.923 16.988 124.432 17.2651C124.941 17.5422 125.366 17.9036 125.681 18.3253V17.494C125.681 17.3614 125.717 17.253 125.802 17.1687C125.887 17.0843 125.996 17.0361 126.117 17.0361H127.014C127.148 17.0361 127.257 17.0843 127.342 17.1687C127.426 17.2651 127.475 17.3735 127.475 17.494V26.8434C127.475 27.6988 127.329 28.4699 127.039 29.1325C126.748 29.7952 126.275 30.3253 125.608 30.7108C124.941 31.0964 124.044 31.2892 122.917 31.2892L122.941 31.3133ZM122.905 25.6024C123.547 25.6024 124.069 25.4578 124.469 25.1566C124.869 24.8554 125.16 24.494 125.341 24.0361C125.523 23.5904 125.632 23.1325 125.644 22.6627C125.644 22.4819 125.669 22.2651 125.669 22C125.669 21.7349 125.669 21.5181 125.644 21.3374C125.632 20.8795 125.535 20.4217 125.341 19.9639C125.147 19.5181 124.857 19.1446 124.469 18.8434C124.069 18.5422 123.559 18.3976 122.905 18.3976C122.25 18.3976 121.741 18.5422 121.353 18.8313C120.965 19.1205 120.687 19.494 120.517 19.9639C120.347 20.4337 120.25 20.9398 120.226 21.4819C120.214 21.8193 120.214 22.1566 120.226 22.506C120.25 23.0482 120.347 23.5542 120.517 24.0241C120.687 24.494 120.965 24.8675 121.353 25.1566C121.741 25.4458 122.262 25.5904 122.905 25.5904V25.6024Z" fill="white"/>
<path d="M134.422 27.2651C133.076 27.2651 132.01 26.8554 131.222 26.0361C130.434 25.2169 129.997 24.1084 129.925 22.6868C129.913 22.5181 129.9 22.3012 129.9 22.0361C129.9 21.7711 129.9 21.5542 129.925 21.3855C129.973 20.4699 130.191 19.6747 130.567 18.988C130.943 18.3012 131.452 17.7711 132.107 17.3976C132.761 17.0241 133.525 16.8434 134.41 16.8434C135.392 16.8434 136.216 17.0482 136.883 17.4578C137.549 17.8675 138.059 18.4578 138.41 19.2169C138.762 19.9759 138.931 20.8675 138.931 21.8795V22.2048C138.931 22.3494 138.895 22.4578 138.81 22.5301C138.725 22.6024 138.616 22.6506 138.495 22.6506H131.779V22.8193C131.804 23.3494 131.925 23.8313 132.131 24.2892C132.337 24.747 132.64 25.1205 133.028 25.3976C133.428 25.6747 133.889 25.8193 134.41 25.8193C134.87 25.8193 135.258 25.747 135.574 25.6024C135.889 25.4578 136.131 25.3012 136.325 25.1325C136.519 24.9639 136.652 24.8193 136.713 24.7229C136.834 24.5663 136.919 24.4699 136.98 24.4458C137.04 24.4217 137.149 24.3976 137.295 24.3976H138.24C138.362 24.3976 138.459 24.4337 138.543 24.506C138.628 24.5783 138.665 24.6747 138.653 24.8072C138.64 25 138.531 25.2289 138.337 25.506C138.143 25.7831 137.865 26.0602 137.513 26.3253C137.162 26.5904 136.713 26.8193 136.192 26.988C135.67 27.1566 135.077 27.253 134.422 27.253V27.2651ZM131.767 21.3253H137.077V21.2651C137.077 20.6867 136.968 20.1687 136.761 19.7229C136.543 19.2771 136.24 18.9157 135.84 18.6506C135.44 18.3855 134.955 18.253 134.41 18.253C133.864 18.253 133.379 18.3855 132.979 18.6506C132.579 18.9157 132.288 19.2651 132.082 19.7229C131.876 20.1687 131.767 20.6867 131.767 21.2651V21.3253Z" fill="white"/>
</g>
<defs>
<clipPath id="clip0_187_597">
<rect width="168" height="43" fill="white"/>
</clipPath>
</defs>
</svg>
