<?xml version="1.0" encoding="UTF-8"?>
<svg id="Layer_1" data-name="Layer 1" xmlns="http://www.w3.org/2000/svg" viewBox="0 0 425 355">
  <defs>
    <style>
      .cls-1 {
        fill: #cacdd5;
      }

      .cls-1, .cls-2, .cls-3, .cls-4, .cls-5, .cls-6, .cls-7, .cls-8, .cls-9, .cls-10, .cls-11 {
        stroke-width: 0px;
      }

      .cls-2 {
        fill: #f8faff;
      }

      .cls-3 {
        fill: #97897f;
      }

      .cls-4 {
        fill: #f7f6f5;
      }

      .cls-5 {
        fill: #a3a6b4;
      }

      .cls-6 {
        fill: #746154;
      }

      .cls-7 {
        fill: #70727e;
      }

      .cls-8 {
        fill: #eff3f9;
      }

      .cls-9 {
        fill: #efebe8;
      }

      .cls-10 {
        fill: #7b7d87;
      }

      .cls-11 {
        fill: #d9dce2;
      }
    </style>
  </defs>
  <path class="cls-8" d="M261.76,119.8l-4.96,51.58c-.21,2.18-1.28,4.2-2.97,5.59l-28.89,23.86c-.92.76-1.46,1.88-1.48,3.08l-.68,48.59c-.03,2.22-1.84,4.01-4.06,4.01s-3.91-1.66-4.06-3.79l-3.39-49.89c-.08-1.15-.64-2.22-1.55-2.93l-30.09-23.5c-.84-.66-1.4-1.63-1.53-2.69l-6.92-54.41c-.67-5.28,3.46-9.95,8.79-9.92l72.77.43c5.37.03,9.55,4.66,9.03,10Z"/>
  <path class="cls-2" d="M257.81,123.34l-4.53,48.69c-.19,2.06-1.17,3.96-2.71,5.28l-26.38,22.52c-.84.72-1.33,1.78-1.35,2.91l-.62,45.87c-.03,2.1-1.68,3.78-3.71,3.78h0c-1.95,0-3.57-1.56-3.7-3.58l-3.09-47.1c-.07-1.09-.59-2.09-1.42-2.76l-27.47-22.19c-.77-.62-1.27-1.54-1.4-2.54l-6.31-51.37c-.61-4.99,3.16-9.39,8.02-9.36l66.43.4c4.9.03,8.71,4.4,8.25,9.44Z"/>
  <path class="cls-8" d="M250.2,113.72c.06-.2-1.98-.47-1.89.16.52,3.78-2.49,47.73-1.71,47.69.77-.04,2.56-44.44,3.61-47.85Z"/>
  <path class="cls-1" d="M119.23,67c3.12,4.76.84,8.05-.15,35.24-.26,7.07-.3,14.08,1.37,22.82.81,4.22,1.89,7.64,3.05,11.57,4.98,16.77,15.62,24.58,17.7,33.02,13.28,53.71,13.79,121.45,4.08,159.74-.46,1.81-12.17,1.19-33.19.6-20.01-.57-30.99,2.66-31.66,1.02-12.26-30.13-13.79-101.83-6.13-157.28,1.05-7.62,12.53-18.97,15.83-37.79,1.73-9.86.22-16.79-4.68-51.57-1.57-11.12-2.05-15.17,1.02-18.89,7.19-8.73,26.03-8.73,32.74,1.53Z"/>
  <path class="cls-7" d="M83.78,56.92h36.18c2.92,0,5.3,2.44,5.37,5.49l.09,4.26c.07,3.47-2.56,5.06-5.87,4.92l-36.81-.31c-2.91-.12-5.04-2.91-4.5-5.91l.78-4.34c.43-2.39,2.43-4.13,4.76-4.13Z"/>
  <path class="cls-3" d="M263.62,284.76c10.33-55.98,61.93-120.14,47.13-137.07-2.01-2.3-7.34-7.33-11.31-16.07-.96-2.1-1.42-4.78-1.01-8.57,2.46-22.49-1.7-60.05,22.18-67.46,26.8-8.32,85.69,5.7,80.39,31.42-4.31,20.95-12.01,35.42-20.02,51.13-9.71,19.05-23.32,8.31-41.89,19.1-30.3,17.6-51.37,96.78-54.21,128.75-.35,3.94-1.14,14.6-5.54,15.71-4.92,1.24-17.11-9.37-15.71-16.94Z"/>
  <path class="cls-7" d="M129.48,249.2v83.84c0,.54.43.97.97.97l194.4.25c.54,0,.97-.44.97-.97l-.25-82.07c0-.53-.43-.96-.96-.97l-194.15-2.02c-.54,0-.98.43-.98.97Z"/>
  <path class="cls-5" d="M141.24,256.47c-8.51-1.14-12.76-1.71-15.83.77-4.53,3.66-7.74,15.31-2.04,16.85,9.45,2.55,17.36,4.35,25.79,1.29,4.07-1.48,3.2-12.81.51-16.1-.47-.57-1.75-1.91-8.43-2.81Z"/>
  <path class="cls-5" d="M320.67,258.37c-8.58-.41-12.86-.61-15.7,2.13-4.2,4.04-6.39,15.92-.59,16.96,9.63,1.73,17.67,2.84,25.8-.93,3.93-1.82,2.09-13.04-.88-16.08-.51-.53-1.91-1.75-8.64-2.07Z"/>
  <path class="cls-5" d="M131.36,252.05c-1.21.09-5.75.53-7.96-2.3-3.34-4.27-.72-16,1.93-15.83,37.86,2.44,121.07,0,203.79,1.02,1,.01,5.04,17.64-3.49,17.36-39.86-1.28-166.42-2.3-194.27-.26Z"/>
  <path class="cls-9" d="M326.5,286.72c-13.46,17.13-30.96,50.66-10.6,53.82,23.65,3.67,20.78,3.58,44.45,5.71,21.24,1.91,17.33-24.47,9.59-53.01-3.52-12.98-36.73-15.05-43.43-6.52Z"/>
  <path class="cls-4" d="M362.75,291.8c6.81-1.11,10.92,28.98,10.95,39.14,0,2.12-1.31,5.62-3.1,7.8-3.41,4.14-11.53,5.11-15.71.35-9.53-10.87,1.03-46.18,7.86-47.29Z"/>
  <path class="cls-6" d="M333.9,72.02s-.81-1-2.03-.76c-4.75.93-7.76,43.73-7.11,50.07.07.64.24,2.34.88,2.62.6.26,1.32-.85,1.58-1.25,3.4-5.26,8.42-36.74,7.82-46.49-.17-2.72-.78-3.75-1.13-4.19Z"/>
  <path class="cls-6" d="M360.36,66.96s-.61-1.34-1.93-1.24c-5.13.39-17.9,52-18.66,59.81-.08.79-.28,2.88.32,3.32.56.41,1.55-.83,1.91-1.28,4.7-5.86,17.01-43.39,18.58-55.34.44-3.34.04-4.69-.23-5.27Z"/>
  <path class="cls-6" d="M381.63,82.78s-.42-1.28-1.66-1.41c-4.84-.5-22.87,42.7-24.5,49.43-.17.68-.6,2.48-.09,2.97.48.45,1.55-.47,1.94-.81,5.09-4.37,21.02-35.28,23.9-45.52.8-2.86.59-4.11.41-4.67Z"/>
  <path class="cls-11" d="M85.02,167.92c-.35.09-1.81.53-3.32,4.09-2.33,5.51-2.71,13.63-.74,14.94.71.47,1.78.1,2.3-.77,1.24-2.04-1.39-5.42-.28-9.32.42-1.49,1.29-2.68,2.58-4.47,1.37-1.89,2.26-2.53,2.12-3.32-.15-.89-1.54-1.42-2.67-1.15Z"/>
  <path class="cls-10" d="M134.17,311.12c-.47.37-1.28,1.29-.6,8.17.46,4.59,1.05,6.98,1.18,8.32.51,5.32,11.91,3.5,15.11,2.28.93-.35,1-2.49.3-3.28-2.27-2.57-7.63,1.02-10.13-1.45-1.19-1.17-1.12-3.11-1.02-5.79.16-4.4,1.09-6.23.07-7.76-1.03-1.56-3.39-1.72-4.93-.49Z"/>
</svg>