<?xml version="1.0" encoding="UTF-8"?>
<svg id="Layer_1" data-name="Layer 1" xmlns="http://www.w3.org/2000/svg" viewBox="0 0 425 355">
  <defs>
    <style>
      .cls-1 {
        fill: #1c1e23;
      }

      .cls-1, .cls-2, .cls-3, .cls-4, .cls-5, .cls-6, .cls-7 {
        stroke-width: 0px;
      }

      .cls-2 {
        fill: #f4f4f2;
      }

      .cls-3 {
        fill: #a3a6b4;
      }

      .cls-4 {
        fill: #74767c;
      }

      .cls-8 {
        fill: none;
        stroke: #e2e2e2;
        stroke-miterlimit: 10;
      }

      .cls-5 {
        fill: #ff4076;
      }

      .cls-6 {
        fill: #ff8310;
      }

      .cls-7 {
        fill: #007c7a;
      }
    </style>
  </defs>
  <g>
    <path class="cls-2" d="m25.64,101.73c2.84-5.67,14.19-1.78,49.54-4.31,21.21-1.52,33.34-2.38,48.1-7.18,8.31-2.7,30.68-10.22,50.25-29.43,6.31-6.19,17.16-18.34,37.33-37.33,6.12-5.76,8.14-7.49,11.49-7.9,13.89-1.7,25.72,22.36,47.38,57.43,20.14,32.61,30.21,48.91,39.49,58.87,38.36,41.21,55.81,64.08,76.82,81.59,32.62,27.2-15.9,52.82-25.85,61.87-13.51,12.29-21.01,19.93-93.33,43.35-87.84,28.45-97.16,21.85-109.84,18.14-15.1-4.42-20.28-29.66-42.36-80.75-20.1-46.51-23.86-72.24-40.2-95.48-25.08-35.67-53.45-49.63-48.82-58.87Z"/>
    <path class="cls-5" d="m170.71,130.97c-9.35-5.77-19.08-6.25-24.07-6.49-7.07-.35-17.22-.85-26.74,5.73-10.81,7.48-13.77,19.24-14.52,22.92-3.74,18.54,8.12,33.67,11.08,37.43,12.84,16.37,31.14,20.64,52.33,25.59,37.96,8.86,46.54-2.78,74.87,8.02,3.41,1.3,8.5,3.46,12.61,1.15,7.83-4.41,2.85-19.86,3.82-46.6,1.02-28.15,7.25-30.67,4.97-51.95-1.55-14.44-2.97-27.75-13.75-36.67-12.04-9.96-31.37-10.83-45.46-2.29-8.11,4.91-18.35,15.28-18.34,27.5.02,12.43,10.65,21.27,7.64,24.45-1.97,2.07-7.88-.23-12.22-1.91-5.95-2.31-8.91-4.83-12.22-6.88Z"/>
    <g>
      <path class="cls-7" d="m236.16,165.48c3.28,10.29-25.13,27.95-47.45,35.93-15.8,5.65-20,3.39-21.71,1.96-5.97-4.99-3.95-18.35.82-26.96,10.32-18.59,37.82-22.7,56.36-17.65,5.75,1.57,10.77,2.93,11.97,6.71Z"/>
      <path class="cls-7" d="m177.32,173.86c-5.32-2.63,1.15-13.56,5.24-18.57,4.82-5.91,9.81-7.88,11.37-8.45,7.07-2.57,15.7-2.6,16.5-1.3.94,1.54-9.19,3.74-10.04,8.84-.5,3,.92,5.21,1.04,8.39.25,6.91-18.07,14.07-24.1,11.09Z"/>
      <path class="cls-7" d="m201.93,184.39c2.55-.42,6.94,1.62,7.93,2.57,2.92,2.81,9.08,4.79,8.02,6.44-1.22,1.9-8.32,2.33-13.65.48-2.03-.7-5.85-1.55-6.35-3.65-.41-1.73,1.3-5.39,4.04-5.85Z"/>
      <path class="cls-7" d="m234.92,160.44c7.01-8.76,4.5-14.84,11.46-20.05,1.9-1.43,4.84-3.03,5.74-2.21,2.01,1.83-9.32,12.72-6.08,19.79,2.39,5.22,10.68,3.95,12.59,9.86.81,2.53.29,5.84-1.59,7.47-2.49,2.16-7.29.35-16.88-3.27-7.33-2.76-8.71-4.09-8.96-5.57-.33-1.94,1.43-3.14,3.73-6.02Z"/>
    </g>
    <path class="cls-8" d="m200.82,303.62c52.05-6.9,111.99-24.21,167.28-63.9,5.23-3.75,10.25-7.59,15.08-11.49"/>
    <path class="cls-8" d="m276.92,253.36c22.59-3.23,47.99-15.35,75.38-38.05,1.87-1.55,2.97-3.8,4.31-5.74"/>
  </g>
  <g>
    <path class="cls-3" d="m210.64,282.92c-.74,3.68-3.54,11.35-1.12,9.73,5.62-3.74,5.86-2.25,9.23-4.99,2.26-1.84-7.24-9.11-8.11-4.74Z"/>
    <path class="cls-1" d="m211.34,280.3c1.52-13.09,21.78-32.41,56.56-78.36,17.9-23.64,50.41-67.23,73.22-89.73,3.98-3.92,12.41-8.66,22.25-7.9,1.4.11,11.77,1.07,17.95,9.33,5.3,7.08,5.85,15.98,4.31,18.66-12.07,20.95-50.53,44.12-91.16,84.7-37.08,37.04-52.28,50.09-72.5,69.63-1.69,1.63-11.34-.18-10.62-6.34Z"/>
    <path class="cls-6" d="m365.11,157.83c-1.38,1.22-3.5,1.41-5,1.48-4.71.21-11.88-1.57-17.73-3.36-7.24-2.2-13.65-6.53-18.42-12.4-.03-.03-.05-.06-.08-.09-2.73-3.36-5.54-6.9-4.38-9.51.59-1.33,2.21-2.44,3.32-2.11,1.26.37,1.62,2.5,1.81,3.32.96,4.19,4.81,6.97,10.42,11.02,1.56,1.12,15.03,8.89,24.39,9.02,5.85.08,6.35-1.73,7.12-.78.88,1.08-.41,2.48-1.46,3.41Z"/>
    <path class="cls-6" d="m346.77,173.39c-1.25,1.06-3.2,1.19-4.57,1.25-4.31.2-10.87-1.44-16.22-3.07-6.62-2.01-12.48-5.97-16.85-11.34-.02-.03-.05-.06-.07-.09-2.5-3.08-5.06-6.31-4-8.7.54-1.22,2.02-2.23,3.04-1.93,1.15.34,1.48,2.28,1.66,3.04.88,3.83,4.39,6.37,9.53,10.08,1.42,1.03,13.75,8.13,22.31,8.25,5.35.08,5.8-1.58,6.51-.71.8.98-.36,2.39-1.34,3.22Z"/>
    <circle class="cls-4" cx="208.79" cy="292.87" r=".88"/>
    <path class="cls-6" d="m358.73,135.99c1.26,1.03,3.94-1.13,4.58-.43,1.3,1.42-6.13,9.68-6.13,9.68-32.84,36.52-44.6,41.88-52.73,51.99-1.75,2.17-4.65,6-9.12,8.08-2.33,1.09-4.72-.95-6.99.51-1.29.83-2.58,2.49-2.44,4.4.18,2.36,2.46,3.83,4.04,4.33,2.94.93,5.85-.73,7.35-2.41,1.74-1.95,1.93-4.37,1.99-4.91.88-7.73,18.08-18.54,30.97-29.79,14.98-13.08,16.08-17.52,28.16-29.02,0,0,3.69-3.51,7.43-11.27,2.15-4.46,1.33-5.52,1.1-5.92-1.09-1.94-4.58-3.02-6.86-1.4-2.23,1.58-2.53,5.18-1.35,6.15Z"/>
  </g>
</svg>