<svg width="1512" height="232" viewBox="0 0 1512 232" fill="none" xmlns="http://www.w3.org/2000/svg">
<g filter="url(#filter0_d_394_912)">
<path d="M152.609 159L189.387 74.918H143.723V58.1016H211.945V72.1836L174.074 159H152.609ZM272.681 160.846C263.566 160.846 256.138 159.137 250.396 155.719C244.653 152.255 240.438 147.789 237.749 142.32C235.106 136.806 233.784 131.018 233.784 124.957V92.623C233.784 86.4251 235.083 80.569 237.681 75.0547C240.324 69.4948 244.494 64.9831 250.19 61.5195C255.933 58.0104 263.429 56.2559 272.681 56.2559C279.517 56.2559 285.327 57.2812 290.112 59.332C294.897 61.3828 298.771 64.14 301.733 67.6035C304.741 71.0671 306.929 74.9863 308.296 79.3613C309.663 83.7363 310.347 88.248 310.347 92.8965V124.684C310.347 129.195 309.64 133.616 308.228 137.945C306.815 142.229 304.582 146.103 301.528 149.566C298.521 152.984 294.624 155.719 289.839 157.77C285.099 159.82 279.38 160.846 272.681 160.846ZM272.681 145.465C277.511 145.465 281.226 144.394 283.823 142.252C286.421 140.11 288.198 137.49 289.155 134.391C290.158 131.246 290.659 128.215 290.659 125.299V92.0762C290.659 89.1139 290.181 86.0605 289.224 82.916C288.312 79.7715 286.558 77.1283 283.96 74.9863C281.408 72.7988 277.648 71.7051 272.681 71.7051C267.668 71.7051 263.84 72.7988 261.196 74.9863C258.553 77.1283 256.73 79.7715 255.728 82.916C254.771 86.0605 254.292 89.1139 254.292 92.0762V125.299C254.292 128.215 254.816 131.246 255.864 134.391C256.958 137.49 258.827 140.11 261.47 142.252C264.159 144.394 267.896 145.465 272.681 145.465ZM348.318 113.609C343.078 113.609 338.953 112.538 335.945 110.396C332.983 108.209 330.887 105.178 329.656 101.305C328.426 97.431 327.811 92.8965 327.811 87.7012V84.0781C327.811 76.1029 329.246 69.8822 332.117 65.416C335.034 60.9499 340.434 58.7168 348.318 58.7168C356.203 58.7168 361.649 60.9499 364.656 65.416C367.664 69.8366 369.168 76.0345 369.168 84.0098V87.7012C369.168 95.5397 367.664 101.829 364.656 106.568C361.649 111.262 356.203 113.609 348.318 113.609ZM356.385 159L393.504 60.1523H405.33L368.553 159H356.385ZM348.318 104.723C351.235 104.723 353.377 104.039 354.744 102.672C356.111 101.259 357 99.3451 357.41 96.9297C357.82 94.4688 358.025 91.7116 358.025 88.6582V82.7109C358.025 79.7031 357.843 77.0827 357.479 74.8496C357.114 72.571 356.248 70.7936 354.881 69.5176C353.559 68.2415 351.372 67.6035 348.318 67.6035C345.356 67.6035 343.191 68.2415 341.824 69.5176C340.457 70.748 339.591 72.5026 339.227 74.7812C338.908 77.0143 338.748 79.612 338.748 82.5742V88.6582C338.748 91.7116 338.93 94.4688 339.295 96.9297C339.705 99.3451 340.594 101.259 341.961 102.672C343.328 104.039 345.447 104.723 348.318 104.723ZM413.123 160.299C407.882 160.299 403.758 159.228 400.75 157.086C397.788 154.944 395.669 151.936 394.393 148.062C393.162 144.143 392.547 139.586 392.547 134.391V130.768C392.547 122.792 394.005 116.572 396.922 112.105C399.839 107.639 405.239 105.406 413.123 105.406C421.007 105.406 426.43 107.639 429.393 112.105C432.4 116.526 433.904 122.724 433.904 130.699V134.391C433.904 142.229 432.4 148.518 429.393 153.258C426.43 157.952 421.007 160.299 413.123 160.299ZM413.123 151.412C415.994 151.412 418.113 150.729 419.481 149.361C420.848 147.949 421.736 146.035 422.147 143.619C422.557 141.158 422.762 138.401 422.762 135.348V129.4C422.762 126.393 422.58 123.749 422.215 121.471C421.896 119.192 421.053 117.438 419.686 116.207C418.318 114.931 416.131 114.293 413.123 114.293C410.115 114.293 407.928 114.931 406.561 116.207C405.239 117.438 404.396 119.192 404.031 121.471C403.667 123.704 403.484 126.301 403.484 129.264V135.348C403.484 138.401 403.667 141.158 404.031 143.619C404.441 146.035 405.33 147.949 406.697 149.361C408.065 150.729 410.206 151.412 413.123 151.412Z" fill="#FF1054"/>
</g>
<g filter="url(#filter1_d_394_912)">
<path d="M662.748 159L660.287 143.551L697.68 109.85C701.234 106.66 703.992 103.834 705.951 101.373C707.911 98.9121 709.278 96.4967 710.053 94.127C710.873 91.7116 711.283 89.0684 711.283 86.1973C711.283 81.5033 710.098 77.903 707.729 75.3965C705.359 72.8444 701.348 71.5684 695.697 71.5684C689.226 71.5684 684.646 73.0039 681.957 75.875C679.268 78.7461 677.924 83.8503 677.924 91.1875H657.074C657.074 79.1562 659.945 70.3379 665.688 64.7324C671.475 59.0814 681.182 56.2559 694.809 56.2559C703.467 56.2559 710.44 57.6003 715.727 60.2891C721.013 62.9323 724.864 66.5098 727.279 71.0215C729.74 75.4876 730.971 80.5007 730.971 86.0605C730.971 93.4889 729.193 99.9603 725.639 105.475C722.084 110.943 716.866 116.617 709.984 122.496L685.512 143.482H729.262V159H662.748ZM758.278 159L755.817 143.551L793.21 109.85C796.765 106.66 799.522 103.834 801.481 101.373C803.441 98.9121 804.808 96.4967 805.583 94.127C806.403 91.7116 806.814 89.0684 806.814 86.1973C806.814 81.5033 805.629 77.903 803.259 75.3965C800.889 72.8444 796.879 71.5684 791.228 71.5684C784.756 71.5684 780.176 73.0039 777.487 75.875C774.799 78.7461 773.454 83.8503 773.454 91.1875H752.605C752.605 79.1562 755.476 70.3379 761.218 64.7324C767.006 59.0814 776.713 56.2559 790.339 56.2559C798.998 56.2559 805.97 57.6003 811.257 60.2891C816.543 62.9323 820.394 66.5098 822.81 71.0215C825.271 75.4876 826.501 80.5007 826.501 86.0605C826.501 93.4889 824.724 99.9603 821.169 105.475C817.614 110.943 812.396 116.617 805.515 122.496L781.042 143.482H824.792V159H758.278ZM866.318 113.609C861.078 113.609 856.953 112.538 853.945 110.396C850.983 108.209 848.887 105.178 847.656 101.305C846.426 97.431 845.811 92.8965 845.811 87.7012V84.0781C845.811 76.1029 847.246 69.8822 850.117 65.416C853.034 60.9499 858.434 58.7168 866.318 58.7168C874.203 58.7168 879.649 60.9499 882.656 65.416C885.664 69.8366 887.168 76.0345 887.168 84.0098V87.7012C887.168 95.5397 885.664 101.829 882.656 106.568C879.649 111.262 874.203 113.609 866.318 113.609ZM874.385 159L911.504 60.1523H923.33L886.553 159H874.385ZM866.318 104.723C869.235 104.723 871.377 104.039 872.744 102.672C874.111 101.259 875 99.3451 875.41 96.9297C875.82 94.4688 876.025 91.7116 876.025 88.6582V82.7109C876.025 79.7031 875.843 77.0827 875.479 74.8496C875.114 72.571 874.248 70.7936 872.881 69.5176C871.559 68.2415 869.372 67.6035 866.318 67.6035C863.356 67.6035 861.191 68.2415 859.824 69.5176C858.457 70.748 857.591 72.5026 857.227 74.7812C856.908 77.0143 856.748 79.612 856.748 82.5742V88.6582C856.748 91.7116 856.93 94.4688 857.295 96.9297C857.705 99.3451 858.594 101.259 859.961 102.672C861.328 104.039 863.447 104.723 866.318 104.723ZM931.123 160.299C925.882 160.299 921.758 159.228 918.75 157.086C915.788 154.944 913.669 151.936 912.393 148.062C911.162 144.143 910.547 139.586 910.547 134.391V130.768C910.547 122.792 912.005 116.572 914.922 112.105C917.839 107.639 923.239 105.406 931.123 105.406C939.007 105.406 944.43 107.639 947.393 112.105C950.4 116.526 951.904 122.724 951.904 130.699V134.391C951.904 142.229 950.4 148.518 947.393 153.258C944.43 157.952 939.007 160.299 931.123 160.299ZM931.123 151.412C933.994 151.412 936.113 150.729 937.481 149.361C938.848 147.949 939.736 146.035 940.147 143.619C940.557 141.158 940.762 138.401 940.762 135.348V129.4C940.762 126.393 940.58 123.749 940.215 121.471C939.896 119.192 939.053 117.438 937.686 116.207C936.318 114.931 934.131 114.293 931.123 114.293C928.115 114.293 925.928 114.931 924.561 116.207C923.239 117.438 922.396 119.192 922.031 121.471C921.667 123.704 921.484 126.301 921.484 129.264V135.348C921.484 138.401 921.667 141.158 922.031 143.619C922.441 146.035 923.33 147.949 924.697 149.361C926.065 150.729 928.206 151.412 931.123 151.412Z" fill="#FF1054"/>
</g>
<g filter="url(#filter2_d_394_912)">
<path d="M1212.33 160.504C1203.26 160.504 1196.01 159.273 1190.59 156.812C1185.17 154.306 1181.25 150.934 1178.83 146.695C1176.42 142.411 1175.21 137.649 1175.21 132.408C1175.21 126.393 1177.19 121.129 1181.16 116.617C1185.12 112.06 1190.43 108.437 1197.09 105.748C1193.49 104.107 1190.18 102.216 1187.17 100.074C1184.21 97.8867 1181.82 95.2891 1180 92.2812C1178.22 89.2734 1177.33 85.6732 1177.33 81.4805C1177.33 77.151 1178.49 73.0951 1180.82 69.3125C1183.19 65.4844 1186.95 62.3854 1192.1 60.0156C1197.25 57.6458 1203.99 56.4609 1212.33 56.4609C1221.44 56.4609 1228.55 57.6914 1233.66 60.1523C1238.81 62.5677 1242.43 65.6439 1244.53 69.3809C1246.62 73.1178 1247.67 76.9688 1247.67 80.9336C1247.67 84.7161 1246.74 88.2253 1244.87 91.4609C1243 94.6966 1240.56 97.5221 1237.55 99.9375C1234.59 102.353 1231.43 104.221 1228.05 105.543C1231.97 107.366 1235.57 109.485 1238.85 111.9C1242.18 114.316 1244.82 117.187 1246.78 120.514C1248.79 123.795 1249.79 127.737 1249.79 132.34C1249.79 137.581 1248.56 142.343 1246.1 146.627C1243.64 150.865 1239.67 154.238 1234.21 156.744C1228.74 159.251 1221.44 160.504 1212.33 160.504ZM1196.27 82.3008C1196.27 86.2656 1197.97 89.4785 1201.39 91.9395C1204.86 94.4004 1208.96 96.5879 1213.7 98.502C1217.43 96.998 1220.83 94.9017 1223.88 92.2129C1226.98 89.4785 1228.53 86.3112 1228.53 82.7109C1228.53 80.7057 1228.19 78.7689 1227.51 76.9004C1226.82 75.0319 1225.36 73.4824 1223.13 72.252C1220.9 71.0215 1217.43 70.4062 1212.74 70.4062C1206.5 70.4062 1202.19 71.6139 1199.82 74.0293C1197.45 76.4447 1196.27 79.2018 1196.27 82.3008ZM1212.88 146.217C1217.84 146.217 1221.63 145.556 1224.22 144.234C1226.82 142.913 1228.58 141.113 1229.49 138.834C1230.45 136.51 1230.92 133.912 1230.92 131.041C1230.92 127.031 1229.01 123.567 1225.18 120.65C1221.4 117.734 1216.96 115.227 1211.85 113.131C1205.84 115.364 1201.35 118.053 1198.38 121.197C1195.42 124.296 1193.94 127.577 1193.94 131.041C1193.94 133.912 1194.47 136.51 1195.51 138.834C1196.61 141.113 1198.52 142.913 1201.26 144.234C1204.04 145.556 1207.91 146.217 1212.88 146.217ZM1288.79 113.609C1283.55 113.609 1279.42 112.538 1276.42 110.396C1273.45 108.209 1271.36 105.178 1270.13 101.305C1268.9 97.431 1268.28 92.8965 1268.28 87.7012V84.0781C1268.28 76.1029 1269.72 69.8822 1272.59 65.416C1275.5 60.9499 1280.9 58.7168 1288.79 58.7168C1296.67 58.7168 1302.12 60.9499 1305.13 65.416C1308.13 69.8366 1309.64 76.0345 1309.64 84.0098V87.7012C1309.64 95.5397 1308.13 101.829 1305.13 106.568C1302.12 111.262 1296.67 113.609 1288.79 113.609ZM1296.85 159L1333.97 60.1523H1345.8L1309.02 159H1296.85ZM1288.79 104.723C1291.7 104.723 1293.85 104.039 1295.21 102.672C1296.58 101.259 1297.47 99.3451 1297.88 96.9297C1298.29 94.4688 1298.5 91.7116 1298.5 88.6582V82.7109C1298.5 79.7031 1298.31 77.0827 1297.95 74.8496C1297.58 72.571 1296.72 70.7936 1295.35 69.5176C1294.03 68.2415 1291.84 67.6035 1288.79 67.6035C1285.83 67.6035 1283.66 68.2415 1282.29 69.5176C1280.93 70.748 1280.06 72.5026 1279.7 74.7812C1279.38 77.0143 1279.22 79.612 1279.22 82.5742V88.6582C1279.22 91.7116 1279.4 94.4688 1279.76 96.9297C1280.17 99.3451 1281.06 101.259 1282.43 102.672C1283.8 104.039 1285.92 104.723 1288.79 104.723ZM1353.59 160.299C1348.35 160.299 1344.23 159.228 1341.22 157.086C1338.26 154.944 1336.14 151.936 1334.86 148.062C1333.63 144.143 1333.02 139.586 1333.02 134.391V130.768C1333.02 122.792 1334.47 116.572 1337.39 112.105C1340.31 107.639 1345.71 105.406 1353.59 105.406C1361.48 105.406 1366.9 107.639 1369.86 112.105C1372.87 116.526 1374.37 122.724 1374.37 130.699V134.391C1374.37 142.229 1372.87 148.518 1369.86 153.258C1366.9 157.952 1361.48 160.299 1353.59 160.299ZM1353.59 151.412C1356.46 151.412 1358.58 150.729 1359.95 149.361C1361.32 147.949 1362.21 146.035 1362.62 143.619C1363.03 141.158 1363.23 138.401 1363.23 135.348V129.4C1363.23 126.393 1363.05 123.749 1362.68 121.471C1362.37 119.192 1361.52 117.438 1360.16 116.207C1358.79 114.931 1356.6 114.293 1353.59 114.293C1350.58 114.293 1348.4 114.931 1347.03 116.207C1345.71 117.438 1344.87 119.192 1344.5 121.471C1344.14 123.704 1343.95 126.301 1343.95 129.264V135.348C1343.95 138.401 1344.14 141.158 1344.5 143.619C1344.91 146.035 1345.8 147.949 1347.17 149.361C1348.53 150.729 1350.68 151.412 1353.59 151.412Z" fill="#FF1054"/>
</g>
<path d="M1512 231.5L0 208.5V128.5C0 128.5 52.203 173.965 150.587 154.963C241 137.5 293 150 362.63 161.452C432.26 172.904 479 222 604 180.5C680.307 155.166 714.767 139.143 840.5 148.5C948 156.5 951.5 190 1037.5 190C1123.5 190 1165.29 164.546 1220 151.5C1350 120.5 1407.5 209.5 1512 140.984V231.5Z" fill="#9DE6ED"/>
<defs>
<filter id="filter0_d_394_912" x="126.723" y="55.2559" width="308.182" height="122.59" filterUnits="userSpaceOnUse" color-interpolation-filters="sRGB">
<feFlood flood-opacity="0" result="BackgroundImageFix"/>
<feColorMatrix in="SourceAlpha" type="matrix" values="0 0 0 0 0 0 0 0 0 0 0 0 0 0 0 0 0 0 127 0" result="hardAlpha"/>
<feOffset dx="-8" dy="8"/>
<feGaussianBlur stdDeviation="4.5"/>
<feComposite in2="hardAlpha" operator="out"/>
<feColorMatrix type="matrix" values="0 0 0 0 0 0 0 0 0 0 0 0 0 0 0 0 0 0 0.25 0"/>
<feBlend mode="normal" in2="BackgroundImageFix" result="effect1_dropShadow_394_912"/>
<feBlend mode="normal" in="SourceGraphic" in2="effect1_dropShadow_394_912" result="shape"/>
</filter>
<filter id="filter1_d_394_912" x="640.074" y="55.2559" width="312.83" height="122.043" filterUnits="userSpaceOnUse" color-interpolation-filters="sRGB">
<feFlood flood-opacity="0" result="BackgroundImageFix"/>
<feColorMatrix in="SourceAlpha" type="matrix" values="0 0 0 0 0 0 0 0 0 0 0 0 0 0 0 0 0 0 127 0" result="hardAlpha"/>
<feOffset dx="-8" dy="8"/>
<feGaussianBlur stdDeviation="4.5"/>
<feComposite in2="hardAlpha" operator="out"/>
<feColorMatrix type="matrix" values="0 0 0 0 0 0 0 0 0 0 0 0 0 0 0 0 0 0 0.25 0"/>
<feBlend mode="normal" in2="BackgroundImageFix" result="effect1_dropShadow_394_912"/>
<feBlend mode="normal" in="SourceGraphic" in2="effect1_dropShadow_394_912" result="shape"/>
</filter>
<filter id="filter2_d_394_912" x="1158.21" y="55.4609" width="217.164" height="122.043" filterUnits="userSpaceOnUse" color-interpolation-filters="sRGB">
<feFlood flood-opacity="0" result="BackgroundImageFix"/>
<feColorMatrix in="SourceAlpha" type="matrix" values="0 0 0 0 0 0 0 0 0 0 0 0 0 0 0 0 0 0 127 0" result="hardAlpha"/>
<feOffset dx="-8" dy="8"/>
<feGaussianBlur stdDeviation="4.5"/>
<feComposite in2="hardAlpha" operator="out"/>
<feColorMatrix type="matrix" values="0 0 0 0 0 0 0 0 0 0 0 0 0 0 0 0 0 0 0.25 0"/>
<feBlend mode="normal" in2="BackgroundImageFix" result="effect1_dropShadow_394_912"/>
<feBlend mode="normal" in="SourceGraphic" in2="effect1_dropShadow_394_912" result="shape"/>
</filter>
</defs>
</svg>
