<svg width="313" height="123" viewBox="0 0 313 123" fill="none" xmlns="http://www.w3.org/2000/svg">
<g filter="url(#filter0_d_401_917)">
<path d="M22.748 104L20.2871 88.5508L57.6797 54.8496C61.2344 51.6595 63.9915 48.834 65.9512 46.373C67.9108 43.9121 69.278 41.4967 70.0527 39.127C70.873 36.7116 71.2832 34.0684 71.2832 31.1973C71.2832 26.5033 70.0983 22.903 67.7285 20.3965C65.3587 17.8444 61.3483 16.5684 55.6973 16.5684C49.2259 16.5684 44.6458 18.0039 41.957 20.875C39.2682 23.7461 37.9238 28.8503 37.9238 36.1875H17.0742C17.0742 24.1562 19.9453 15.3379 25.6875 9.73242C31.4753 4.08138 41.1823 1.25586 54.8086 1.25586C63.4674 1.25586 70.4401 2.60026 75.7266 5.28906C81.013 7.93229 84.8639 11.5098 87.2793 16.0215C89.7402 20.4876 90.9707 25.5007 90.9707 31.0605C90.9707 38.4889 89.1934 44.9603 85.6387 50.4746C82.084 55.9434 76.8659 61.6172 69.9844 67.4961L45.5117 88.4824H89.2617V104H22.748ZM118.278 104L115.817 88.5508L153.21 54.8496C156.765 51.6595 159.522 48.834 161.481 46.373C163.441 43.9121 164.808 41.4967 165.583 39.127C166.403 36.7116 166.814 34.0684 166.814 31.1973C166.814 26.5033 165.629 22.903 163.259 20.3965C160.889 17.8444 156.879 16.5684 151.228 16.5684C144.756 16.5684 140.176 18.0039 137.487 20.875C134.799 23.7461 133.454 28.8503 133.454 36.1875H112.605C112.605 24.1562 115.476 15.3379 121.218 9.73242C127.006 4.08138 136.713 1.25586 150.339 1.25586C158.998 1.25586 165.97 2.60026 171.257 5.28906C176.543 7.93229 180.394 11.5098 182.81 16.0215C185.271 20.4876 186.501 25.5007 186.501 31.0605C186.501 38.4889 184.724 44.9603 181.169 50.4746C177.614 55.9434 172.396 61.6172 165.515 67.4961L141.042 88.4824H184.792V104H118.278ZM226.318 58.6094C221.078 58.6094 216.953 57.5384 213.945 55.3965C210.983 53.209 208.887 50.1784 207.656 46.3047C206.426 42.431 205.811 37.8965 205.811 32.7012V29.0781C205.811 21.1029 207.246 14.8822 210.117 10.416C213.034 5.94987 218.434 3.7168 226.318 3.7168C234.203 3.7168 239.649 5.94987 242.656 10.416C245.664 14.8366 247.168 21.0345 247.168 29.0098V32.7012C247.168 40.5397 245.664 46.8288 242.656 51.5684C239.649 56.2624 234.203 58.6094 226.318 58.6094ZM234.385 104L271.504 5.15234H283.33L246.553 104H234.385ZM226.318 49.7227C229.235 49.7227 231.377 49.0391 232.744 47.6719C234.111 46.2591 235 44.3451 235.41 41.9297C235.82 39.4688 236.025 36.7116 236.025 33.6582V27.7109C236.025 24.7031 235.843 22.0827 235.479 19.8496C235.114 17.571 234.248 15.7936 232.881 14.5176C231.559 13.2415 229.372 12.6035 226.318 12.6035C223.356 12.6035 221.191 13.2415 219.824 14.5176C218.457 15.748 217.591 17.5026 217.227 19.7812C216.908 22.0143 216.748 24.612 216.748 27.5742V33.6582C216.748 36.7116 216.93 39.4688 217.295 41.9297C217.705 44.3451 218.594 46.2591 219.961 47.6719C221.328 49.0391 223.447 49.7227 226.318 49.7227ZM291.123 105.299C285.882 105.299 281.758 104.228 278.75 102.086C275.788 99.944 273.669 96.9362 272.393 93.0625C271.162 89.1432 270.547 84.5859 270.547 79.3906V75.7676C270.547 67.7923 272.005 61.5716 274.922 57.1055C277.839 52.6393 283.239 50.4062 291.123 50.4062C299.007 50.4062 304.43 52.6393 307.393 57.1055C310.4 61.526 311.904 67.724 311.904 75.6992V79.3906C311.904 87.2292 310.4 93.5182 307.393 98.2578C304.43 102.952 299.007 105.299 291.123 105.299ZM291.123 96.4121C293.994 96.4121 296.113 95.7285 297.481 94.3613C298.848 92.9486 299.736 91.0345 300.147 88.6191C300.557 86.1582 300.762 83.401 300.762 80.3477V74.4004C300.762 71.3926 300.58 68.7493 300.215 66.4707C299.896 64.1921 299.053 62.4375 297.686 61.207C296.318 59.931 294.131 59.293 291.123 59.293C288.115 59.293 285.928 59.931 284.561 61.207C283.239 62.4375 282.396 64.1921 282.031 66.4707C281.667 68.7038 281.484 71.3014 281.484 74.2637V80.3477C281.484 83.401 281.667 86.1582 282.031 88.6191C282.441 91.0345 283.33 92.9486 284.697 94.3613C286.065 95.7285 288.206 96.4121 291.123 96.4121Z" fill="#FF1054"/>
</g>
<defs>
<filter id="filter0_d_401_917" x="0.0742188" y="0.255859" width="312.83" height="122.043" filterUnits="userSpaceOnUse" color-interpolation-filters="sRGB">
<feFlood flood-opacity="0" result="BackgroundImageFix"/>
<feColorMatrix in="SourceAlpha" type="matrix" values="0 0 0 0 0 0 0 0 0 0 0 0 0 0 0 0 0 0 127 0" result="hardAlpha"/>
<feOffset dx="-8" dy="8"/>
<feGaussianBlur stdDeviation="4.5"/>
<feComposite in2="hardAlpha" operator="out"/>
<feColorMatrix type="matrix" values="0 0 0 0 0 0 0 0 0 0 0 0 0 0 0 0 0 0 0.25 0"/>
<feBlend mode="normal" in2="BackgroundImageFix" result="effect1_dropShadow_401_917"/>
<feBlend mode="normal" in="SourceGraphic" in2="effect1_dropShadow_401_917" result="shape"/>
</filter>
</defs>
</svg>
