<svg width="75" height="75" viewBox="0 0 75 75" fill="none" xmlns="http://www.w3.org/2000/svg">
<g clip-path="url(#clip0_420_1090)">
<path d="M35.1563 0C36.7188 0 38.2813 0 39.8438 0C40.0313 0.0410156 40.2168 0.105469 40.4082 0.119141C46.0684 0.542969 51.3848 2.12891 56.252 5.03906C66.1856 10.9746 72.2852 19.6367 74.4238 31.0371C74.6797 32.3984 74.8106 33.7832 74.9981 35.1562V39.8438C74.9571 40.0332 74.8906 40.2187 74.877 40.4102C74.3828 46.8398 72.3985 52.7773 68.7988 58.1191C62.8242 66.9863 54.5625 72.4512 44.0293 74.418C42.6465 74.6758 41.2383 74.8086 39.8418 75H35.1543C34.9668 74.959 34.7813 74.8945 34.5918 74.8789C27.1211 74.2832 20.3965 71.7246 14.5078 67.0957C6.92969 61.1387 2.25195 53.3984 0.558594 43.8906C0.322266 42.5508 0.183594 41.1934 0 39.8438C0 38.2812 0 36.7188 0 35.1562C0.107422 34.2637 0.201172 33.3711 0.326172 32.4805C1.39844 24.8535 4.4668 18.1348 9.63672 12.4277C15.4277 6.03516 22.5879 2.04297 31.1113 0.566406C32.4531 0.333984 33.8086 0.185547 35.1563 0ZM34.4609 42.416C34.6738 42.7187 34.8418 42.9512 35.0039 43.1875C38.6094 48.4355 42.2188 53.6797 45.8106 58.9375C46.086 59.3418 46.3672 59.5156 46.8692 59.5117C50.6778 59.4902 54.4844 59.5 58.293 59.498C58.4961 59.498 58.7012 59.4688 59.0098 59.4434C53.166 50.9375 47.3867 42.5234 41.6035 34.1074C46.9434 27.8984 52.2363 21.7441 57.6543 15.4453C56.6094 15.4453 55.7383 15.4902 54.8731 15.4316C54.1485 15.3828 53.666 15.627 53.1934 16.1836C49.7637 20.2188 46.3008 24.2266 42.8477 28.2402C41.8828 29.3633 40.9141 30.4824 39.916 31.6387C39.709 31.3418 39.541 31.1035 39.375 30.8633C35.9746 25.918 32.5723 20.9746 29.1836 16.0215C28.9121 15.623 28.6367 15.4277 28.125 15.4316C24.3164 15.4551 20.5098 15.4434 16.7012 15.4473C16.4941 15.4473 16.2891 15.4766 15.9766 15.502C21.6152 23.7109 27.1875 31.8223 32.7695 39.9473C27.166 46.4629 21.6133 52.9199 15.9531 59.5C17.1289 59.5 18.1035 59.4766 19.0762 59.5098C19.5606 59.5273 19.8809 59.3691 20.1973 59C23.6699 54.9375 27.1582 50.8887 30.6445 46.8359C31.8984 45.3789 33.1543 43.9238 34.4551 42.416H34.4609Z" fill="#EDF6FF"/>
<path d="M53.8203 56.7851C51.8867 56.7851 50.0898 56.8065 48.293 56.7597C48.0605 56.7538 47.7813 56.4355 47.6152 56.1972C42.1699 48.4276 36.7363 40.6503 31.3008 32.8749C28.0859 28.2773 24.8711 23.6815 21.6582 19.0839C21.5078 18.869 21.3672 18.6483 21.1426 18.3105C22.752 18.3105 24.252 18.3749 25.7441 18.287C26.6641 18.2323 27.168 18.5663 27.6855 19.3085C36.2109 31.5605 44.7715 43.787 53.3223 56.0214C53.4688 56.2304 53.6035 56.4491 53.8203 56.7831V56.7851Z" fill="#EDF6FF"/>
</g>
<defs>
<clipPath id="clip0_420_1090">
<rect width="75" height="75" fill="white"/>
</clipPath>
</defs>
</svg>
