<svg width="75" height="75" viewBox="0 0 75 75" fill="none" xmlns="http://www.w3.org/2000/svg">
<path d="M35.296 0C36.8096 0 38.3232 0 39.8369 0C40.0243 0.0410146 40.2099 0.105466 40.4013 0.119138C46.034 0.542955 51.3287 2.11713 56.1821 5.00378C66.1545 10.9353 72.2696 19.6108 74.418 31.0363C74.6738 32.3976 74.8047 33.7804 74.9941 35.1553V39.6962C74.9531 39.9306 74.9023 40.165 74.8691 40.4013C74.666 41.8739 74.5371 43.3602 74.2539 44.8172C71.3341 59.9164 59.1196 71.8438 43.95 74.4238C42.5868 74.6563 41.2079 74.8086 39.8369 75H35.1495C34.9874 74.959 34.8292 74.8906 34.6651 74.8789C31.4875 74.6524 28.3743 74.0684 25.388 72.961C11.7692 67.9162 3.50577 58.2524 0.587875 44.0301C0.304679 42.6512 0.187495 41.2392 -0.00585938 39.8427C-0.00585938 38.2803 -0.00585938 36.7178 -0.00585938 35.1553C0.183589 33.7823 0.333976 32.4034 0.568344 31.0402C3.17765 15.8433 15.0777 3.6542 30.1672 0.738262C31.8605 0.412099 33.5851 0.242181 35.296 0ZM36.4971 51.2916C40.0907 51.151 42.6532 51.0944 45.2098 50.9362C47.032 50.8229 48.8874 50.7506 50.6569 50.3463C53.3092 49.7389 55.1665 48.2253 55.6157 45.2781C56.3579 40.3915 56.4673 35.5147 55.7544 30.6222C55.5513 29.2258 55.4087 27.8079 54.3443 26.7044C53.0865 25.4036 51.5592 24.6537 49.78 24.4583C43.2372 23.7377 36.6787 23.6244 30.1144 24.0462C28.1946 24.1693 26.2435 24.2474 24.3744 24.6478C21.9389 25.1712 19.9878 26.4642 19.4936 29.1731C18.5308 34.4561 18.5151 39.749 19.3452 45.0535C19.5581 46.4129 19.9253 47.6648 20.9897 48.6218C22.1693 49.6823 23.5404 50.3932 25.1068 50.5163C29.2395 50.8444 33.38 51.0807 36.4971 51.2877V51.2916Z" fill="#EDF6FF"/>
<path d="M33.0557 30.3428C36.9657 32.7431 40.7781 35.0848 44.7097 37.4988C40.7937 39.905 36.9716 42.2546 33.0557 44.6627V30.3428Z" fill="#EDF6FF"/>
</svg>
