<?xml version="1.0" encoding="UTF-8"?>
<svg id="Layer_1" data-name="Layer 1" xmlns="http://www.w3.org/2000/svg" viewBox="0 0 1659.32 307.26">
  <defs>
    <style>
      .cls-1 {
        fill: #70727e;
      }

      .cls-1, .cls-2, .cls-3, .cls-4, .cls-5, .cls-6 {
        stroke-width: 0px;
      }

      .cls-2 {
        fill: #d8dce5;
      }

      .cls-3 {
        fill: #a2a6b4;
      }

      .cls-4 {
        fill: #fe7098;
      }

      .cls-5 {
        fill: #ff4076;
      }

      .cls-6 {
        fill: #c9cdd6;
      }
    </style>
  </defs>
  <path class="cls-3" d="m1450.11,263c4.2,2.81,13.57-9.92,21.41-6.98,3.82,1.43,3.65,5.22,8.54,6.78,3.92,1.24,7.59-.06,10.28-1.05,9.54-3.52,10.78-10.27,16.27-10.15,2.18.05,2.61,1.12,9.51,6.75,11.01,8.97,12.97,8.73,15.91,13.2,1.55,2.37,5.85,8.91,3.89,14.68-3.13,9.21-21.38,14.11-34.37,9.46-7.38-2.64-9.45-7.08-17.31-7.52-6.25-.35-7.6,2.3-14.88,3.5-10.49,1.73-25.1-.91-28.03-8.21-2.66-6.63,5-15.37,1.46-18.52-1.77-1.57-5.04-.58-5.7-2.38-.61-1.68,1.43-4.7,1.43-4.71h0s2.8-.08,5.22-1.3c.47-.24,1.37-.7,2.26-1.61,1.38-1.4,1.53-2.61,1.9-2.58,1,.07-.78,8.63,2.22,10.64Z"/>
  <path class="cls-2" d="m1145.45,163.53c1.07-1.92,30.96,20.31,71.5,30.38,24.62,6.12,34.95,3.23,54.61,14.4,16.04,9.11,28.33,21.92,27.09,23.83-.51.78-3.42-.1-3.99,1.16-.58,1.29,2.14,2.98,1.57,4.59-.49,1.37-2.68.73-4.04,2.61-.97,1.35-.17,2.13-1.31,3.74-.99,1.39-2.12,1.55-2.14,2.54-.02.82.72,1.51,1.15,1.91,1,.94,1.97,1.05,1.94,1.27-.06.53-5.33-.54-6.17,1.07-.89,1.7,3.87,5.1,2.94,6.83-.76,1.41-4.43.04-5.31,1.54-1.05,1.8,3.16,5.57,2.21,6.8-.78,1.01-4.21-.85-4.97.24-.62.89,1.26,2.73.59,3.67-.65.92-2.8-.32-3.67.59-1.29,1.34,1.95,5.5.76,6.74-1.04,1.08-4.51-1.06-5.1-.2-.57.82,2.35,3.17,1.73,4.3-.66,1.21-4.54-.57-5.73.94-1.14,1.44,1.38,4.31.21,5.7-1.07,1.27-4.02-.14-4.56.84-.64,1.16,3.08,3.86,2.43,5.06-.53.97-3.3-.27-4.27,1-.92,1.2.8,3.29-.17,4.37-.82.91-2.61.04-3.05.81-.54.95,1.92,2.9,1.41,3.75-.49.81-3.01-.46-3.71.44-.87,1.1,2.15,4.07,1.25,5.4-.77,1.12-3.69.14-3.92.82-.26.75,3.23,2.25,2.99,3.13-.26.94-4.37-.25-5.51,1.44-1.12,1.68,1.7,4.67.85,5.68-1.14,1.34-7.4-2.33-7.4-2.33-.06-.03-9.62-3.06-28.74-9.1-18.82-5.95-22.46-5.51-43.61-11.83-35.85-10.7-45-17.81-50.83-23.98-7.04-7.46-12.75-17.25-11.39-18.54.79-.75,4.13,1.18,4.66.33.44-.7-1.69-2.18-1.25-3.48.51-1.5,3.88-1.03,4.17-2.17.38-1.46-4.78-3.54-4.41-4.84.3-1.06,3.87-.22,4.74-1.86.82-1.54-1.53-3.8-.76-4.7.82-.97,4.05,1.05,4.74.19.78-.98-2.9-4.22-2.04-5.77.93-1.67,6.34.02,6.68-.98.32-.95-4.51-2.89-4.21-4.18.36-1.58,8-.53,8.32-1.94.35-1.5-7.95-4.52-7.67-5.34.25-.73,6.92,1.42,7.67-.06.74-1.47-4.93-5.32-4.19-6.59.63-1.1,5.42.78,5.84-.14.38-.82-3.32-2.51-3.04-4.28.33-2.1,5.97-2.37,5.99-3.78.01-1.3-4.81-2.16-4.7-2.96.11-.83,5.35.13,6.42-1.86,1.22-2.28-3.87-6.75-2.9-7.92.83-1.01,5.13,1.6,5.74.74.65-.92-3.85-4.42-3.05-5.96.76-1.46,5.58.21,6.17-1.07.65-1.42-4.63-4.72-4.08-5.78.62-1.19,7.83,1.95,8.59.63.72-1.26-5.1-5.38-4.42-6.52.68-1.14,7.2,1.85,7.62,1.03.42-.83-5.83-4.59-5.41-5.39.36-.69,5.16,1.63,5.74.74.78-1.2-7.1-6.72-6.56-7.7Z"/>
  <path class="cls-2" d="m236.09,295.9c.86.47,9.4,5.04,11.52,2.69,1.74-1.93-1.64-7.59-2.83-9.58-2.9-4.86-8.3-11.75-23.15-21.35-8.86-5.72-14.49-8.15-14.82-13.11-.18-2.71,1.44-3.01,1.53-6.41.23-8.63-9.92-14.93-11.32-15.8-3.3-2.05-6.71-3.19-6.99-2.73-.36.59,3.87,3.92,6.3,5.98.96.81,2.84,2.45,3.77,4.16.56,1.04,1.31,4.33.54,4.89-1.22.9-6.18-3.5-8.62-5.58-5.82-4.98-8.83-9.27-9.4-8.89-.35.24.42,2.2,1.37,3.92,2.47,4.49,5.42,6.19,10.5,12.17,1.16,1.37,2.13,2.6,1.78,3.13-.39.59-2.41.45-3.73-.14-4.51-2.01-6.01-6.32-10.94-12.1-.74-.87-1.62-1.37-1.89-1.18-.57.41,1.44,4.12,2.53,6.12,3.86,7.09,5.79,10.63,8.43,12.1,4,2.22,6.1.11,10.45,2.63,3.37,1.94,5,4.86,5.94,6.49,3.49,6.02,14.24,24.58,29.02,32.61Z"/>
  <path class="cls-2" d="m1547.92,143.34c.86.47,9.4,5.04,11.52,2.69,1.74-1.93-1.64-7.59-2.83-9.58-2.9-4.86-8.3-11.75-23.15-21.35-8.86-5.72-14.49-8.15-14.82-13.11-.18-2.71,1.44-3.01,1.53-6.41.23-8.63-9.92-14.93-11.32-15.8-3.3-2.05-6.71-3.19-6.99-2.73-.36.59,3.87,3.92,6.3,5.98.96.81,2.84,2.45,3.77,4.16.56,1.04,1.31,4.33.54,4.89-1.22.9-6.18-3.5-8.62-5.58-5.82-4.98-8.83-9.27-9.4-8.89-.35.24.42,2.2,1.37,3.92,2.47,4.49,5.42,6.19,10.5,12.17,1.16,1.37,2.13,2.6,1.78,3.13-.39.59-2.41.45-3.73-.14-4.51-2.01-6.01-6.32-10.94-12.1-.74-.87-1.62-1.37-1.89-1.18-.57.41,1.44,4.12,2.53,6.12,3.86,7.09,5.79,10.63,8.43,12.1,4,2.22,6.1.11,10.45,2.63,3.37,1.94,5,4.86,5.94,6.49,3.49,6.02,14.24,24.58,29.02,32.61Z"/>
  <g>
    <path class="cls-2" d="m935.53,313.2c-2.17.35-3.13-36.9-20.22-75.01-10.38-23.15-19.03-29.49-22.37-51.85-2.73-18.25-.23-35.82,2.03-36.02.93-.08,2.04,2.75,3.37,2.42,1.37-.34,1.02-3.53,2.64-4.07,1.38-.46,2.23,1.66,4.55,1.57,1.67-.07,1.78-1.18,3.76-1.28,1.71-.08,2.53.71,3.32.12.65-.49.74-1.5.8-2.08.12-1.37-.39-2.19-.19-2.31.46-.28,2.87,4.53,4.65,4.19,1.89-.35,1.63-6.19,3.56-6.53,1.58-.28,2.77,3.46,4.49,3.23,2.07-.28,2.44-5.92,3.98-5.94,1.28-.01,1.93,3.84,3.26,3.76,1.09-.06,1.37-2.67,2.53-2.73,1.13-.05,1.47,2.4,2.73,2.53,1.85.19,3.12-4.94,4.84-4.76,1.49.15,1.95,4.2,2.99,4.14,1-.06,1.05-3.8,2.32-4.01,1.36-.23,2.35,3.92,4.28,3.93,1.83,0,2.54-3.75,4.35-3.69,1.66.06,2.37,3.25,3.48,3.07,1.31-.22,1.14-4.81,2.48-5.03,1.09-.18,1.82,2.76,3.42,2.74,1.52-.01,2.09-2.66,3.55-2.56,1.23.08,1.65,2.03,2.51,1.9,1.09-.16,1.1-3.3,2.08-3.43.93-.12,1.5,2.65,2.64,2.65,1.4,0,1.87-4.21,3.48-4.32,1.36-.09,2.39,2.82,3.07,2.58.75-.26-.23-3.93.62-4.29.9-.38,2.5,3.6,4.53,3.44,2.01-.15,2.62-4.23,3.94-4.17,1.76.07,2.73,7.26,2.73,7.26,0,.07,3.53,9.45,10.57,28.23,6.93,18.48,9.52,21.07,17.61,41.62,13.71,34.81,13.76,46.4,12.5,54.79-1.52,10.15-5.7,20.68-7.56,20.41-1.08-.16-1.62-3.97-2.62-3.87-.82.09-.67,2.68-1.97,3.13-1.49.52-3.2-2.41-4.28-1.94-1.38.6.17,5.95-1.09,6.46-1.02.41-2.56-2.91-4.39-2.59-1.72.3-2.04,3.55-3.23,3.5-1.27-.05-1.68-3.83-2.78-3.84-1.25,0-1.53,4.89-3.28,5.16-1.88.3-3.9-5-4.89-4.65-.95.33.51,5.33-.69,5.9-1.47.69-5.36-5.97-6.66-5.35-1.39.65,1.35,9.04.54,9.33-.73.26-3.15-6.32-4.78-5.99-1.61.32-1.14,7.16-2.59,7.36-1.25.18-2.73-4.75-3.71-4.51-.88.21.07,4.16-1.49,5.04-1.85,1.04-5.55-3.24-6.67-2.38-1.03.79,1.27,5.12.57,5.52-.73.43-3.2-4.29-5.43-3.9-2.55.45-2.92,7.21-4.44,7.17-1.31-.03-1.91-5.02-2.96-4.97-1.12.06-1.1,5.76-2.8,6.08-1.62.3-3.28-4.52-4.65-4.19-1.52.36-.85,6.56-2.03,6.78-1.32.25-3.3-7.37-4.81-7.14-1.43.21-1.09,7.33-2.41,7.5-1.32.17-2.99-6.81-3.9-6.63-.91.18-.02,7.42-.91,7.58-.76.14-1.9-5.06-2.96-4.97-1.43.13-.91,9.74-2.01,9.91Z"/>
    <path class="cls-3" d="m986.24,249.36c-5.96-.76-8.33-9.39-8.9-11.49-2.24-8.15-.26-19.15,4.92-20.56,4.06-1.11,8.63,4.08,10.06,5.69.84.95,8.49,9.89,4.61,18.56-1.71,3.83-6.02,8.38-10.68,7.79Z"/>
    <path class="cls-3" d="m938.78,246.41c-10.59-10.31-2.46-30.8-.48-35.78,7.68-19.35,27.88-38.03,40.15-33.14,9.62,3.84,10.92,20.81,11.33,26.1.24,3.1,2.02,32.02-18.46,43.33-9.04,4.99-24.26,7.56-32.54-.51Z"/>
    <path class="cls-1" d="m948.03,212.61c-2.66,7.65,2.63,20.01,10.7,21.17,5.06.73,9.38-3.21,12.76-6.3,4.08-3.73,8.18-9.56,6.85-11.21-1.58-1.96-8.4,4.89-15.46,2.49-6.57-2.24-8.36-10.79-11.86-10.05-1.76.37-2.61,2.82-2.99,3.91Z"/>
  </g>
  <g>
    <path class="cls-2" d="m1070.03,113.26c5.11-3.8,13.79.21,31.16,8.22,18.55,8.56,20.22,12.49,20.69,14.74.68,3.25-.57,5.65-7.33,16.28-16.34,25.68-17.87,25.59-21.66,34.02-4.79,10.64-3.96,14.36-8.42,16.69-7.05,3.67-17.29-1.33-25.49-5.33-4.39-2.14-6.61-3.26-7.9-5.6-2.99-5.39,1.18-11.26,5.56-22.45,6.67-17.04,9.01-34.13,9.55-38.07,1.72-12.53.49-16.02,3.84-18.5Z"/>
    <path class="cls-3" d="m1120.59,137.75c2.72-3.69-11.78-12.33-25.02-17.66-10.21-4.11-19.12-9.49-24.78-5.2-3.21,2.43,19.37,16.87,31.76,21.51,7.3,2.74,16.87,2.95,18.04,1.35Z"/>
  </g>
  <path class="cls-4" d="m1590.01,305.25c7.72,2.59,28.04-17.42,37.08-42.27,9.58-26.33-6.45-26.8-.37-58.4,3.72-19.35,9.31-27.16,6.67-43.94-1.54-9.82-4.02-10.75-5.56-23.36-1.54-12.59.21-17.64-1.67-32.26-1.21-9.48-2.58-20.11-6.12-20.58-3.57-.47-9.15,9.43-10.57,19.47-1.57,11.14,3.17,14.07,5.01,31.7,1.04,9.98.45,17.92,0,23.92-1.21,16.14-3.65,15.46-3.89,27.81-.25,12.53,2.13,19.59-2.22,22.8-2.21,1.63-5.56,1.82-7.79.56-4.16-2.35-4.05-9.53-3.89-15.02.46-16.5,6.96-19.86,4.45-28.92-2.11-7.62-7.09-6.62-8.9-14.46-2.06-8.9,3.93-12.08,3.34-22.8-.53-9.48-5.35-9.69-6.67-18.91-1.52-10.65,4.52-13.04,8.34-30.03,1.92-8.53,4.61-21.29-1.67-32.26-3.02-5.27-8.75-11.26-12.24-10.01-3.35,1.2-3.95,8.79-3.34,13.91,1.24,10.31,7.59,11.86,8.34,20.02.65,7-3.87,7.67-8.34,20.58-3.04,8.78-6.15,17.75-3.34,27.25,2.42,8.16,7.61,11.36,6.12,17.8-1.04,4.5-3.89,4.29-5.01,8.9-1.87,7.72,5.29,11.73,3.34,18.35-1.29,4.38-6.03,8.1-10.01,7.79-6.1-.48-11.16-10.5-10.57-18.91.66-9.41,8.01-11.12,7.79-19.47-.21-7.7-6.51-7.77-9.46-17.8-2.77-9.43,1.91-12.41-.56-26.14-.87-4.83-2.27-12.6-6.12-13.35-3.44-.67-7.62,4.52-9.46,8.9-1.43,3.4-1.85,7.26,0,16.69,2.7,13.78,5.48,15.19,6.67,24.47.96,7.51,0,13.3-1.11,20.02-2.78,16.77-7.46,17.74-6.12,25.59,2.13,12.43,15.93,21.92,17.24,22.8,5.72,3.84,10.31,4.85,11.68,9.46,1.63,5.49-2.81,11.05-3.34,11.68-8.49,10.32-29.94,8.81-33.37,1.67-2.39-4.98,5.43-9.64,3.34-18.35-1.37-5.71-5.11-5.25-8.9-12.79-3.84-7.64-1-10.08-4.45-20.02-3.65-10.53-7.69-10.25-7.79-16.13-.15-9.34,10.01-11.44,11.68-21.69,1.84-11.32-8.12-23.74-12.24-22.8-3.08.7-1.03,8.42-6.12,25.59-3.18,10.73-5.41,12.52-4.45,17.8,1.51,8.29,7.92,8.95,8.9,17.24.87,7.36-3.9,9.25-2.22,16.13,1.51,6.21,5.81,6.37,6.67,12.24.73,4.94-2.08,6.43-3.89,13.91-2.15,8.87-.53,16.44,0,18.91,2.56,11.95,9.23,16.04,7.23,18.91-2.35,3.38-14.4,1.73-17.8-4.45-2.6-4.72,1.44-9.19-1.67-13.35-2.29-3.07-7.31-4.41-11.12-2.78-4.68,2-6.44,8-5.56,12.24,1.02,4.94,5.15,5.11,10.01,12.24,4.26,6.23,2.38,7.97,5.56,11.68,6.56,7.64,22.32,9.34,29.48,2.78,4.82-4.41,3.65-10.65,6.67-11.12,3.95-.62,11.22,9.2,8.9,15.57-2.46,6.75-13.63,4.03-18.91,12.79-3.11,5.16-3.19,12.67,0,15.02,1.56,1.15,4.59.41,10.57-1.11,7.79-1.99,11.72-3.04,13.16-5.75,2.05-3.83-1.17-7.32.74-9.15,2.66-2.53,12.38.8,13.6,5.93.92,3.89-3.69,6.09-2.72,10.38.9,3.97,6.01,7.3,8.65,6.18,3.47-1.47.32-9.6,4.94-14.83,4.27-4.83,12.08-5.85,13.35-3.96,1.37,2.05-5.7,6.51-4.7,12.85.43,2.72,2.37,5.89,4.7,6.67Z"/>
  <path class="cls-4" d="m266.76,272.22c-7.72,2.59-28.04-17.42-37.08-42.27-9.58-26.33,6.45-26.8.37-58.4-3.72-19.35-9.31-27.16-6.67-43.94,1.54-9.82,4.02-10.75,5.56-23.36,1.54-12.59-.21-17.64,1.67-32.26,1.21-9.48,2.58-20.11,6.12-20.58,3.57-.47,9.15,9.43,10.57,19.47,1.57,11.14-3.17,14.07-5.01,31.7-1.04,9.98-.45,17.92,0,23.92,1.21,16.14,3.65,15.46,3.89,27.81.25,12.53-2.13,19.59,2.22,22.8,2.21,1.63,5.56,1.82,7.79.56,4.16-2.35,4.05-9.53,3.89-15.02-.46-16.5-6.96-19.86-4.45-28.92,2.11-7.62,7.09-6.62,8.9-14.46,2.06-8.9-3.93-12.08-3.34-22.8.53-9.48,5.35-9.69,6.67-18.91,1.52-10.65-4.52-13.04-8.34-30.03-1.92-8.53-4.61-21.29,1.67-32.26,3.02-5.27,8.75-11.26,12.24-10.01,3.35,1.2,3.95,8.79,3.34,13.91-1.24,10.31-7.59,11.86-8.34,20.02-.65,7,3.87,7.67,8.34,20.58,3.04,8.78,6.15,17.75,3.34,27.25-2.42,8.16-7.61,11.36-6.12,17.8,1.04,4.5,3.89,4.29,5.01,8.9,1.87,7.72-5.29,11.73-3.34,18.35,1.29,4.38,6.03,8.1,10.01,7.79,6.1-.48,11.16-10.5,10.57-18.91-.66-9.41-8.01-11.12-7.79-19.47.21-7.7,6.51-7.77,9.46-17.8,2.77-9.43-1.91-12.41.56-26.14.87-4.83,2.27-12.6,6.12-13.35,3.44-.67,7.62,4.52,9.46,8.9,1.43,3.4,1.85,7.26,0,16.69-2.7,13.78-5.48,15.19-6.67,24.47-.96,7.51,0,13.3,1.11,20.02,2.78,16.77,7.46,17.74,6.12,25.59-2.13,12.43-15.93,21.92-17.24,22.8-5.72,3.84-10.31,4.85-11.68,9.46-1.63,5.49,2.81,11.05,3.34,11.68,8.49,10.32,29.94,8.81,33.37,1.67,2.39-4.98-5.43-9.64-3.34-18.35,1.37-5.71,5.11-5.25,8.9-12.79,3.84-7.64,1-10.08,4.45-20.02,3.65-10.53,7.69-10.25,7.79-16.13.15-9.34-10.01-11.44-11.68-21.69-1.84-11.32,8.12-23.74,12.24-22.8,3.08.7,1.03,8.42,6.12,25.59,3.18,10.73,5.41,12.52,4.45,17.8-1.51,8.29-7.92,8.95-8.9,17.24-.87,7.36,3.9,9.25,2.22,16.13-1.51,6.21-5.81,6.37-6.67,12.24-.73,4.94,2.08,6.43,3.89,13.91,2.15,8.87.53,16.44,0,18.91-2.56,11.95-9.23,16.04-7.23,18.91,2.35,3.38,14.4,1.73,17.8-4.45,2.6-4.72-1.44-9.19,1.67-13.35,2.29-3.07,7.31-4.41,11.12-2.78,4.68,2,6.44,8,5.56,12.24-1.02,4.94-5.15,5.11-10.01,12.24-4.26,6.23-2.38,7.97-5.56,11.68-6.56,7.64-22.32,9.34-29.48,2.78-4.82-4.41-3.65-10.65-6.67-11.12-3.95-.62-11.22,9.2-8.9,15.57,2.46,6.75,13.63,4.03,18.91,12.79,3.11,5.16,3.19,12.67,0,15.02-1.56,1.15-4.59.41-10.57-1.11-7.79-1.99-11.72-3.04-13.16-5.75-2.05-3.83,1.17-7.32-.74-9.15-2.66-2.53-12.38.8-13.6,5.93-.92,3.89,3.69,6.09,2.72,10.38-.9,3.97-6.01,7.3-8.65,6.18-3.47-1.47-.32-9.6-4.94-14.83-4.27-4.83-12.08-5.85-13.35-3.96-1.37,2.05,5.7,6.51,4.7,12.85-.43,2.72-2.37,5.89-4.7,6.67Z"/>
  <g>
    <path class="cls-2" d="m110.93,205.47c.26,21.21,6.36,35.54,14.63,60.5,8.79,26.52,7.18,38.3,17.36,42.76,6.6,2.89,23.42-.41,28.8-4.43,9.94-7.42.79-20.99-.02-35.39-2.07-36.71-22.54-41.01-17.98-71.02.85-5.59.46-14.62-5.38-19.68-6.43-5.56-19.4-2.8-21.57-2.29-12.4,2.96-15.41,13.29-16.15,14.73-3.08,6.01.26,11.57.3,14.79Z"/>
    <path class="cls-3" d="m119.66,180.55c-3.08-3.03-3.94-9.96-.51-12.76,5.33-4.36,12.72-6.12,19.62-3.81,4.82,1.61,5.54,9.98,2.87,13.71-1.46,2.04-3.76,2.54-7.9,3.44-6.04,1.31-11.06,2.4-14.08-.57Z"/>
    <path class="cls-3" d="m130.85,226.99c-2.3,4.46-1.84,8.7-1.4,12.64.68,6.18,1.34,12.16,6.08,15.03,4.57,2.77,11.57,1.83,15.16-1.84,6.68-6.84-.64-20.88-4.15-27.62-1.98-3.79-3.53-5.53-5.56-5.91-4.03-.75-8.27,4.12-10.12,7.7Z"/>
  </g>
  <g>
    <path class="cls-2" d="m1316.93,181.28c.26,21.21,6.36,35.54,14.63,60.5,8.79,26.52,7.18,38.3,17.36,42.76,6.6,2.89,23.42-.41,28.8-4.43,9.94-7.42.79-20.99-.02-35.39-2.07-36.71-22.54-41.01-17.98-71.02.85-5.59.46-14.62-5.38-19.68-6.43-5.56-19.4-2.8-21.57-2.29-12.4,2.96-15.41,13.29-16.15,14.73-3.08,6.01.26,11.57.3,14.79Z"/>
    <path class="cls-3" d="m1325.66,156.35c-3.08-3.03-3.94-9.96-.51-12.76,5.33-4.36,12.72-6.12,19.62-3.81,4.82,1.61,5.54,9.98,2.87,13.71-1.46,2.04-3.76,2.54-7.9,3.44-6.04,1.31-11.06,2.4-14.08-.57Z"/>
    <path class="cls-3" d="m1336.85,202.8c-2.3,4.46-1.84,8.7-1.4,12.64.68,6.18,1.34,12.16,6.08,15.03,4.57,2.77,11.57,1.83,15.16-1.84,6.68-6.84-.64-20.88-4.15-27.62-1.98-3.79-3.53-5.53-5.56-5.91-4.03-.75-8.27,4.12-10.12,7.7Z"/>
  </g>
  <path class="cls-1" d="m309.87,175.95c-20.1-82.87-116.29-134.36-190.37-108.15-64.88,22.95-84.68,95.53-86.63,103.11-12.22,47.69-4.51,113.02,44.67,153.87,49.75,41.31,123.57,42.35,176.04,4.14,49.45-36.03,69.33-99.23,56.3-152.97Zm-94.81,102.79c-32.89,23.96-71.45,20.9-102.65-5.01-30.85-25.62-33.75-53.27-26.09-83.17,1.22-4.74,9.9-38.84,50.58-53.23,46.45-16.44,96.85-.12,109.46,51.84,8.17,33.7-.29,66.97-31.3,89.56Z"/>
  <path class="cls-1" d="m1631.33,255.42c-20.4-82.79-117.28-134.41-191.75-108.4-65.22,22.78-84.99,95.21-86.94,102.78-12.19,47.59-4.3,112.85,45.26,153.74,50.14,41.36,124.41,42.55,177.11,4.51,49.67-35.87,69.54-98.94,56.32-152.63Zm-95.17,102.44c-33.04,23.85-71.84,20.72-103.28-5.22-31.09-25.65-34.07-53.26-26.43-83.11,1.22-4.73,9.87-38.76,50.77-53.04,46.7-16.31,97.44.08,110.23,52,8.29,33.67-.15,66.87-31.3,89.37Z"/>
  <path class="cls-1" d="m1255.21,273.09c-20.36-82.62-117.03-134.13-191.36-108.17-65.09,22.73-84.82,95.02-86.76,102.56-12.16,47.5-4.29,112.62,45.17,153.43,50.04,41.27,124.15,42.47,176.74,4.5,49.57-35.8,69.39-98.73,56.2-152.32Zm-94.97,102.23c-32.97,23.8-71.69,20.68-103.06-5.21-31.02-25.59-34-53.15-26.37-82.94,1.22-4.72,9.85-38.68,50.66-52.93,46.6-16.28,97.24.08,110,51.89,8.27,33.6-.15,66.73-31.23,89.18Z"/>
  <g>
    <path class="cls-6" d="m123.84,54.63c-3.14,1.15-4.99,4.4-4.39,7.69.76,4.12,1.87,9.11,3.52,14.68,3.74,12.56,5.04,20.28,9.27,21.11,9.53,1.86,18.39-5.1,46-11.34,5.18-1.17,10.34-2.45,15.54-3.55,10.96-2.32,12.1-1.79,15.08-3.64,5.95-3.69,7.3-9.13,11.31-13.6,3.95-4.41,7.81-5.49,9.75-7.06.32-.26,1.57-7.67-2.75-12.21-1.59-1.67-4.13-2.2-9.21-3.26-4.19-.87-5.27-.52-8.69-1.45-3.93-1.07-6.28-2.57-7.68-3.26-5.01-2.49-10.47-.92-17.7,1.3-.23.07-.47.14-.71.22-1.04.32-2.12.65-3.24.98-1.35.4-3.31,1.08-7.22,2.45-9.21,3.22-13.74,5-15.24,5.6-3.91,1.57-3.91,1.72-6.12,2-9.12,1.15-15.48-.72-26.19,2.88-.47.16-.92.32-1.35.48Z"/>
    <path class="cls-3" d="m230.89,42c-1.2-.19-2.44.11-2.44.11s-2.5.44-2.49,1.97c.04,3.96,1.4,14.37,4.13,16.88,1.78,1.64,4.72.08,4.72.08.28-.13.73-.39.92-.52,3.42-2.37-.54-17.83-4.83-18.52Z"/>
    <path class="cls-6" d="m182.45,52.9c-.89-3.96-1.31-5.95-1.26-5.96.12-.03,2.66,10.03,7.61,30.18"/>
    <path class="cls-2" d="m126.33,56.18c-2.96,1.07-4.73,4.01-4.21,6.94.66,3.67,1.63,8.13,3.11,13.09,3.34,11.19,4.46,18.08,8.41,18.77,8.91,1.54,17.3-4.8,43.24-10.75,4.87-1.12,9.72-2.33,14.61-3.38,10.3-2.22,11.36-1.76,14.18-3.45,5.62-3.38,6.96-8.27,10.77-12.32,3.76-4,7.38-5.01,9.23-6.44.31-.24,1.57-6.89-2.42-10.9-1.47-1.48-3.84-1.92-8.58-2.8-3.91-.73-4.93-.4-8.12-1.18-3.67-.9-5.85-2.21-7.15-2.82-4.67-2.16-9.79-.69-16.6,1.39-.22.07-.44.14-.67.2-.98.3-1.99.61-3.05.92-1.27.38-3.11,1.01-6.8,2.29-8.67,3-12.93,4.65-14.35,5.21-3.68,1.45-3.69,1.59-5.76,1.87-8.56,1.14-14.49-.44-24.58,2.92-.44.15-.86.29-1.27.44Z"/>
    <path class="cls-3" d="m197.25,82.51s0,0,0,0c-1.47.27-8.75,1.85-13.14,3.07,0,0-8.52,2.25-10.49,2.15-.56-.03-1.09-.23-1.69-.47-2.46-1-2.11-3.35-6.2-16.17-.62-1.93-2.46-7.64-3.78-15.33-.67-3.92-.77-5.76.32-7.28,1.76-2.45,5.35-3.42,10.75-5.09,7.59-2.35,12.88-4.12,13.04-4.01.31.24.33,4.59.55,10.16.23,5.78,1.98,9.92,4.83,18.52,2.17,6.52,3.31,8.57,4.2,9.73.92,1.2,1.83,3.23,1.9,3.52.1.38.18.74.23.98.01.05-.01.13-.06.14l-.47.09Z"/>
  </g>
  <path class="cls-2" d="m252.09,237.07c-8.84-16.29-5.54-24.2-15.56-32.32-5.2-4.21-7.76-3.44-17.36-10.77-11.11-8.5-12.45-13.19-12.57-16.16-.13-3.18,1.02-7.53,3.59-8.38,3.03-1.01,5.78,3.57,13.17,10.18,10.81,9.66,13.92,7.9,24.54,17.96,6.56,6.21,6.07,7.54,9.58,8.98,11.54,4.73,25.44-6.14,27.54-7.78,4.31-3.37,14.61-11.43,13.17-19.75-.35-2.03-1.66-5.57-25.14-19.16-12.53-7.25-17.41-9.28-19.16-14.96-2-6.53,1.42-13.51,4.39-14.27,4.29-1.1,3.75,4.03,8.18,10.08,4.98,6.79,8.76,8.1,22.15,17.36,12.54,8.68,18.82,13.02,25.74,19.75,4.96,4.83,9.29,10.4,17.96,21.55,13.34,17.17,11.93,17.41,17.36,22.75,12.79,12.58,19.48,10.11,27.54,19.75,7.49,8.97,11.92,23.31,8.98,35.32-7.98,32.57-67.2,36-76.02,36.51-12.12.7-33.38,1.94-39.51-8.98-5.9-10.51,8.47-21.22,3.59-38.91-3.56-12.91-12-10.03-22.15-28.73Z"/>
  <path class="cls-2" d="m1214.14,240.19c.86.47,9.4,5.04,11.52,2.69,1.74-1.93-1.64-7.59-2.83-9.58-2.9-4.86-8.3-11.75-23.15-21.35-8.86-5.72-14.49-8.15-14.82-13.11-.18-2.71,1.44-3.01,1.53-6.41.23-8.63-9.92-14.93-11.32-15.8-3.3-2.05-6.71-3.19-6.99-2.73-.36.59,3.87,3.92,6.3,5.98.96.81,2.84,2.45,3.77,4.16.56,1.04,1.31,4.33.54,4.89-1.22.9-6.18-3.5-8.62-5.58-5.82-4.98-8.83-9.27-9.4-8.89-.35.24.42,2.2,1.37,3.92,2.47,4.49,5.42,6.19,10.5,12.17,1.16,1.37,2.13,2.6,1.78,3.13-.39.59-2.41.45-3.73-.14-4.51-2.01-6.01-6.32-10.94-12.1-.74-.87-1.62-1.37-1.89-1.18-.57.41,1.44,4.12,2.53,6.12,3.86,7.09,5.79,10.63,8.43,12.1,4,2.22,6.1.11,10.45,2.63,3.37,1.94,5,4.86,5.94,6.49,3.49,6.02,14.24,24.58,29.02,32.61Z"/>
  <g>
    <path class="cls-2" d="m374.56,274.16c-1.73-1.36,24.93-27.38,41.26-65.82,9.92-23.35,8.69-34,22.81-51.66,11.53-14.41,26.11-24.52,27.8-23,.69.62-.63,3.36.52,4.12,1.18.78,3.28-1.65,4.78-.83,1.28.7.29,2.77,1.95,4.4,1.18,1.17,2.08.5,3.49,1.89,1.22,1.2,1.2,2.34,2.17,2.52.8.15,1.61-.48,2.07-.83,1.09-.84,1.34-1.78,1.56-1.71.51.15-1.37,5.18.09,6.26,1.54,1.15,5.65-3.01,7.21-1.83,1.28.97-.66,4.39.69,5.49,1.61,1.32,6-2.24,7.06-1.12.88.93-1.5,4.02-.54,4.95.78.76,2.89-.81,3.72,0,.81.79-.76,2.71,0,3.72,1.12,1.49,5.74-1.06,6.78.31.9,1.2-1.76,4.29-1,5.01.72.69,3.5-1.82,4.52-1.03,1.09.85-1.27,4.39.03,5.81,1.24,1.35,4.48-.69,5.66.69,1.09,1.26-.77,3.95.12,4.63,1.05.81,4.3-2.44,5.38-1.6.87.68-.78,3.21.32,4.38,1.04,1.1,3.37-.28,4.29.86.77.96-.37,2.59.32,3.14.85.69,3.17-1.44,3.93-.8.72.61-.93,2.9-.15,3.74.95,1.03,4.36-1.49,5.53-.38.99.93-.44,3.67.19,4,.7.37,2.73-2.84,3.57-2.46.89.4-.93,4.28.55,5.66,1.48,1.37,4.88-.95,5.74.06,1.14,1.34-3.47,6.94-3.47,6.94-.04.05-4.53,9.02-13.51,26.95-8.84,17.65-8.98,21.31-18.54,41.21-16.21,33.72-24.67,41.63-31.68,46.42-8.47,5.78-19.04,9.88-20.11,8.33-.62-.9,1.81-3.89,1.06-4.55-.62-.54-2.42,1.33-3.63.69-1.4-.74-.41-3.99-1.49-4.46-1.38-.6-4.25,4.16-5.48,3.59-1-.47.39-3.85-1.09-4.98-1.39-1.06-3.99.91-4.76.02-.83-.97,1.67-3.84.93-4.65-.84-.92-4.63,2.2-6.02,1.1-1.5-1.18,1.01-6.26.08-6.75-.89-.47-3.56,4-4.79,3.5-1.5-.61.73-7.98-.6-8.52-1.43-.58-5.71,7.14-6.48,6.74-.68-.36,2.49-6.61,1.14-7.58-1.33-.96-6.02,4.03-7.16,3.1-.98-.8,1.62-5.23.79-5.79-.75-.5-3.01,2.88-4.7,2.33-2.02-.65-1.4-6.27-2.79-6.51-1.28-.22-2.89,4.41-3.66,4.18-.81-.24.97-5.26-.83-6.64-2.06-1.56-7.27,2.76-8.28,1.62-.86-.98,2.38-4.81,1.63-5.55-.8-.79-4.97,3.11-6.36,2.08-1.32-.98,1.09-5.48-.09-6.26-1.29-.87-5.39,3.83-6.35,3.12-1.08-.8,3.16-7.43,1.97-8.38-1.13-.91-6.12,4.19-7.14,3.33-1.02-.86,2.96-6.82,2.21-7.37-.75-.55-5.45,5.03-6.18,4.49-.62-.46,2.42-4.84,1.63-5.55-1.06-.96-7.75,5.95-8.64,5.26Z"/>
    <path class="cls-3" d="m455.85,267.94c-3.5-4.88,1.22-12.49,2.37-14.34,4.46-7.19,13.87-13.21,18.42-10.37,3.57,2.22,2.88,9.1,2.66,11.24-.13,1.26-1.48,12.95-10.48,16-3.97,1.35-10.24,1.29-12.97-2.53Z"/>
    <path class="cls-3" d="m425.75,231.14c.36-14.78,20.91-22.74,25.91-24.68,19.41-7.52,46.85-5.41,51.6,6.91,3.73,9.67-7.84,22.16-11.44,26.05-2.11,2.28-22.11,23.25-44.32,15.92-9.81-3.24-22.04-12.65-21.75-24.21Z"/>
    <path class="cls-1" d="m456.82,214.93c-7.42,3.25-12.89,15.53-8.25,22.24,2.91,4.21,8.73,4.7,13.29,5.08,5.51.46,12.58-.5,12.88-2.6.36-2.49-9.3-2.84-12.33-9.65-2.83-6.34,2.23-13.46-.69-15.53-1.47-1.04-3.85,0-4.9.46Z"/>
  </g>
  <path class="cls-4" d="m1052.56,284.81c-.05-18.16,11.33-10.29,14.84-17.9,2.52-5.47.38-5.01-3.2-17.93-.79-2.87,3.26-14.11-2.16-24.29-4.43-8.31,1.18-26.15-5.52-23.03-2.48,1.15-4.05-9.38-7.03-10.62-4.12-1.72-5.83,10.97.38,21.16,4.74,7.79,6.19,11.51,5.75,23.62-.36,9.7,2.98,14.98-3.86,19.39-8.65,5.57-6.76-4.85-11.95-12.43-4.55-6.64-7.97-5.9-9.28-10.13-2.47-8.01,9.13-12.79,8.3-22.64-.81-9.55-12.26-11.41-12.1-20.19.16-8.58,11.22-12.79,9.45-16.95-1.27-2.99-8.35-3.99-13.01-1.42-6.6,3.64-7.38,13.88-6.61,19.92,1.33,10.3,7.67,11.88,6.88,19.36-.87,8.14-8.67,9.2-8.81,16.89-.14,7.85,7.88,12.4,5.89,15.58-1.28,2.05-5.77,2.03-8.95.8-7.62-2.96-10.59-14.08-10.94-21.58-.4-8.49,2.69-9.79,2.13-19.52-.15-2.7-2.07-18.73-7.31-18.44-3.6.2,2.11,4.95-3.83,9.41-5.44,4.08,4.55,5.73,1.63,14.73-2.33,7.17-6.83,9.26-6.37,15.78.48,6.83,4.66,4.1,7.95,19.81,1.47,7.02,1.26,7.43,3.47,10,6.82,7.96,21.84,1.99,23.81,6.9,1.08,2.7-2.5,6.94-5.65,8.88-3.61,2.22-7.25,1.81-10.62,1.37-1.22-.16-16.93-2.36-19.5-11.58-1.53-5.51,2.88-9.03.64-12.08-2.71-3.71-12.48-3.06-14.53.86-1.6,3.06,1.71,7.74,7.91,16.48,3.09,4.36,4.63,6.54,6.3,8.03,10.59,9.5,26.54,6.25,27.1,10.05.33,2.24-5.26,3.1-6.18,7.85-.68,3.5,1.32,8.43,5.13,9.42,2.07.54,4.78-.06,6.28-1.85,2.37-2.84-.28-6.34,1.8-8.75,2.01-2.33,7.4-2.45,9.88-.02,3.32,3.27-.76,9.04,2.38,12.25,3.03,3.1,10.96,1.91,12.75-1.56,1.51-2.94-2.22-5.83-.87-9.8,1.05-3.11,7.65-2.18,7.64-5.83Z"/>
  <path class="cls-5" d="m385.66,299.65c-4.42,1.33-4.55,5.12-9.5,9.5-1.88,1.66-7.38,6.53-12.89,5.43-3.88-.78-5.99-4.15-10.18-10.85-3.11-4.98-6.41-10.27-4.75-12.21,1.83-2.14,8.95.59,12.89,2.71,6.12,3.29,7.78,6.83,10.18,6.11,2.54-.77,4.25-5.83,3.39-10.18-1.14-5.75-6.14-6.98-16.96-16.28-7.76-6.67-11.65-10.09-12.21-14.25-1.06-7.83,7.23-11.4,5.43-18.32-1.35-5.19-6.34-4.42-10.18-11.53-.69-1.27-4.67-8.98-1.36-16.28,2.22-4.89,7.61-9.35,10.85-8.14,2.69,1,1.58,5.03,4.75,12.89,3.68,9.12,7.28,8.89,8.14,14.92,1.01,7.07-3.69,8.98-2.71,16.28.86,6.39,5.56,13.15,9.5,12.89,4.55-.3,9.09-10.01,8.14-18.32-.83-7.22-5.28-8.77-4.75-14.92.56-6.47,5.69-7.2,6.78-12.89,1.65-8.6-9.2-11.47-13.57-24.42-2-5.92.45-4.78,2.71-33.92.8-10.32.92-15.99,5.43-21.03,3.49-3.91,9.43-7.23,12.21-5.43,3.71,2.41.85,13.31-1.36,21.71-3.76,14.33-7.41,16.8-6.11,23.74,1.22,6.47,4.65,5.69,8.82,14.92,1.59,3.52,6.71,14.88,3.39,26.46-2.01,7.01-5.37,8.04-5.43,14.25-.06,6.66,3.73,13.69,6.78,13.57,2.49-.1,3.09-4.86,7.46-14.92,7.17-16.52,11.54-17.5,10.85-23.74-1.03-9.34-11.04-9.37-12.89-19.67-1.62-9.04,4.42-18.33,10.85-23.07,4.7-3.46,11.82-6.12,13.57-4.07,2.31,2.7-7.73,10.16-6.78,21.71.45,5.47,2.85,5.64,5.43,13.57,1.38,4.25,4.89,15.04,1.36,25.1-3.81,10.87-12.25,10.7-14.25,21.71-.36,1.97-1.61,8.89,2.71,13.57,2.57,2.78,7.38,5.05,10.18,3.39,3.87-2.29-.56-9.45,3.39-17.64,4.06-8.41,11.56-6.74,14.25-14.25,2.6-7.27-3.56-11.33-.68-19.67,1.85-5.37,6.69-10.31,9.5-9.5,1.31.38,2.26,2.04,4.07,23.07.93,10.82.82,11.98,0,13.57-3.83,7.43-13.87,6.38-15.6,12.89-1.04,3.92,2.44,4.91,2.04,9.5-.77,8.72-13.74,9.93-15.6,19.67-.67,3.48.11,7.89,2.71,9.5,3.37,2.08,9.63-.62,12.89-4.75,4.53-5.73,1.52-12,5.43-14.25,2.86-1.64,7.72-.13,9.5,2.71,2.88,4.62-2.79,12.11-5.43,15.6-2.39,3.15-5.45,7.2-10.85,9.5-10.09,4.29-21.23-.54-27.81-3.39-8.94-3.87-12.82-8.08-14.25-6.78-1.66,1.51.91,9.6,6.78,13.57,5.55,3.75,10.4,1.35,13.57,5.43,2.1,2.7,2.54,7.05.68,9.5-2.65,3.5-10.02,3.16-14.25,0-5.32-3.98-3.26-10.64-8.82-13.57-3.45-1.82-7.14-.78-7.46-.68Z"/>
  <g>
    <path class="cls-6" d="m865.61,297.05c-.3,3.33,1.85,6.39,5.08,7.25,4.05,1.08,9.04,2.21,14.78,3.09,12.95,1.99,20.49,4.12,23.04.65,5.76-7.82,3.26-18.81,9.42-46.43,1.16-5.19,2.21-10.4,3.44-15.57,2.59-10.9,3.56-11.71,3.16-15.19-.79-6.96-5.13-10.51-7.46-16.04-2.3-5.46-1.62-9.4-2.21-11.84-.1-.41-6.26-4.7-12.22-2.74-2.19.72-3.76,2.79-6.89,6.93-2.58,3.41-2.73,4.54-5.03,7.23-2.65,3.1-5,4.58-6.23,5.55-4.39,3.47-5.31,9.07-6.4,16.56-.04.24-.07.49-.11.73-.16,1.08-.32,2.19-.5,3.35-.22,1.39-.43,3.45-.87,7.57-1.03,9.7-1.36,14.55-1.46,16.18-.26,4.2-.12,4.27-.81,6.39-2.86,8.73-7.27,13.68-8.6,24.91-.06.49-.11.96-.15,1.43Z"/>
    <path class="cls-3" d="m899.98,194.89c-.68,1-.94,2.25-.94,2.25s-.67,2.45.71,3.09c3.59,1.66,13.58,4.88,17.02,3.49,2.24-.9,2.09-4.23,2.09-4.23,0-.31-.04-.82-.08-1.05-.68-4.1-16.35-7.14-18.81-3.55Z"/>
    <path class="cls-6" d="m889.11,243.33c-3.96-.89-5.94-1.36-5.92-1.41.03-.12,10.21,1.89,30.54,6.04"/>
    <path class="cls-2" d="m868.07,295.46c-.29,3.13,1.6,5.99,4.47,6.77,3.6.98,8.05,2,13.16,2.79,11.54,1.77,18.25,3.7,20.56.42,5.2-7.39,3.06-17.69,8.78-43.69,1.07-4.88,2.06-9.78,3.19-14.65,2.4-10.26,3.27-11.02,2.95-14.29-.65-6.53-4.49-9.83-6.53-15-2.01-5.11-1.37-8.82-1.88-11.1-.08-.38-5.55-4.36-10.88-2.48-1.96.69-3.37,2.65-6.2,6.56-2.33,3.23-2.47,4.29-4.54,6.84-2.39,2.93-4.5,4.34-5.61,5.26-3.95,3.29-4.81,8.56-5.85,15.6-.03.23-.07.46-.1.69-.15,1.01-.3,2.06-.47,3.15-.2,1.31-.42,3.25-.84,7.12-1,9.12-1.33,13.68-1.43,15.2-.26,3.95-.14,4.01-.77,6-2.63,8.22-6.6,12.91-7.88,23.46-.06.46-.1.91-.14,1.34Z"/>
    <path class="cls-3" d="m922.21,242.63s0,0,0,0c-.39,1.44-2.07,8.7-2.84,13.19,0,0-1.61,8.66-2.55,10.4-.27.49-.68.89-1.15,1.33-1.95,1.79-3.93.48-17.27-1.32-2.01-.27-7.96-1.04-15.48-3.14-3.83-1.07-5.53-1.77-6.44-3.41-1.46-2.64-.8-6.3,0-11.89,1.12-7.86,1.78-13.41,1.96-13.5.35-.18,4.29,1.67,9.42,3.85,5.32,2.26,9.81,2.46,18.81,3.55,6.82.83,9.17.67,10.59.37,1.47-.32,3.7-.27,3.99-.22.39.07.75.16.98.21.05.01.11.07.1.12l-.12.46Z"/>
  </g>
  <path class="cls-3" d="m863.38,276.14c-4.41,2.47-12.73-10.97-20.78-8.67-3.92,1.12-4.05,4.92-9.05,6.08-4.01.93-7.56-.66-10.16-1.86-9.23-4.27-9.93-11.1-15.4-11.42-2.17-.13-2.69.91-10.02,5.97-11.69,8.07-13.62,7.66-16.91,11.89-1.74,2.23-6.54,8.41-5.04,14.32,2.39,9.43,20.19,15.77,33.51,12.17,7.57-2.04,9.99-6.3,17.86-6.12,6.26.15,7.39,2.9,14.56,4.68,10.32,2.56,25.09,1.1,28.59-5.95,3.18-6.4-3.76-15.72.02-18.57,1.89-1.43,5.07-.18,5.87-1.92.75-1.62-1.05-4.8-1.05-4.8h0s-2.78-.3-5.1-1.72c-.45-.27-1.31-.81-2.13-1.79-1.26-1.5-1.32-2.72-1.69-2.73-1,0,.09,8.66-3.07,10.43Z"/>
</svg>