<?xml version="1.0" encoding="UTF-8"?>
<svg id="Layer_1" data-name="Layer 1" xmlns="http://www.w3.org/2000/svg" viewBox="0 0 425 355">
  <defs>
    <style>
      .cls-1 {
        fill: #33975d;
        stroke-width: 0px;
      }
    </style>
  </defs>
  <path class="cls-1" d="M99.49,163.13c.42,4.84-5.36,10.75-10.79,10.82-8.68.11-14.87-14.78-17.43-20.76-8.96-20.95-4.75-40.58-3.86-44.41h0c4.51-22.9,22.76-52.06,51.14-57.03,9.97-1.75,35.35-2.99,47.15,9.88,1.96,2.14,6.62,7.63,11.16,7.15,5.32-.56,8.38-10.06,9.83-7.23l11.83,26.37c.88,1.96-.51,4.16-2.65,4.19l-32.34,2.37c-2.85.11,3.52-6.64,3.48-11.23-.07-7.63-12.73-15.42-23.78-17.5-20.96-3.95-38.23,6.43-42.57,10.42-16.45,15.14-19.06,34.62-19.57,40.84-.69,8.41-2.17,26.47,8.6,36.37,4.38,4.03,9.43,5.46,9.8,9.74Z"/>
  <path class="cls-1" d="M163.08,203.92c5.93,2.87-8.69,10.01-11.42,16.76-2.91,7.19,5.38,18.89,43.35,52.52,23.17,20.53,29.17,27.43,35.29,25.29,7.23-2.53,11.3-15.86,18.06-36.68,8.08-24.87,30.74-55.38,44.34-66.56,1.16-.95,10.05-9.83,13.34-5.28,6.89,9.55-25.51,37.92-47.67,84.81-11.26,23.82-11.39,34.91-21.98,38.66-17.72,6.27-39.84-18.34-47.78-25.78-31.33-29.37-35.59-49.53-51.78-56.6-9.98-4.36-18,12.81-24.92,10.19l-11.09-52.58c-1.24-5.1.17-11.18,4.91-8.92l57.34,24.17Z"/>
  <path class="cls-1" d="M227.2,95.11c-4.57,1.24-11.35-1.2-12.35-6.39-1.6-8.29,15.4-22.81,20.69-26.29,18.53-12.2,38.07-11.54,41.89-11.35h0c22.72.37,53.81,12.84,63.46,39.17,3.39,9.25,8.96,33.36-1.34,46.88-1.71,2.25-6.17,7.66-4.93,11.92,1.46,5,11.08,6.3,8.62,8.17l-23.23,15.88c-1.73,1.18-4.07.23-4.47-1.81l-7.85-30.58c-.6-2.71,6.97,2.22,11.36,1.4,7.3-1.38,12.58-14.86,12.67-25.8.17-20.76-12.75-35.52-17.32-38.99-17.34-13.15-36.46-12.3-42.51-11.71-8.18.79-25.73,2.49-33.36,14.51-3.1,4.89-7.28,13.9-11.32,15Z"/>
</svg>