<?xml version="1.0" encoding="UTF-8"?>
<svg id="Layer_1" data-name="Layer 1" xmlns="http://www.w3.org/2000/svg" viewBox="0 0 425 355">
  <defs>
    <style>
      .cls-1 {
        fill: #c9cdd6;
      }

      .cls-1, .cls-2, .cls-3, .cls-4, .cls-5, .cls-6, .cls-7, .cls-8, .cls-9, .cls-10, .cls-11, .cls-12 {
        stroke-width: 0px;
      }

      .cls-2 {
        fill: #fdec98;
      }

      .cls-3 {
        fill: #fcc5d7;
      }

      .cls-4 {
        fill: #99cbae;
      }

      .cls-5 {
        fill: #ff4076;
      }

      .cls-6 {
        fill: #e5b5dc;
      }

      .cls-7 {
        fill: #ff8310;
      }

      .cls-8 {
        fill: #f9dee8;
      }

      .cls-9 {
        fill: #6bdbd9;
      }

      .cls-10 {
        fill: #d8dce5;
      }

      .cls-11 {
        fill: #fecbf2;
      }

      .cls-12 {
        fill: #66b185;
      }
    </style>
  </defs>
  <polygon class="cls-1" points="94.8 184.66 93.24 250.04 94.8 250.04 97.39 184.66 94.8 184.66"/>
  <path class="cls-8" d="M263.74,222.44c-37.54-13.86-70.09-9.92-89.28-7.38-30.23,4.01-65.81,8.73-85.59,36.89-3.26,4.64-17.17,24.44-11.07,43.53,8.22,25.71,47.19,32.66,77.1,38,22.93,4.09,78.14,13.13,131.33-16.97,16.74-9.47,41.2-23.31,41.32-42.42.18-28.02-52.08-47.31-63.82-51.65Z"/>
  <path class="cls-3" d="M249.63,234.5c-28.97-10.69-54.1-7.66-68.9-5.69-23.33,3.1-50.79,6.74-66.05,28.47-2.51,3.58-13.25,18.87-8.54,33.6,6.35,19.84,36.42,25.21,59.5,29.33,17.7,3.16,60.3,10.13,101.36-13.1,12.92-7.31,31.8-17.99,31.89-32.74.14-21.63-40.19-36.51-49.26-39.86Z"/>
  <g>
    <path class="cls-1" d="M200.94,214.9c.39,5.16,4.45,9.3,9.6,9.79,6.45.62,14.37,1.08,23.36.97,20.29-.25,32.34,1.08,35.36-4.87,6.81-13.41.2-29.56,2.6-73.32.45-8.22.73-16.45,1.3-24.66,1.19-17.31,2.47-18.78.97-24.01-2.98-10.43-10.51-14.75-15.46-22.6-4.9-7.75-4.87-13.95-6.38-17.52-.25-.59-10.76-5.58-19.36-1.08-3.16,1.66-5.03,5.21-8.76,12.33-3.08,5.87-3.01,7.63-5.84,12.33-3.26,5.4-6.48,8.26-8.11,10.06-5.83,6.41-5.81,15.2-5.57,26.92,0,.38.02.76.02,1.14.04,1.69.07,3.43.09,5.24.02,2.18.21,5.38.59,11.79.89,15.08,1.63,22.58,1.89,25.08.67,6.49.91,6.56.38,9.96-2.16,14.06-7.63,22.75-6.81,40.23.04.76.08,1.5.13,2.22Z"/>
    <path class="cls-7" d="M227.48,50.12c-.79,1.7-.87,3.68-.87,3.68,0,0-.4,3.92,1.87,4.54,5.91,1.62,21.99,4,26.89,1.01,3.19-1.95,2.12-6.99,2.12-6.99-.08-.47-.27-1.25-.39-1.59-2.09-6.1-26.79-6.76-29.63-.65Z"/>
    <path class="cls-1" d="M223.19,126.88c-6.28-.35-9.41-.56-9.41-.65,0-.19,16.07.3,48.18,1.46"/>
    <path class="cls-10" d="M204.29,211.85c.35,4.86,3.96,8.74,8.55,9.21,5.75.58,12.8,1.02,20.82.91,18.08-.23,28.82,1.02,31.51-4.58,6.07-12.61.18-27.8,2.31-68.96.4-7.73.65-15.47,1.16-23.19,1.06-16.28,2.2-17.67.87-22.58-2.65-9.81-9.36-13.87-13.78-21.26-4.36-7.29-4.34-13.12-5.69-16.48-.22-.56-9.59-5.25-17.25-1.02-2.82,1.56-4.48,4.9-7.81,11.6-2.74,5.52-2.68,7.18-5.2,11.6-2.9,5.08-5.78,7.77-7.23,9.46-5.2,6.03-5.18,14.29-4.96,25.32,0,.36.01.71.02,1.08.03,1.59.06,3.23.08,4.93.02,2.05.19,5.06.53,11.09.79,14.19,1.45,21.23,1.68,23.59.6,6.1.81,6.17.34,9.37-1.92,13.23-6.8,21.4-6.07,37.84.03.72.07,1.41.12,2.08Z"/>
    <path class="cls-7" d="M273.56,117.39s0,0,0,0c-.23,2.3-.96,13.82-.99,20.86,0,0-.25,13.64-1.25,16.53-.28.82-.81,1.53-1.42,2.32-2.53,3.24-5.88,1.72-26.71,2.38-3.14.1-12.42.43-24.44-.87-6.12-.66-8.9-1.3-10.71-3.57-2.9-3.65-2.82-9.42-3.03-18.16-.29-12.29-.68-20.93-.44-21.11.48-.36,6.97,1.45,15.36,3.48,8.7,2.1,15.6,1.26,29.63.65,10.63-.46,14.17-1.3,16.27-2.13,2.17-.86,5.58-1.35,6.04-1.34.61.01,1.18.05,1.56.07.08,0,.19.07.19.15l-.06.73Z"/>
  </g>
  <path class="cls-9" d="M56.13,294.53c-1.05.94-11.33,10.28-9.17,14.28,1.77,3.28,11.05,1.43,14.31.78,7.96-1.58,19.88-5.56,39.99-21.03,12-9.22,17.98-15.67,24.84-13.72,3.75,1.07,3.37,3.39,7.93,5.15,11.55,4.46,24.95-6.23,26.79-7.7,4.35-3.47,7.54-7.53,7.06-8.14-.63-.77-7.16,3.34-11.12,5.64-1.55.91-4.68,2.67-7.43,3.09-1.68.26-6.48-.32-6.88-1.62-.63-2.08,7.7-6.68,11.69-8.96,9.53-5.47,16.77-7.48,16.54-8.43-.15-.59-3.17-.48-5.95-.03-7.25,1.17-10.97,4.35-21.49,8.34-2.41.91-4.54,1.63-5.08.9-.6-.81.55-3.47,1.98-4.98,4.88-5.13,11.43-5.08,21.61-8.97,1.54-.59,2.64-1.53,2.51-1.98-.28-.97-6.26-.04-9.49.47-11.44,1.81-17.16,2.72-20.4,5.58-4.92,4.35-3.09,8.18-8.58,12.86-4.25,3.62-8.97,4.41-11.63,4.9-9.82,1.82-40.07,7.43-58.03,23.54Z"/>
  <path class="cls-9" d="M118.19,335.91c13.07-19.47,32.22-38.19,60.79-68.61,20.27-21.59,25.26-34.41,29.8-32.54,6.16,2.53,5.97,29.81-8.63,42.74-7.62,6.74-11.32,2.64-24.31,9.8-20.21,11.15-33.03,33.1-34.5,35.68-3.81,6.68-6.59,9.81-12.15,16.08-6.1,6.87-7.91,7.02-9.02,7.06-3.14.11-3.05-8.59-1.98-10.19Z"/>
  <g>
    <path class="cls-2" d="M225.66,266.73c-2-1.53,27.82-32.02,45.62-76.64,10.81-27.11,9.19-39.37,24.91-59.98,12.83-16.82,29.22-28.74,31.18-27.02.8.71-.65,3.89.67,4.74,1.36.88,3.7-1.96,5.42-1.04,1.47.78.39,3.18,2.31,5.04,1.37,1.33,2.38.54,4.01,2.11,1.42,1.36,1.41,2.67,2.53,2.86.92.16,1.82-.58,2.34-1,1.22-.99,1.49-2.07,1.74-2,.59.16-1.45,6,.23,7.22,1.78,1.3,6.37-3.58,8.17-2.24,1.47,1.09-.66,5.07.9,6.32,1.86,1.5,6.79-2.69,8.02-1.41,1.02,1.06-1.63,4.67-.52,5.72.91.86,3.28-.99,4.23-.07.93.9-.8,3.14.08,4.29,1.3,1.7,6.52-1.33,7.73.24,1.05,1.37-1.91,4.98-1.03,5.79.84.78,3.95-2.16,5.12-1.27,1.26.96-1.36,5.09.15,6.7,1.44,1.53,5.08-.87,6.46.69,1.26,1.43-.8,4.56.23,5.34,1.21.92,4.85-2.89,6.09-1.94,1.01.77-.83,3.72.45,5.04,1.21,1.25,3.84-.38,4.9.91.9,1.09-.37,2.99.42,3.61.99.78,3.58-1.72,4.46-.99.83.69-.99,3.36-.1,4.31,1.11,1.17,4.93-1.79,6.29-.54,1.15,1.06-.43,4.24.3,4.61.81.42,3.05-3.32,4.01-2.9,1.02.45-.98,4.95.75,6.52,1.71,1.56,5.54-1.18,6.54-.04,1.33,1.52-3.81,8.07-3.81,8.07-.05.06-4.97,10.48-14.83,31.32-9.7,20.51-9.78,24.73-20.26,47.85-17.76,39.18-27.23,48.45-35.11,54.09-9.53,6.82-21.48,11.73-22.72,9.96-.72-1.02,1.98-4.52,1.11-5.26-.72-.61-2.73,1.57-4.12.86-1.61-.83-.55-4.6-1.79-5.12-1.58-.67-4.75,4.88-6.16,4.24-1.15-.52.37-4.45-1.34-5.72-1.61-1.19-4.52,1.12-5.42.1-.97-1.1,1.82-4.45.96-5.38-.98-1.05-5.22,2.62-6.83,1.38-1.73-1.34,1.03-7.24-.04-7.79-1.02-.53-3.97,4.68-5.38,4.13-1.72-.67.67-9.22-.86-9.82-1.64-.64-6.35,8.33-7.24,7.88-.79-.4,2.69-7.66,1.14-8.76-1.54-1.09-6.78,4.75-8.09,3.71-1.14-.9,1.74-6.06.77-6.69-.86-.56-3.36,3.38-5.31,2.77-2.32-.72-1.73-7.21-3.31-7.45-1.47-.23-3.2,5.14-4.08,4.88-.92-.27,1-6.09-1.08-7.64-2.38-1.77-8.22,3.31-9.4,2.01-1-1.12,2.61-5.59,1.74-6.43-.93-.89-5.59,3.67-7.2,2.51-1.53-1.11,1.12-6.34-.23-7.22-1.49-.98-6.06,4.51-7.17,3.71-1.25-.9,3.44-8.62,2.07-9.7-1.31-1.03-6.88,4.94-8.06,3.97-1.18-.97,3.23-7.92,2.37-8.53-.87-.62-6.1,5.9-6.94,5.29-.72-.52,2.65-5.62,1.74-6.43-1.23-1.09-8.71,7-9.73,6.22Z"/>
    <path class="cls-5" d="M318.09,258.12c-4.08-5.57,1.13-14.42,2.4-16.58,4.93-8.37,15.52-15.48,20.76-12.29,4.11,2.5,3.46,10.45,3.26,12.92-.12,1.45-1.42,14.96-11.6,18.64-4.5,1.63-11.63,1.66-14.83-2.69Z"/>
    <path class="cls-7" d="M283.05,216.2c.11-17.05,23.34-26.59,29-28.92,21.95-9.02,53.23-7.07,58.9,7.06,4.44,11.08-8.46,25.69-12.48,30.25-2.36,2.67-24.7,27.21-50.14,19.15-11.24-3.56-25.36-14.2-25.27-27.54Z"/>
    <path class="cls-5" d="M318.1,196.97c-8.38,3.88-14.35,18.14-8.94,25.79,3.4,4.8,10.04,5.26,15.24,5.62,6.28.44,14.31-.8,14.61-3.23.36-2.88-10.64-3.11-14.25-10.91-3.35-7.26,2.26-15.57-1.11-17.9-1.7-1.18-4.38.07-5.57.62Z"/>
  </g>
  <path class="cls-4" d="M83.21,28.76c-10.11,2.37-28.33,6.64-39.56,21.96-13.76,18.78-11.75,46.99-2.15,66.52,13.6,27.65,50.51,54.37,52.02,66,.2,1.52.72,5.57-1.51,7.46-2.14,1.81-5.65.65-6.4,2.43-.35.82.01,1.99.62,2.3.7.35,1.37-.61,3.17-.68.64-.03,1.32-.05,1.87.38.75.6.4,1.41,1.07,2,.78.7,2.47.63,2.97-.1.62-.89-.95-2.2-.32-3.79.31-.79,1.06-1.4,1.42-1.27.43.17-.02,1.29.55,2.67.35.86,1.21,2.11,2.14,2.07,1.09-.05,2.12-1.86,1.92-3.34-.16-1.15-.96-1.36-1.83-2.86-.5-.86-.64-1.49-1.15-4.27-.34-1.85-.96-5.3-1.02-5.72-.76-6.06,33.7-45.61,44.43-66.64,13.67-26.81,10.78-66.65-9.32-81.58-15.36-11.41-37.9-6.13-48.91-3.55Z"/>
  <path class="cls-12" d="M126.07,38.99c4.21,3.06,7.08,5.2,8.55,9.25,1.15,3.18,1.99,9.05-1.19,11.36-1.81,1.31-4.69,1.31-6.81.17-4.67-2.5-2.29-8.64-7.11-12.78-4.06-3.48-8.39-1.38-10.26-4.69-1.57-2.79-.3-7.49,2.39-9.06,3.61-2.12,9.07,1.85,14.43,5.74Z"/>
  <path class="cls-11" d="M132.91,142.77c3.27-5.46,12.83-5.06,31.94-4.28,20.41.84,23.45,3.84,24.75,5.74,1.87,2.74,1.63,5.44-.57,17.85-5.31,29.97-6.76,30.47-7.05,39.71-.37,11.66,1.82,14.78-1.42,18.64-5.12,6.08-16.49,5.36-25.6,4.79-4.87-.31-7.35-.5-9.44-2.16-4.82-3.85-3.2-10.86-3.42-22.87-.33-18.29-4.68-34.99-5.68-38.84-3.19-12.24-5.65-14.99-3.5-18.57Z"/>
  <path class="cls-6" d="M188.98,146.13c1.11-4.45-15.59-6.91-29.87-6.79-11,.09-21.29-1.48-24.89,4.64-2.04,3.47,24.34,8.21,37.56,7.78,7.79-.25,16.72-3.71,17.2-5.63Z"/>
</svg>