<?xml version="1.0" encoding="UTF-8"?>
<svg id="Layer_1" data-name="Layer 1" xmlns="http://www.w3.org/2000/svg" viewBox="0 0 300 355">
  <defs>
    <style>
      .cls-1 {
        fill: #d8dce5;
        stroke-width: 0px;
      }
    </style>
  </defs>
  <path class="cls-1" d="M119.88,42.86c-.56-2.76-53.62,22.98-58.21,26.81-4.06,3.38-39.13,53.29-47.32,64.97-.96,1.37-1.88,5.67-.58,6.74l43.59,35.74c1.35,1.11,6.75.25,7.88-1.09l5.13-6.03c1.96-2.3,5.72-.87,5.65,2.15l-3.55,156.96c-.04,1.8,1.41,3.28,3.21,3.28l153.78,2.69c1.83,0,6.01-4.22,5.93-6.05l-7.46-158.64c-.17-3.55,4.71-4.7,6.14-1.44h0c.78,1.78,6.15,3.05,7.8,2.04l42.89-26.89c1.57-.95,2.76-5.24,1.73-6.75l-40.22-59.04c-3.59-5.27-8.3-9.67-13.79-12.92-13.49-7.97-35.54-22.69-45.19-22.55-8.42.13-7.91,28.61-20.17,28.36s-39.87,7.69-47.23-28.34Z"/>
</svg>