<?xml version="1.0" encoding="UTF-8"?>
<svg id="Layer_1" data-name="Layer 1" xmlns="http://www.w3.org/2000/svg" viewBox="0 0 425 355">
  <defs>
    <style>
      .cls-1 {
        fill: #cacdd5;
      }

      .cls-1, .cls-2, .cls-3, .cls-4, .cls-5, .cls-6 {
        stroke-width: 0px;
      }

      .cls-2 {
        fill: #f4f4f4;
      }

      .cls-3 {
        fill: #33975d;
      }

      .cls-4 {
        fill: #6e473c;
      }

      .cls-5 {
        fill: #d9dce2;
      }

      .cls-6 {
        fill: #66b185;
      }
    </style>
  </defs>
  <g>
    <g>
      <path class="cls-3" d="M107.37,255.58c-.9-3.37,2.31-2.06,7.69-3.3,5.19-1.2,7.03-3.85,7.54-2.41,5.47,15.52,6.71,23.35,16.5,52.56,1.68,5-12.99,9.55-15,4.24-8.99-23.77-14.96-44.43-16.73-51.09Z"/>
      <path class="cls-6" d="M105.73,250.76c2.44-.96,5.33.43,9.76-1.38,2.91-1.19,3.93-3.26,5.48-2.68.93.35,1.58,1.49,1.5,2.46-.11,1.32-1.56,2.11-3.46,3.1-1.06.55-4.64,2.31-10.03,2.36-2.88.02-3.08-.43-3.32-.88-.43-.78-.92-2.58.07-2.97Z"/>
      <path class="cls-3" d="M89.09,199.57c-.9-3.37,2.31-2.06,7.69-3.3,5.19-1.2,7.03-3.85,7.54-2.41,5.47,15.52,6.71,23.35,16.5,52.56,1.68,5-12.99,9.55-15,4.24-8.99-23.77-14.96-44.43-16.73-51.09Z"/>
      <path class="cls-6" d="M88.03,195.53c2.44-.96,5.33.43,9.76-1.38,2.91-1.19,3.93-3.26,5.48-2.68.93.35,1.58,1.49,1.5,2.46-.11,1.32-1.56,2.11-3.46,3.1-1.06.55-4.64,2.31-10.03,2.36-2.88.02-3.08-.43-3.32-.88-.43-.78-.92-2.58.07-2.97Z"/>
      <path class="cls-3" d="M70.94,144.37c-.9-3.37,2.31-2.06,7.69-3.3,5.19-1.2,7.03-3.85,7.54-2.41,5.47,15.52,6.71,23.35,16.5,52.56,1.68,5-12.99,9.55-15,4.24-8.99-23.77-14.96-44.43-16.73-51.09Z"/>
      <path class="cls-6" d="M69.53,140.08c2.45-.95,5.32.36,9.75-1.43,2.91-1.17,3.95-3.18,5.49-2.63.92.33,1.56,1.42,1.48,2.35-.12,1.28-1.58,2.04-3.48,3.02-1.06.54-4.65,2.27-10.03,2.37-2.87.05-3.06-.39-3.31-.82-.42-.75-.89-2.47.1-2.86Z"/>
      <path class="cls-3" d="M52.83,88.67c-.9-3.37,2.31-2.06,7.69-3.3,5.19-1.2,7.03-3.85,7.54-2.41,5.47,15.52,6.71,23.35,16.5,52.56,1.68,5-12.99,9.55-15,4.24-8.99-23.77-14.96-44.43-16.73-51.09Z"/>
      <path class="cls-6" d="M51.91,84.71c2.44-.96,5.33.43,9.76-1.38,2.91-1.19,3.93-3.26,5.48-2.68.93.35,1.58,1.49,1.5,2.46-.11,1.32-1.56,2.11-3.46,3.1-1.06.55-4.64,2.31-10.03,2.36-2.88.02-3.08-.43-3.32-.88-.43-.78-.92-2.58.07-2.97Z"/>
      <path class="cls-3" d="M34.59,33.32c-.9-3.37,2.31-2.06,7.69-3.3,5.19-1.2,7.03-3.85,7.54-2.41,5.47,15.52,6.71,23.35,16.5,52.56,1.68,5-12.99,9.55-15,4.24-8.99-23.77-14.96-44.43-16.73-51.09Z"/>
    </g>
    <g>
      <path class="cls-3" d="M124.44,238.68c-.18-3.49,2.68-1.53,8.21-1.63,5.32-.1,7.68-2.3,7.88-.79,2.12,16.32,1.71,24.24,5.22,54.84.6,5.24-14.7,6.65-15.56,1.03-3.85-25.12-5.4-46.57-5.75-53.45Z"/>
      <path class="cls-6" d="M123.84,233.63c2.59-.43,5.13,1.52,9.84.67,3.09-.56,4.52-2.37,5.91-1.48.84.54,1.24,1.78.96,2.72-.38,1.27-1.96,1.74-4.03,2.31-1.15.32-5.02,1.3-10.3.22-2.82-.58-2.92-1.06-3.07-1.55-.26-.85-.36-2.71.69-2.89Z"/>
      <path class="cls-3" d="M118.2,180.1c-.18-3.49,2.68-1.53,8.21-1.63,5.32-.1,7.68-2.3,7.88-.79,2.12,16.32,1.71,24.24,5.22,54.84.6,5.24-14.7,6.65-15.56,1.03-3.85-25.12-5.4-46.57-5.75-53.45Z"/>
      <path class="cls-6" d="M118,175.93c2.59-.43,5.13,1.52,9.84.67,3.09-.56,4.52-2.37,5.91-1.48.84.54,1.24,1.78.96,2.72-.38,1.27-1.96,1.74-4.03,2.31-1.15.32-5.02,1.3-10.3.22-2.82-.58-2.92-1.06-3.07-1.55-.26-.85-.36-2.71.69-2.89Z"/>
      <path class="cls-3" d="M111.92,122.34c-.18-3.49,2.68-1.53,8.21-1.63,5.32-.1,7.68-2.3,7.88-.79,2.12,16.32,1.71,24.24,5.22,54.84.6,5.24-14.7,6.65-15.56,1.03-3.85-25.12-5.4-46.57-5.75-53.45Z"/>
      <path class="cls-6" d="M111.43,117.84c2.59-.42,5.13,1.46,9.84.63,3.09-.54,4.53-2.29,5.92-1.43.83.51,1.23,1.71.95,2.61-.38,1.22-1.97,1.67-4.04,2.23-1.15.31-5.02,1.25-10.3.23-2.82-.55-2.92-1.02-3.06-1.49-.26-.82-.36-2.6.69-2.78Z"/>
      <path class="cls-3" d="M105.77,64.09c-.18-3.49,2.68-1.53,8.21-1.63,5.32-.1,7.68-2.3,7.88-.79,2.12,16.32,1.71,24.24,5.22,54.84.6,5.24-14.7,6.65-15.56,1.03-3.85-25.12-5.4-46.57-5.75-53.45Z"/>
      <path class="cls-6" d="M105.69,60.02c2.59-.43,5.13,1.52,9.84.67,3.09-.56,4.52-2.37,5.91-1.48.84.54,1.24,1.78.96,2.72-.38,1.27-1.96,1.74-4.03,2.31-1.15.32-5.02,1.3-10.3.22-2.82-.58-2.92-1.06-3.07-1.55-.26-.85-.36-2.71.69-2.89Z"/>
      <path class="cls-3" d="M99.43,6.15c-.18-3.49,2.68-1.53,8.21-1.63,5.32-.1,7.68-2.3,7.88-.79,2.12,16.32,1.71,24.24,5.22,54.84.6,5.24-14.7,6.65-15.56,1.03-3.85-25.12-5.4-46.57-5.75-53.45Z"/>
    </g>
    <g>
      <path class="cls-3" d="M120.4,262.33c-.54-3.45,2.51-1.81,7.99-2.49,5.28-.65,7.39-3.1,7.75-1.61,3.83,16,4.25,23.92,10.96,53.99,1.15,5.15-13.91,8.16-15.36,2.66-6.47-24.58-10.27-45.74-11.34-52.55Z"/>
      <path class="cls-6" d="M119.27,257.36c2.53-.7,5.26.98,9.85-.36,3.01-.88,4.25-2.84,5.72-2.1.89.45,1.42,1.64,1.24,2.6-.24,1.31-1.77,1.93-3.77,2.72-1.11.44-4.86,1.82-10.22,1.3-2.87-.27-3.01-.75-3.21-1.22-.35-.82-.65-2.66.38-2.94Z"/>
      <path class="cls-3" d="M108.02,204.72c-.54-3.45,2.51-1.81,7.99-2.49,5.28-.65,7.39-3.1,7.75-1.61,3.83,16,4.25,23.92,10.96,53.99,1.15,5.15-13.91,8.16-15.36,2.66-6.47-24.58-10.27-45.74-11.34-52.55Z"/>
      <path class="cls-6" d="M107.39,200.6c2.53-.7,5.26.98,9.85-.36,3.01-.88,4.25-2.84,5.72-2.1.89.45,1.42,1.64,1.24,2.6-.24,1.31-1.77,1.93-3.77,2.72-1.11.44-4.86,1.82-10.22,1.3-2.87-.27-3.01-.75-3.21-1.22-.35-.82-.65-2.66.38-2.94Z"/>
      <path class="cls-3" d="M95.7,147.95c-.54-3.45,2.51-1.81,7.99-2.49,5.28-.65,7.39-3.1,7.75-1.61,3.83,16,4.25,23.92,10.96,53.99,1.15,5.15-13.91,8.16-15.36,2.66-6.47-24.58-10.27-45.74-11.34-52.55Z"/>
      <path class="cls-6" d="M94.74,143.53c2.53-.69,5.25.91,9.85-.41,3.02-.86,4.26-2.75,5.73-2.05.88.42,1.41,1.57,1.22,2.49-.25,1.26-1.78,1.87-3.78,2.64-1.11.43-4.86,1.78-10.22,1.31-2.86-.25-3.01-.7-3.2-1.16-.34-.79-.63-2.55.4-2.83Z"/>
      <path class="cls-3" d="M83.46,90.67c-.54-3.45,2.51-1.81,7.99-2.49,5.28-.65,7.39-3.1,7.75-1.61,3.83,16,4.25,23.92,10.96,53.99,1.15,5.15-13.91,8.16-15.36,2.66-6.47-24.58-10.27-45.74-11.34-52.55Z"/>
      <path class="cls-6" d="M82.95,86.63c2.53-.7,5.26.98,9.85-.36,3.01-.88,4.25-2.84,5.72-2.1.89.45,1.42,1.64,1.24,2.6-.24,1.31-1.77,1.93-3.77,2.72-1.11.44-4.86,1.82-10.22,1.3-2.87-.27-3.01-.75-3.21-1.22-.35-.82-.65-2.66.38-2.94Z"/>
      <path class="cls-3" d="M71.06,33.72c-.54-3.45,2.51-1.81,7.99-2.49,5.28-.65,7.39-3.1,7.75-1.61,3.83,16,4.25,23.92,10.96,53.99,1.15,5.15-13.91,8.16-15.36,2.66-6.47-24.58-10.27-45.74-11.34-52.55Z"/>
    </g>
  </g>
  <path class="cls-2" d="M85.61,96.81c10.38-3.9,9.94-4.91,36.62-16.56,6.68-2.92,10.38-4.72,12.15-5.59,7.95-3.93,10.97-6.08,24.51-11.79,27.84-11.72,32.36-9.91,33.59-8.22,2.1,2.88-4.14,7.58-2.61,15.21.96,4.77,4.57,9.94,13.79,15.93,4.46,2.9,22.62,9.6,43.53,3.41,7.41-2.19,13.21-4.57,16.38-10.28,5.49-9.9,2.3-18.68,2.44-26.22s10.6-1.94,18.43-.03c16.92,4.12,29.13,13.51,40.19,22.18,8.05,6.32,15.23,12.95,15.23,12.95,6.75,6.38,9.21,9.84,16.36,15.12,13.78,10.18,16.42,14.02,22.7,18.26,10.57,7.13-1.7,26.02-14.35,35.23-1.34.97-10.11,11.83-23.13,2.09-14.42-10.79-34.16-26.29-39.74-24.34-9.54,3.32,3.29,64.61,13.29,110.67,10.69,49.25,17.21,55.22,11.23,66.09-8.36,15.22-26.91,16.15-138.4,19.99-42.87,1.48-50.49,3.44-58.32-6.82-5.48-7.17-6.05-14.84,5.34-89.12.57-3.71,8.49-33.89,12.45-74.25,1.65-16.84,2.62-34.91-3.19-36.92-8.11-2.8-23.61,11.06-37.87,23.94-7.97,7.2-19.43-9.05-26.54-18.16-10.43-13.36-5.93-28.33,5.92-32.78Z"/>
  <g>
    <path class="cls-1" d="M313.41,328.6c-10.51,2.41-24.94-12.81-26.18-28.34-.98-12.21,5.97-27.36,16.43-29.03,6.34-1.01,11.78,3.27,13.59,4.69,10.92,8.59,9.93,23.96,9.74,26.84-.52,8.07-4.2,23.69-13.58,25.84Z"/>
    <path class="cls-1" d="M306.89,326.26c-6.37-8.69,1.88-27.97,15.64-35.27,10.82-5.74,27.49-5.36,33.17,3.58,3.44,5.42,1.67,12.11,1.08,14.34-3.55,13.43-18.06,18.61-20.78,19.58-7.62,2.72-23.42,5.54-29.11-2.22Z"/>
    <path class="cls-5" d="M307.46,330.44c-10.58-4.15-14.11-25.99-5.96-40.26,6.41-11.22,20.98-18.45,31.08-13.69,6.12,2.89,8.81,8.02,9.55,10.33,4.41,13.98-5.6,26.78-7.47,29.18-5.26,6.72-17.74,18.15-27.2,14.44Z"/>
    <path class="cls-4" d="M298.52,323.9c-3.89-4.71-3.85-11.89-3.37-12.03,0,0,.02,0,.02,0,.1,0,.32.37,2.1,4.1,3.19,6.68,3.7,8.04,5.27,8.61,1.91.69,3.95-.32,4.62-.65,2.98-1.47,4.06-4.58,4.75-4.28.37.16.33,1.17.17,1.85-.46,1.95-2.16,2.26-2.63,3.92-.29,1.02-.02,2.21.49,2.95,1.66,2.44,7.04,1.63,15.57.5,2.39-.32,2.5.71,2.5.81.03.78-5.24,1.78-7.72,1.89-8.73.39-11.3-.19-13.4-1.31-.35-.19-.63-.35-1.17-.69-1.59-.97-5.1-3.12-7.2-5.66Z"/>
  </g>
  <g>
    <path class="cls-1" d="M272.76,328.18c-1.87,8.02-17.16,12.84-28.25,8.49-8.72-3.42-16.8-13.27-14.44-21.02,1.43-4.69,6.2-7,7.78-7.76,9.56-4.63,19.79,1.21,21.7,2.3,5.37,3.07,14.87,10.83,13.2,17.99Z"/>
    <path class="cls-1" d="M268.97,331.87c-8.11,1.47-18.59-10.66-18.99-22.57-.32-9.36,5.53-20.68,13.57-21.59,4.87-.55,8.88,2.91,10.21,4.06,8.04,6.94,6.73,18.65,6.49,20.84-.69,6.15-4.04,17.94-11.28,19.25Z"/>
    <path class="cls-5" d="M272.03,332.88c-6.4,5.88-22.58.98-29.66-9.4-5.56-8.16-5.65-20.6,1.01-25.94,4.03-3.24,8.46-3.37,10.3-3.09,11.08,1.65,16.52,12.82,17.54,14.91,2.86,5.86,6.52,18.27.8,23.52Z"/>
    <path class="cls-4" d="M264.54,336.83c-4.54,1.09-9.46-1.34-9.39-1.72,0,0,0-.01,0-.01.04-.07.36-.1,3.52-.07,5.65.05,6.77.15,7.68-.74,1.11-1.08,1.1-2.82,1.1-3.39-.01-2.54-1.79-4.32-1.35-4.7.24-.2.91.17,1.33.5,1.18.97.83,2.24,1.81,3.12.6.54,1.51.75,2.19.65,2.23-.32,3.48-4.29,5.56-10.53.58-1.75,1.32-1.48,1.4-1.45.55.24-.53,4.2-1.29,5.94-2.66,6.13-3.92,7.7-5.39,8.77-.25.18-.45.31-.86.57-1.2.76-3.85,2.46-6.3,3.05Z"/>
  </g>
</svg>