<?xml version="1.0" encoding="UTF-8"?>
<svg id="Layer_1" data-name="Layer 1" xmlns="http://www.w3.org/2000/svg" viewBox="0 0 300 355">
  <defs>
    <style>
      .cls-1 {
        fill: #a3a6b4;
      }

      .cls-1, .cls-2 {
        stroke-width: 0px;
      }

      .cls-2 {
        fill: #d8dce5;
      }
    </style>
  </defs>
  <path class="cls-2" d="M110.62,48.02c-1.87,4.51-.32,6.45-.09,15.1.34,13.03-4.6,19.42-6.35,24.03-16.63,43.77-11.65,200.34-9.85,223.05,0,0,1.89,23.86,10.49,25.13,1.39.21,3.37-.28,6.9.55,4.04.95,4.35,2.27,7.18,2.76,4.7.82,5.72-2.47,11.05-2.49,5.24-.02,5.4,3.16,10.49,3.04,4.58-.11,5.43-2.72,11.05-3.04,3.75-.21,4.99.86,7.18.83,8.19-.1,14.37-15.38,15.19-17.4,16.02-39.6,1.38-177.02,1.38-177.02-2.37-22.23-5.15-50.6-13.81-64.07-1.5-2.34-4.01-7.77-4.51-15.83-.57-9.19,2.51-12.71.64-16.75-4.48-9.74-41.67-10.58-46.95,2.12Z"/>
  <path class="cls-1" d="M111.77,48.26c-12.14-.53-14.59-33.5-2.21-34.24,15.28-.92,25.41-.37,45.29,1.1,9.85.73,12.69,31.45,2.39,31.85-18.96.74-28.72,2.03-45.48,1.29Z"/>
</svg>